<?xml version="1.0" encoding="utf-8"?>
<!-- Generator: Adobe Illustrator 19.0.0, SVG Export Plug-In . SVG Version: 6.00 Build 0)  -->
<svg version="1.1" xmlns="http://www.w3.org/2000/svg" xmlns:xlink="http://www.w3.org/1999/xlink" x="0px" y="0px"
	 viewBox="0 0 500 500" style="enable-background:new 0 0 500 500;" xml:space="preserve">
<style type="text/css">
	.st0{display:none;}
	.st1{display:inline;fill:#FFFFFF;stroke:#000000;stroke-miterlimit:10;}
	.st2{display:inline;opacity:0.25;fill:none;stroke:#000000;stroke-miterlimit:10;}
	.st3{display:inline;opacity:0.25;}
	.st4{display:inline;opacity:0.5;}
	.st5{fill:none;stroke:#000000;stroke-miterlimit:10;}
	.st6{display:inline;opacity:0.5;fill:none;stroke:#000000;stroke-miterlimit:10;}
	.st7{display:inline;fill:#9B9A9A;}
	.st8{fill:#45B649;}
	.st9{fill:#C64545;}
	.st10{fill:#457CAE;}
	.st11{fill:#994E9E;}
	.st12{display:inline;fill:#45B649;}
	.st13{display:inline;fill:#24968E;}
	.st14{display:inline;fill:#BCB536;}
	.st15{display:inline;fill:#C54545;}
	.st16{display:inline;fill:#5C449A;}
	.st17{display:inline;fill:#467DAF;}
	.st18{display:inline;fill:#C14097;}
	.st19{display:inline;fill:#984E9E;}
	.st20{display:inline;fill:#994E9E;}
	.st21{display:inline;fill:#C64545;}
	.st22{display:inline;fill:#5C439A;}
	.st23{display:inline;fill:#457CAE;}
	.st24{display:inline;fill:#25968E;}
	.st25{display:inline;}
	.st26{fill:url(#XMLID_23_);}
	.st27{fill:url(#XMLID_26_);}
	.st28{display:inline;fill:#898584;}
	.st29{display:inline;fill:#E79A24;stroke:#000000;stroke-miterlimit:10;}
	.st30{display:inline;fill:#895BA6;stroke:#000000;stroke-miterlimit:10;}
	.st31{display:inline;fill:#8479B8;stroke:#000000;stroke-miterlimit:10;}
	.st32{display:inline;fill:#7B9BD0;stroke:#000000;stroke-miterlimit:10;}
	.st33{display:inline;fill:#45B649;stroke:#000000;stroke-miterlimit:10;}
	.st34{display:inline;fill:#CE2C27;stroke:#000000;stroke-miterlimit:10;}
	.st35{display:inline;fill:#EF498C;stroke:#000000;stroke-miterlimit:10;}
	.st36{display:inline;fill:#A3A5A8;stroke:#000000;stroke-miterlimit:10;}
	.st37{display:inline;fill:#F7EC27;stroke:#000000;stroke-miterlimit:10;}
	.st38{display:inline;fill:none;}
	.st39{font-family:'Ubuntu-Bold';}
	.st40{font-size:19px;}
</style>
<g id="template" class="st0">
	<polygon id="XMLID_1_" class="st1" points="167.2,450 50,332.8 50,167.2 167.2,50 332.8,50 450,167.2 450,332.8 332.8,450 	"/>
</g>
<g id="template_copy_2" class="st0">
	<polygon id="XMLID_241_" class="st1" points="167.2,450 50,332.8 50,167.2 167.2,50 332.8,50 450,167.2 450,332.8 332.8,450 	"/>
</g>
<g id="lines3" class="st0">
	<path id="XMLID_265_" class="st2" d="M150.5,70.5"/>
	<polygon id="XMLID_648_" class="st3" points="171,71 150.5,71 150.5,70 170,70 170,50.5 171,50.5 	"/>
	<path id="XMLID_649_" class="st3" d="M191,71h-21V50h21V71z M171,70h19V51h-19V70z"/>
	<path id="XMLID_650_" class="st3" d="M211,71h-21V50h21V71z M191,70h19V51h-19V70z"/>
	<path id="XMLID_651_" class="st3" d="M231,71h-21V50h21V71z M211,70h19V51h-19V70z"/>
	<path id="XMLID_652_" class="st3" d="M251,71h-21V50h21V71z M231,70h19V51h-19V70z"/>
	<path id="XMLID_653_" class="st3" d="M271,71h-21V50h21V71z M251,70h19V51h-19V70z"/>
	<path id="XMLID_654_" class="st3" d="M291,71h-21V50h21V71z M271,70h19V51h-19V70z"/>
	<path id="XMLID_655_" class="st3" d="M311,71h-21V50h21V71z M291,70h19V51h-19V70z"/>
	<path id="XMLID_272_" class="st3" d="M331,71h-21V50h21V71z M311,70h19V51h-19V70z"/>
	<polygon id="XMLID_243_" class="st3" points="350.5,71 330,71 330,50.5 331,50.5 331,70 350.5,70 	"/>
	<path id="XMLID_276_" class="st2" d="M350.5,70.5"/>
	<path id="XMLID_263_" class="st2" d="M130.5,90.5"/>
	<polygon id="XMLID_667_" class="st3" points="151,91 130.5,91 130.5,90 150,90 150,70.5 151,70.5 	"/>
	<path id="XMLID_668_" class="st3" d="M171,91h-21V70h21V91z M151,90h19V71h-19V90z"/>
	<path id="XMLID_669_" class="st3" d="M191,91h-21V70h21V91z M171,90h19V71h-19V90z"/>
	<path id="XMLID_670_" class="st3" d="M211,91h-21V70h21V91z M191,90h19V71h-19V90z"/>
	<path id="XMLID_671_" class="st3" d="M231,91h-21V70h21V91z M211,90h19V71h-19V90z"/>
	<path id="XMLID_672_" class="st3" d="M251,91h-21V70h21V91z M231,90h19V71h-19V90z"/>
	<path id="XMLID_673_" class="st3" d="M271,91h-21V70h21V91z M251,90h19V71h-19V90z"/>
	<path id="XMLID_674_" class="st3" d="M291,91h-21V70h21V91z M271,90h19V71h-19V90z"/>
	<path id="XMLID_675_" class="st3" d="M311,91h-21V70h21V91z M291,90h19V71h-19V90z"/>
	<path id="XMLID_676_" class="st3" d="M331,91h-21V70h21V91z M311,90h19V71h-19V90z"/>
	<path id="XMLID_275_" class="st3" d="M351,91h-21V70h21V91z M331,90h19V71h-19V90z"/>
	<polygon id="XMLID_259_" class="st3" points="370.5,91 350,91 350,70.5 351,70.5 351,90 370.5,90 	"/>
	<path id="XMLID_271_" class="st2" d="M370.5,90.5"/>
	<path id="XMLID_260_" class="st2" d="M110.5,110.5"/>
	<polygon id="XMLID_686_" class="st3" points="131,111 110.5,111 110.5,110 130,110 130,90.5 131,90.5 	"/>
	<path id="XMLID_687_" class="st3" d="M151,111h-21V90h21V111z M131,110h19V91h-19V110z"/>
	<path id="XMLID_688_" class="st3" d="M171,111h-21V90h21V111z M151,110h19V91h-19V110z"/>
	<path id="XMLID_689_" class="st3" d="M191,111h-21V90h21V111z M171,110h19V91h-19V110z"/>
	<path id="XMLID_690_" class="st3" d="M211,111h-21V90h21V111z M191,110h19V91h-19V110z"/>
	<path id="XMLID_691_" class="st3" d="M231,111h-21V90h21V111z M211,110h19V91h-19V110z"/>
	<path id="XMLID_692_" class="st3" d="M251,111h-21V90h21V111z M231,110h19V91h-19V110z"/>
	<path id="XMLID_693_" class="st3" d="M271,111h-21V90h21V111z M251,110h19V91h-19V110z"/>
	<path id="XMLID_694_" class="st3" d="M291,111h-21V90h21V111z M271,110h19V91h-19V110z"/>
	<path id="XMLID_695_" class="st3" d="M311,111h-21V90h21V111z M291,110h19V91h-19V110z"/>
	<path id="XMLID_696_" class="st3" d="M331,111h-21V90h21V111z M311,110h19V91h-19V110z"/>
	<path id="XMLID_697_" class="st3" d="M351,111h-21V90h21V111z M331,110h19V91h-19V110z"/>
	<path id="XMLID_268_" class="st3" d="M371,111h-21V90h21V111z M351,110h19V91h-19V110z"/>
	<polygon id="XMLID_254_" class="st3" points="390.5,111 370,111 370,90.5 371,90.5 371,110 390.5,110 	"/>
	<path id="XMLID_274_" class="st2" d="M390.5,110.5"/>
	<path id="XMLID_262_" class="st2" d="M90.5,130.5"/>
	<polygon id="XMLID_705_" class="st3" points="111,131 90.5,131 90.5,130 110,130 110,110.5 111,110.5 	"/>
	<path id="XMLID_706_" class="st3" d="M131,131h-21v-21h21V131z M111,130h19v-19h-19V130z"/>
	<path id="XMLID_707_" class="st3" d="M151,131h-21v-21h21V131z M131,130h19v-19h-19V130z"/>
	<path id="XMLID_708_" class="st3" d="M171,131h-21v-21h21V131z M151,130h19v-19h-19V130z"/>
	<path id="XMLID_709_" class="st3" d="M191,131h-21v-21h21V131z M171,130h19v-19h-19V130z"/>
	<path id="XMLID_710_" class="st3" d="M211,131h-21v-21h21V131z M191,130h19v-19h-19V130z"/>
	<path id="XMLID_711_" class="st3" d="M231,131h-21v-21h21V131z M211,130h19v-19h-19V130z"/>
	<path id="XMLID_712_" class="st3" d="M251,131h-21v-21h21V131z M231,130h19v-19h-19V130z"/>
	<path id="XMLID_713_" class="st3" d="M271,131h-21v-21h21V131z M251,130h19v-19h-19V130z"/>
	<path id="XMLID_714_" class="st3" d="M291,131h-21v-21h21V131z M271,130h19v-19h-19V130z"/>
	<path id="XMLID_715_" class="st3" d="M311,131h-21v-21h21V131z M291,130h19v-19h-19V130z"/>
	<path id="XMLID_716_" class="st3" d="M331,131h-21v-21h21V131z M311,130h19v-19h-19V130z"/>
	<path id="XMLID_717_" class="st3" d="M351,131h-21v-21h21V131z M331,130h19v-19h-19V130z"/>
	<path id="XMLID_718_" class="st3" d="M371,131h-21v-21h21V131z M351,130h19v-19h-19V130z"/>
	<path id="XMLID_273_" class="st3" d="M391,131h-21v-21h21V131z M371,130h19v-19h-19V130z"/>
	<polygon id="XMLID_257_" class="st3" points="410.5,131 390,131 390,110.5 391,110.5 391,130 410.5,130 	"/>
	<path id="XMLID_267_" class="st2" d="M410.5,130.5"/>
	<path id="XMLID_258_" class="st2" d="M70.5,150.5"/>
	<polygon id="XMLID_724_" class="st3" points="91,151 70.5,151 70.5,150 90,150 90,130.5 91,130.5 	"/>
	<path id="XMLID_725_" class="st3" d="M111,151H90v-21h21V151z M91,150h19v-19H91V150z"/>
	<path id="XMLID_726_" class="st3" d="M131,151h-21v-21h21V151z M111,150h19v-19h-19V150z"/>
	<path id="XMLID_727_" class="st3" d="M151,151h-21v-21h21V151z M131,150h19v-19h-19V150z"/>
	<path id="XMLID_728_" class="st3" d="M171,151h-21v-21h21V151z M151,150h19v-19h-19V150z"/>
	<path id="XMLID_729_" class="st3" d="M191,151h-21v-21h21V151z M171,150h19v-19h-19V150z"/>
	<path id="XMLID_730_" class="st3" d="M211,151h-21v-21h21V151z M191,150h19v-19h-19V150z"/>
	<path id="XMLID_731_" class="st3" d="M231,151h-21v-21h21V151z M211,150h19v-19h-19V150z"/>
	<path id="XMLID_732_" class="st3" d="M251,151h-21v-21h21V151z M231,150h19v-19h-19V150z"/>
	<path id="XMLID_733_" class="st3" d="M271,151h-21v-21h21V151z M251,150h19v-19h-19V150z"/>
	<path id="XMLID_734_" class="st3" d="M291,151h-21v-21h21V151z M271,150h19v-19h-19V150z"/>
	<path id="XMLID_735_" class="st3" d="M311,151h-21v-21h21V151z M291,150h19v-19h-19V150z"/>
	<path id="XMLID_736_" class="st3" d="M331,151h-21v-21h21V151z M311,150h19v-19h-19V150z"/>
	<path id="XMLID_737_" class="st3" d="M351,151h-21v-21h21V151z M331,150h19v-19h-19V150z"/>
	<path id="XMLID_738_" class="st3" d="M371,151h-21v-21h21V151z M351,150h19v-19h-19V150z"/>
	<path id="XMLID_739_" class="st3" d="M391,151h-21v-21h21V151z M371,150h19v-19h-19V150z"/>
	<path id="XMLID_266_" class="st3" d="M411,151h-21v-21h21V151z M391,150h19v-19h-19V150z"/>
	<polygon id="XMLID_245_" class="st3" points="430.5,151 410,151 410,130.5 411,130.5 411,150 430.5,150 	"/>
	<path id="XMLID_270_" class="st2" d="M430.5,150.5"/>
	<polygon id="XMLID_743_" class="st3" points="71,171 50.5,171 50.5,170 70,170 70,150.5 71,150.5 	"/>
	<path id="XMLID_744_" class="st3" d="M91,171H70v-21h21V171z M71,170h19v-19H71V170z"/>
	<path id="XMLID_745_" class="st3" d="M111,171H90v-21h21V171z M91,170h19v-19H91V170z"/>
	<path id="XMLID_746_" class="st3" d="M131,171h-21v-21h21V171z M111,170h19v-19h-19V170z"/>
	<path id="XMLID_747_" class="st3" d="M151,171h-21v-21h21V171z M131,170h19v-19h-19V170z"/>
	<path id="XMLID_748_" class="st3" d="M171,171h-21v-21h21V171z M151,170h19v-19h-19V170z"/>
	<path id="XMLID_749_" class="st3" d="M191,171h-21v-21h21V171z M171,170h19v-19h-19V170z"/>
	<path id="XMLID_750_" class="st3" d="M211,171h-21v-21h21V171z M191,170h19v-19h-19V170z"/>
	<path id="XMLID_751_" class="st3" d="M231,171h-21v-21h21V171z M211,170h19v-19h-19V170z"/>
	<path id="XMLID_752_" class="st3" d="M251,171h-21v-21h21V171z M231,170h19v-19h-19V170z"/>
	<path id="XMLID_753_" class="st3" d="M271,171h-21v-21h21V171z M251,170h19v-19h-19V170z"/>
	<path id="XMLID_754_" class="st3" d="M291,171h-21v-21h21V171z M271,170h19v-19h-19V170z"/>
	<path id="XMLID_755_" class="st3" d="M311,171h-21v-21h21V171z M291,170h19v-19h-19V170z"/>
	<path id="XMLID_756_" class="st3" d="M331,171h-21v-21h21V171z M311,170h19v-19h-19V170z"/>
	<path id="XMLID_757_" class="st3" d="M351,171h-21v-21h21V171z M331,170h19v-19h-19V170z"/>
	<path id="XMLID_758_" class="st3" d="M371,171h-21v-21h21V171z M351,170h19v-19h-19V170z"/>
	<path id="XMLID_759_" class="st3" d="M391,171h-21v-21h21V171z M371,170h19v-19h-19V170z"/>
	<path id="XMLID_760_" class="st3" d="M411,171h-21v-21h21V171z M391,170h19v-19h-19V170z"/>
	<path id="XMLID_269_" class="st3" d="M431,171h-21v-21h21V171z M411,170h19v-19h-19V170z"/>
	<polygon id="XMLID_762_" class="st3" points="450.5,171 430,171 430,150.5 431,150.5 431,170 450.5,170 	"/>
	<path id="XMLID_763_" class="st3" d="M71,191H50v-21h21V191z M51,190h19v-19H51V190z"/>
	<path id="XMLID_764_" class="st3" d="M91,191H70v-21h21V191z M71,190h19v-19H71V190z"/>
	<path id="XMLID_765_" class="st3" d="M111,191H90v-21h21V191z M91,190h19v-19H91V190z"/>
	<path id="XMLID_766_" class="st3" d="M131,191h-21v-21h21V191z M111,190h19v-19h-19V190z"/>
	<path id="XMLID_767_" class="st3" d="M151,191h-21v-21h21V191z M131,190h19v-19h-19V190z"/>
	<path id="XMLID_768_" class="st3" d="M171,191h-21v-21h21V191z M151,190h19v-19h-19V190z"/>
	<path id="XMLID_769_" class="st3" d="M191,191h-21v-21h21V191z M171,190h19v-19h-19V190z"/>
	<path id="XMLID_770_" class="st3" d="M211,191h-21v-21h21V191z M191,190h19v-19h-19V190z"/>
	<path id="XMLID_771_" class="st3" d="M231,191h-21v-21h21V191z M211,190h19v-19h-19V190z"/>
	<path id="XMLID_772_" class="st3" d="M251,191h-21v-21h21V191z M231,190h19v-19h-19V190z"/>
	<path id="XMLID_773_" class="st3" d="M271,191h-21v-21h21V191z M251,190h19v-19h-19V190z"/>
	<path id="XMLID_774_" class="st3" d="M291,191h-21v-21h21V191z M271,190h19v-19h-19V190z"/>
	<path id="XMLID_775_" class="st3" d="M311,191h-21v-21h21V191z M291,190h19v-19h-19V190z"/>
	<path id="XMLID_776_" class="st3" d="M331,191h-21v-21h21V191z M311,190h19v-19h-19V190z"/>
	<path id="XMLID_777_" class="st3" d="M351,191h-21v-21h21V191z M331,190h19v-19h-19V190z"/>
	<path id="XMLID_778_" class="st3" d="M371,191h-21v-21h21V191z M351,190h19v-19h-19V190z"/>
	<path id="XMLID_779_" class="st3" d="M391,191h-21v-21h21V191z M371,190h19v-19h-19V190z"/>
	<path id="XMLID_780_" class="st3" d="M411,191h-21v-21h21V191z M391,190h19v-19h-19V190z"/>
	<path id="XMLID_781_" class="st3" d="M431,191h-21v-21h21V191z M411,190h19v-19h-19V190z"/>
	<path id="XMLID_782_" class="st3" d="M451,191h-21v-21h21V191z M431,190h19v-19h-19V190z"/>
	<path id="XMLID_783_" class="st3" d="M71,211H50v-21h21V211z M51,210h19v-19H51V210z"/>
	<path id="XMLID_784_" class="st3" d="M91,211H70v-21h21V211z M71,210h19v-19H71V210z"/>
	<path id="XMLID_785_" class="st3" d="M111,211H90v-21h21V211z M91,210h19v-19H91V210z"/>
	<path id="XMLID_786_" class="st3" d="M131,211h-21v-21h21V211z M111,210h19v-19h-19V210z"/>
	<path id="XMLID_787_" class="st3" d="M151,211h-21v-21h21V211z M131,210h19v-19h-19V210z"/>
	<path id="XMLID_788_" class="st3" d="M171,211h-21v-21h21V211z M151,210h19v-19h-19V210z"/>
	<path id="XMLID_789_" class="st3" d="M191,211h-21v-21h21V211z M171,210h19v-19h-19V210z"/>
	<path id="XMLID_790_" class="st3" d="M211,211h-21v-21h21V211z M191,210h19v-19h-19V210z"/>
	<path id="XMLID_791_" class="st3" d="M231,211h-21v-21h21V211z M211,210h19v-19h-19V210z"/>
	<path id="XMLID_792_" class="st3" d="M251,211h-21v-21h21V211z M231,210h19v-19h-19V210z"/>
	<path id="XMLID_793_" class="st3" d="M271,211h-21v-21h21V211z M251,210h19v-19h-19V210z"/>
	<path id="XMLID_794_" class="st3" d="M291,211h-21v-21h21V211z M271,210h19v-19h-19V210z"/>
	<path id="XMLID_795_" class="st3" d="M311,211h-21v-21h21V211z M291,210h19v-19h-19V210z"/>
	<path id="XMLID_796_" class="st3" d="M331,211h-21v-21h21V211z M311,210h19v-19h-19V210z"/>
	<path id="XMLID_797_" class="st3" d="M351,211h-21v-21h21V211z M331,210h19v-19h-19V210z"/>
	<path id="XMLID_798_" class="st3" d="M371,211h-21v-21h21V211z M351,210h19v-19h-19V210z"/>
	<path id="XMLID_799_" class="st3" d="M391,211h-21v-21h21V211z M371,210h19v-19h-19V210z"/>
	<path id="XMLID_800_" class="st3" d="M411,211h-21v-21h21V211z M391,210h19v-19h-19V210z"/>
	<path id="XMLID_801_" class="st3" d="M431,211h-21v-21h21V211z M411,210h19v-19h-19V210z"/>
	<path id="XMLID_802_" class="st3" d="M451,211h-21v-21h21V211z M431,210h19v-19h-19V210z"/>
	<path id="XMLID_803_" class="st3" d="M71,231H50v-21h21V231z M51,230h19v-19H51V230z"/>
	<path id="XMLID_804_" class="st3" d="M91,231H70v-21h21V231z M71,230h19v-19H71V230z"/>
	<path id="XMLID_805_" class="st3" d="M111,231H90v-21h21V231z M91,230h19v-19H91V230z"/>
	<path id="XMLID_806_" class="st3" d="M131,231h-21v-21h21V231z M111,230h19v-19h-19V230z"/>
	<path id="XMLID_807_" class="st3" d="M151,231h-21v-21h21V231z M131,230h19v-19h-19V230z"/>
	<path id="XMLID_808_" class="st3" d="M171,231h-21v-21h21V231z M151,230h19v-19h-19V230z"/>
	<path id="XMLID_809_" class="st3" d="M191,231h-21v-21h21V231z M171,230h19v-19h-19V230z"/>
	<path id="XMLID_810_" class="st3" d="M211,231h-21v-21h21V231z M191,230h19v-19h-19V230z"/>
	<path id="XMLID_811_" class="st3" d="M231,231h-21v-21h21V231z M211,230h19v-19h-19V230z"/>
	<path id="XMLID_812_" class="st3" d="M251,231h-21v-21h21V231z M231,230h19v-19h-19V230z"/>
	<path id="XMLID_813_" class="st3" d="M271,231h-21v-21h21V231z M251,230h19v-19h-19V230z"/>
	<path id="XMLID_814_" class="st3" d="M291,231h-21v-21h21V231z M271,230h19v-19h-19V230z"/>
	<path id="XMLID_815_" class="st3" d="M311,231h-21v-21h21V231z M291,230h19v-19h-19V230z"/>
	<path id="XMLID_816_" class="st3" d="M331,231h-21v-21h21V231z M311,230h19v-19h-19V230z"/>
	<path id="XMLID_817_" class="st3" d="M351,231h-21v-21h21V231z M331,230h19v-19h-19V230z"/>
	<path id="XMLID_818_" class="st3" d="M371,231h-21v-21h21V231z M351,230h19v-19h-19V230z"/>
	<path id="XMLID_819_" class="st3" d="M391,231h-21v-21h21V231z M371,230h19v-19h-19V230z"/>
	<path id="XMLID_820_" class="st3" d="M411,231h-21v-21h21V231z M391,230h19v-19h-19V230z"/>
	<path id="XMLID_821_" class="st3" d="M431,231h-21v-21h21V231z M411,230h19v-19h-19V230z"/>
	<path id="XMLID_822_" class="st3" d="M451,231h-21v-21h21V231z M431,230h19v-19h-19V230z"/>
	<path id="XMLID_823_" class="st3" d="M71,251H50v-21h21V251z M51,250h19v-19H51V250z"/>
	<path id="XMLID_824_" class="st3" d="M91,251H70v-21h21V251z M71,250h19v-19H71V250z"/>
	<path id="XMLID_825_" class="st3" d="M111,251H90v-21h21V251z M91,250h19v-19H91V250z"/>
	<path id="XMLID_826_" class="st3" d="M131,251h-21v-21h21V251z M111,250h19v-19h-19V250z"/>
	<path id="XMLID_827_" class="st3" d="M151,251h-21v-21h21V251z M131,250h19v-19h-19V250z"/>
	<path id="XMLID_828_" class="st3" d="M171,251h-21v-21h21V251z M151,250h19v-19h-19V250z"/>
	<path id="XMLID_829_" class="st3" d="M191,251h-21v-21h21V251z M171,250h19v-19h-19V250z"/>
	<path id="XMLID_830_" class="st3" d="M211,251h-21v-21h21V251z M191,250h19v-19h-19V250z"/>
	<path id="XMLID_831_" class="st3" d="M231,251h-21v-21h21V251z M211,250h19v-19h-19V250z"/>
	<path id="XMLID_832_" class="st3" d="M251,251h-21v-21h21V251z M231,250h19v-19h-19V250z"/>
	<path id="XMLID_833_" class="st3" d="M271,251h-21v-21h21V251z M251,250h19v-19h-19V250z"/>
	<path id="XMLID_834_" class="st3" d="M291,251h-21v-21h21V251z M271,250h19v-19h-19V250z"/>
	<path id="XMLID_835_" class="st3" d="M311,251h-21v-21h21V251z M291,250h19v-19h-19V250z"/>
	<path id="XMLID_836_" class="st3" d="M331,251h-21v-21h21V251z M311,250h19v-19h-19V250z"/>
	<path id="XMLID_837_" class="st3" d="M351,251h-21v-21h21V251z M331,250h19v-19h-19V250z"/>
	<path id="XMLID_838_" class="st3" d="M371,251h-21v-21h21V251z M351,250h19v-19h-19V250z"/>
	<path id="XMLID_839_" class="st3" d="M391,251h-21v-21h21V251z M371,250h19v-19h-19V250z"/>
	<path id="XMLID_840_" class="st3" d="M411,251h-21v-21h21V251z M391,250h19v-19h-19V250z"/>
	<path id="XMLID_841_" class="st3" d="M431,251h-21v-21h21V251z M411,250h19v-19h-19V250z"/>
	<path id="XMLID_842_" class="st3" d="M451,251h-21v-21h21V251z M431,250h19v-19h-19V250z"/>
	<path id="XMLID_843_" class="st3" d="M71,271H50v-21h21V271z M51,270h19v-19H51V270z"/>
	<path id="XMLID_844_" class="st3" d="M91,271H70v-21h21V271z M71,270h19v-19H71V270z"/>
	<path id="XMLID_845_" class="st3" d="M111,271H90v-21h21V271z M91,270h19v-19H91V270z"/>
	<path id="XMLID_846_" class="st3" d="M131,271h-21v-21h21V271z M111,270h19v-19h-19V270z"/>
	<path id="XMLID_847_" class="st3" d="M151,271h-21v-21h21V271z M131,270h19v-19h-19V270z"/>
	<path id="XMLID_848_" class="st3" d="M171,271h-21v-21h21V271z M151,270h19v-19h-19V270z"/>
	<path id="XMLID_849_" class="st3" d="M191,271h-21v-21h21V271z M171,270h19v-19h-19V270z"/>
	<path id="XMLID_850_" class="st3" d="M211,271h-21v-21h21V271z M191,270h19v-19h-19V270z"/>
	<path id="XMLID_851_" class="st3" d="M231,271h-21v-21h21V271z M211,270h19v-19h-19V270z"/>
	<path id="XMLID_852_" class="st3" d="M251,271h-21v-21h21V271z M231,270h19v-19h-19V270z"/>
	<path id="XMLID_853_" class="st3" d="M271,271h-21v-21h21V271z M251,270h19v-19h-19V270z"/>
	<path id="XMLID_854_" class="st3" d="M291,271h-21v-21h21V271z M271,270h19v-19h-19V270z"/>
	<path id="XMLID_855_" class="st3" d="M311,271h-21v-21h21V271z M291,270h19v-19h-19V270z"/>
	<path id="XMLID_856_" class="st3" d="M331,271h-21v-21h21V271z M311,270h19v-19h-19V270z"/>
	<path id="XMLID_857_" class="st3" d="M351,271h-21v-21h21V271z M331,270h19v-19h-19V270z"/>
	<path id="XMLID_858_" class="st3" d="M371,271h-21v-21h21V271z M351,270h19v-19h-19V270z"/>
	<path id="XMLID_859_" class="st3" d="M391,271h-21v-21h21V271z M371,270h19v-19h-19V270z"/>
	<path id="XMLID_860_" class="st3" d="M411,271h-21v-21h21V271z M391,270h19v-19h-19V270z"/>
	<path id="XMLID_861_" class="st3" d="M431,271h-21v-21h21V271z M411,270h19v-19h-19V270z"/>
	<path id="XMLID_862_" class="st3" d="M451,271h-21v-21h21V271z M431,270h19v-19h-19V270z"/>
	<path id="XMLID_863_" class="st3" d="M71,291H50v-21h21V291z M51,290h19v-19H51V290z"/>
	<path id="XMLID_864_" class="st3" d="M91,291H70v-21h21V291z M71,290h19v-19H71V290z"/>
	<path id="XMLID_865_" class="st3" d="M111,291H90v-21h21V291z M91,290h19v-19H91V290z"/>
	<path id="XMLID_866_" class="st3" d="M131,291h-21v-21h21V291z M111,290h19v-19h-19V290z"/>
	<path id="XMLID_867_" class="st3" d="M151,291h-21v-21h21V291z M131,290h19v-19h-19V290z"/>
	<path id="XMLID_868_" class="st3" d="M171,291h-21v-21h21V291z M151,290h19v-19h-19V290z"/>
	<path id="XMLID_761_" class="st3" d="M191,291h-21v-21h21V291z M171,290h19v-19h-19V290z"/>
	<path id="XMLID_740_" class="st3" d="M211,291h-21v-21h21V291z M191,290h19v-19h-19V290z"/>
	<path id="XMLID_721_" class="st3" d="M231,291h-21v-21h21V291z M211,290h19v-19h-19V290z"/>
	<path id="XMLID_704_" class="st3" d="M251,291h-21v-21h21V291z M231,290h19v-19h-19V290z"/>
	<path id="XMLID_701_" class="st3" d="M271,291h-21v-21h21V291z M251,290h19v-19h-19V290z"/>
	<path id="XMLID_698_" class="st3" d="M291,291h-21v-21h21V291z M271,290h19v-19h-19V290z"/>
	<path id="XMLID_683_" class="st3" d="M311,291h-21v-21h21V291z M291,290h19v-19h-19V290z"/>
	<path id="XMLID_680_" class="st3" d="M331,291h-21v-21h21V291z M311,290h19v-19h-19V290z"/>
	<path id="XMLID_677_" class="st3" d="M351,291h-21v-21h21V291z M331,290h19v-19h-19V290z"/>
	<path id="XMLID_664_" class="st3" d="M371,291h-21v-21h21V291z M351,290h19v-19h-19V290z"/>
	<path id="XMLID_661_" class="st3" d="M391,291h-21v-21h21V291z M371,290h19v-19h-19V290z"/>
	<path id="XMLID_658_" class="st3" d="M411,291h-21v-21h21V291z M391,290h19v-19h-19V290z"/>
	<path id="XMLID_647_" class="st3" d="M431,291h-21v-21h21V291z M411,290h19v-19h-19V290z"/>
	<path id="XMLID_644_" class="st3" d="M451,291h-21v-21h21V291z M431,290h19v-19h-19V290z"/>
	<path id="XMLID_641_" class="st3" d="M71,311H50v-21h21V311z M51,310h19v-19H51V310z"/>
	<path id="XMLID_638_" class="st3" d="M91,311H70v-21h21V311z M71,310h19v-19H71V310z"/>
	<path id="XMLID_635_" class="st3" d="M111,311H90v-21h21V311z M91,310h19v-19H91V310z"/>
	<path id="XMLID_632_" class="st3" d="M131,311h-21v-21h21V311z M111,310h19v-19h-19V310z"/>
	<path id="XMLID_629_" class="st3" d="M151,311h-21v-21h21V311z M131,310h19v-19h-19V310z"/>
	<path id="XMLID_626_" class="st3" d="M171,311h-21v-21h21V311z M151,310h19v-19h-19V310z"/>
	<path id="XMLID_623_" class="st3" d="M191,311h-21v-21h21V311z M171,310h19v-19h-19V310z"/>
	<path id="XMLID_620_" class="st3" d="M211,311h-21v-21h21V311z M191,310h19v-19h-19V310z"/>
	<path id="XMLID_617_" class="st3" d="M231,311h-21v-21h21V311z M211,310h19v-19h-19V310z"/>
	<path id="XMLID_614_" class="st3" d="M251,311h-21v-21h21V311z M231,310h19v-19h-19V310z"/>
	<path id="XMLID_611_" class="st3" d="M271,311h-21v-21h21V311z M251,310h19v-19h-19V310z"/>
	<path id="XMLID_608_" class="st3" d="M291,311h-21v-21h21V311z M271,310h19v-19h-19V310z"/>
	<path id="XMLID_605_" class="st3" d="M311,311h-21v-21h21V311z M291,310h19v-19h-19V310z"/>
	<path id="XMLID_602_" class="st3" d="M331,311h-21v-21h21V311z M311,310h19v-19h-19V310z"/>
	<path id="XMLID_599_" class="st3" d="M351,311h-21v-21h21V311z M331,310h19v-19h-19V310z"/>
	<path id="XMLID_596_" class="st3" d="M371,311h-21v-21h21V311z M351,310h19v-19h-19V310z"/>
	<path id="XMLID_593_" class="st3" d="M391,311h-21v-21h21V311z M371,310h19v-19h-19V310z"/>
	<path id="XMLID_590_" class="st3" d="M411,311h-21v-21h21V311z M391,310h19v-19h-19V310z"/>
	<path id="XMLID_587_" class="st3" d="M431,311h-21v-21h21V311z M411,310h19v-19h-19V310z"/>
	<path id="XMLID_584_" class="st3" d="M451,311h-21v-21h21V311z M431,310h19v-19h-19V310z"/>
	<path id="XMLID_581_" class="st3" d="M71,331H50v-21h21V331z M51,330h19v-19H51V330z"/>
	<path id="XMLID_578_" class="st3" d="M91,331H70v-21h21V331z M71,330h19v-19H71V330z"/>
	<path id="XMLID_575_" class="st3" d="M111,331H90v-21h21V331z M91,330h19v-19H91V330z"/>
	<path id="XMLID_572_" class="st3" d="M131,331h-21v-21h21V331z M111,330h19v-19h-19V330z"/>
	<path id="XMLID_569_" class="st3" d="M151,331h-21v-21h21V331z M131,330h19v-19h-19V330z"/>
	<path id="XMLID_566_" class="st3" d="M171,331h-21v-21h21V331z M151,330h19v-19h-19V330z"/>
	<path id="XMLID_563_" class="st3" d="M191,331h-21v-21h21V331z M171,330h19v-19h-19V330z"/>
	<path id="XMLID_560_" class="st3" d="M211,331h-21v-21h21V331z M191,330h19v-19h-19V330z"/>
	<path id="XMLID_557_" class="st3" d="M231,331h-21v-21h21V331z M211,330h19v-19h-19V330z"/>
	<path id="XMLID_554_" class="st3" d="M251,331h-21v-21h21V331z M231,330h19v-19h-19V330z"/>
	<path id="XMLID_551_" class="st3" d="M271,331h-21v-21h21V331z M251,330h19v-19h-19V330z"/>
	<path id="XMLID_548_" class="st3" d="M291,331h-21v-21h21V331z M271,330h19v-19h-19V330z"/>
	<path id="XMLID_545_" class="st3" d="M311,331h-21v-21h21V331z M291,330h19v-19h-19V330z"/>
	<path id="XMLID_542_" class="st3" d="M331,331h-21v-21h21V331z M311,330h19v-19h-19V330z"/>
	<path id="XMLID_539_" class="st3" d="M351,331h-21v-21h21V331z M331,330h19v-19h-19V330z"/>
	<path id="XMLID_536_" class="st3" d="M371,331h-21v-21h21V331z M351,330h19v-19h-19V330z"/>
	<path id="XMLID_533_" class="st3" d="M391,331h-21v-21h21V331z M371,330h19v-19h-19V330z"/>
	<path id="XMLID_530_" class="st3" d="M411,331h-21v-21h21V331z M391,330h19v-19h-19V330z"/>
	<path id="XMLID_527_" class="st3" d="M431,331h-21v-21h21V331z M411,330h19v-19h-19V330z"/>
	<path id="XMLID_248_" class="st3" d="M451,331h-21v-21h21V331z M431,330h19v-19h-19V330z"/>
	<polygon id="XMLID_524_" class="st3" points="71,350.5 70,350.5 70,331 50.5,331 50.5,330 71,330 	"/>
	<path id="XMLID_521_" class="st3" d="M91,351H70v-21h21V351z M71,350h19v-19H71V350z"/>
	<path id="XMLID_518_" class="st3" d="M111,351H90v-21h21V351z M91,350h19v-19H91V350z"/>
	<path id="XMLID_515_" class="st3" d="M131,351h-21v-21h21V351z M111,350h19v-19h-19V350z"/>
	<path id="XMLID_512_" class="st3" d="M151,351h-21v-21h21V351z M131,350h19v-19h-19V350z"/>
	<path id="XMLID_509_" class="st3" d="M171,351h-21v-21h21V351z M151,350h19v-19h-19V350z"/>
	<path id="XMLID_506_" class="st3" d="M191,351h-21v-21h21V351z M171,350h19v-19h-19V350z"/>
	<path id="XMLID_503_" class="st3" d="M211,351h-21v-21h21V351z M191,350h19v-19h-19V350z"/>
	<path id="XMLID_500_" class="st3" d="M231,351h-21v-21h21V351z M211,350h19v-19h-19V350z"/>
	<path id="XMLID_497_" class="st3" d="M251,351h-21v-21h21V351z M231,350h19v-19h-19V350z"/>
	<path id="XMLID_494_" class="st3" d="M271,351h-21v-21h21V351z M251,350h19v-19h-19V350z"/>
	<path id="XMLID_491_" class="st3" d="M291,351h-21v-21h21V351z M271,350h19v-19h-19V350z"/>
	<path id="XMLID_488_" class="st3" d="M311,351h-21v-21h21V351z M291,350h19v-19h-19V350z"/>
	<path id="XMLID_485_" class="st3" d="M331,351h-21v-21h21V351z M311,350h19v-19h-19V350z"/>
	<path id="XMLID_482_" class="st3" d="M351,351h-21v-21h21V351z M331,350h19v-19h-19V350z"/>
	<path id="XMLID_479_" class="st3" d="M371,351h-21v-21h21V351z M351,350h19v-19h-19V350z"/>
	<path id="XMLID_476_" class="st3" d="M391,351h-21v-21h21V351z M371,350h19v-19h-19V350z"/>
	<path id="XMLID_473_" class="st3" d="M411,351h-21v-21h21V351z M391,350h19v-19h-19V350z"/>
	<path id="XMLID_281_" class="st3" d="M431,351h-21v-21h21V351z M411,350h19v-19h-19V350z"/>
	<polygon id="XMLID_252_" class="st3" points="431,350.5 430,350.5 430,330 450.5,330 450.5,331 431,331 	"/>
	<path id="XMLID_247_" class="st2" d="M70.5,350.5"/>
	<polygon id="XMLID_470_" class="st3" points="91,370.5 90,370.5 90,351 70.5,351 70.5,350 91,350 	"/>
	<path id="XMLID_467_" class="st3" d="M111,371H90v-21h21V371z M91,370h19v-19H91V370z"/>
	<path id="XMLID_464_" class="st3" d="M131,371h-21v-21h21V371z M111,370h19v-19h-19V370z"/>
	<path id="XMLID_461_" class="st3" d="M151,371h-21v-21h21V371z M131,370h19v-19h-19V370z"/>
	<path id="XMLID_458_" class="st3" d="M171,371h-21v-21h21V371z M151,370h19v-19h-19V370z"/>
	<path id="XMLID_455_" class="st3" d="M191,371h-21v-21h21V371z M171,370h19v-19h-19V370z"/>
	<path id="XMLID_452_" class="st3" d="M211,371h-21v-21h21V371z M191,370h19v-19h-19V370z"/>
	<path id="XMLID_449_" class="st3" d="M231,371h-21v-21h21V371z M211,370h19v-19h-19V370z"/>
	<path id="XMLID_446_" class="st3" d="M251,371h-21v-21h21V371z M231,370h19v-19h-19V370z"/>
	<path id="XMLID_443_" class="st3" d="M271,371h-21v-21h21V371z M251,370h19v-19h-19V370z"/>
	<path id="XMLID_440_" class="st3" d="M291,371h-21v-21h21V371z M271,370h19v-19h-19V370z"/>
	<path id="XMLID_437_" class="st3" d="M311,371h-21v-21h21V371z M291,370h19v-19h-19V370z"/>
	<path id="XMLID_434_" class="st3" d="M331,371h-21v-21h21V371z M311,370h19v-19h-19V370z"/>
	<path id="XMLID_431_" class="st3" d="M351,371h-21v-21h21V371z M331,370h19v-19h-19V370z"/>
	<path id="XMLID_428_" class="st3" d="M371,371h-21v-21h21V371z M351,370h19v-19h-19V370z"/>
	<path id="XMLID_425_" class="st3" d="M391,371h-21v-21h21V371z M371,370h19v-19h-19V370z"/>
	<path id="XMLID_287_" class="st3" d="M411,371h-21v-21h21V371z M391,370h19v-19h-19V370z"/>
	<polygon id="XMLID_255_" class="st3" points="411,370.5 410,370.5 410,350 430.5,350 430.5,351 411,351 	"/>
	<path id="XMLID_286_" class="st2" d="M430.5,350.5"/>
	<path id="XMLID_256_" class="st2" d="M90.5,370.5"/>
	<polygon id="XMLID_422_" class="st3" points="111,390.5 110,390.5 110,371 90.5,371 90.5,370 111,370 	"/>
	<path id="XMLID_419_" class="st3" d="M131,391h-21v-21h21V391z M111,390h19v-19h-19V390z"/>
	<path id="XMLID_416_" class="st3" d="M151,391h-21v-21h21V391z M131,390h19v-19h-19V390z"/>
	<path id="XMLID_413_" class="st3" d="M171,391h-21v-21h21V391z M151,390h19v-19h-19V390z"/>
	<path id="XMLID_410_" class="st3" d="M191,391h-21v-21h21V391z M171,390h19v-19h-19V390z"/>
	<path id="XMLID_407_" class="st3" d="M211,391h-21v-21h21V391z M191,390h19v-19h-19V390z"/>
	<path id="XMLID_404_" class="st3" d="M231,391h-21v-21h21V391z M211,390h19v-19h-19V390z"/>
	<path id="XMLID_401_" class="st3" d="M251,391h-21v-21h21V391z M231,390h19v-19h-19V390z"/>
	<path id="XMLID_398_" class="st3" d="M271,391h-21v-21h21V391z M251,390h19v-19h-19V390z"/>
	<path id="XMLID_395_" class="st3" d="M291,391h-21v-21h21V391z M271,390h19v-19h-19V390z"/>
	<path id="XMLID_392_" class="st3" d="M311,391h-21v-21h21V391z M291,390h19v-19h-19V390z"/>
	<path id="XMLID_389_" class="st3" d="M331,391h-21v-21h21V391z M311,390h19v-19h-19V390z"/>
	<path id="XMLID_386_" class="st3" d="M351,391h-21v-21h21V391z M331,390h19v-19h-19V390z"/>
	<path id="XMLID_383_" class="st3" d="M371,391h-21v-21h21V391z M351,390h19v-19h-19V390z"/>
	<path id="XMLID_280_" class="st3" d="M391,391h-21v-21h21V391z M371,390h19v-19h-19V390z"/>
	<polygon id="XMLID_249_" class="st3" points="391,390.5 390,390.5 390,370 410.5,370 410.5,371 391,371 	"/>
	<path id="XMLID_279_" class="st2" d="M410.5,370.5"/>
	<path id="XMLID_250_" class="st2" d="M110.5,390.5"/>
	<polygon id="XMLID_380_" class="st3" points="131,410.5 130,410.5 130,391 110.5,391 110.5,390 131,390 	"/>
	<path id="XMLID_377_" class="st3" d="M151,411h-21v-21h21V411z M131,410h19v-19h-19V410z"/>
	<path id="XMLID_374_" class="st3" d="M171,411h-21v-21h21V411z M151,410h19v-19h-19V410z"/>
	<path id="XMLID_371_" class="st3" d="M191,411h-21v-21h21V411z M171,410h19v-19h-19V410z"/>
	<path id="XMLID_368_" class="st3" d="M211,411h-21v-21h21V411z M191,410h19v-19h-19V410z"/>
	<path id="XMLID_365_" class="st3" d="M231,411h-21v-21h21V411z M211,410h19v-19h-19V410z"/>
	<path id="XMLID_362_" class="st3" d="M251,411h-21v-21h21V411z M231,410h19v-19h-19V410z"/>
	<path id="XMLID_359_" class="st3" d="M271,411h-21v-21h21V411z M251,410h19v-19h-19V410z"/>
	<path id="XMLID_356_" class="st3" d="M291,411h-21v-21h21V411z M271,410h19v-19h-19V410z"/>
	<path id="XMLID_353_" class="st3" d="M311,411h-21v-21h21V411z M291,410h19v-19h-19V410z"/>
	<path id="XMLID_350_" class="st3" d="M331,411h-21v-21h21V411z M311,410h19v-19h-19V410z"/>
	<path id="XMLID_347_" class="st3" d="M351,411h-21v-21h21V411z M331,410h19v-19h-19V410z"/>
	<path id="XMLID_285_" class="st3" d="M371,411h-21v-21h21V411z M351,410h19v-19h-19V410z"/>
	<polygon id="XMLID_251_" class="st3" points="371,410.5 370,410.5 370,390 390.5,390 390.5,391 371,391 	"/>
	<path id="XMLID_284_" class="st2" d="M390.5,390.5"/>
	<path id="XMLID_253_" class="st2" d="M130.5,410.5"/>
	<polygon id="XMLID_344_" class="st3" points="151,430.5 150,430.5 150,411 130.5,411 130.5,410 151,410 	"/>
	<path id="XMLID_341_" class="st3" d="M171,431h-21v-21h21V431z M151,430h19v-19h-19V430z"/>
	<path id="XMLID_338_" class="st3" d="M191,431h-21v-21h21V431z M171,430h19v-19h-19V430z"/>
	<path id="XMLID_335_" class="st3" d="M211,431h-21v-21h21V431z M191,430h19v-19h-19V430z"/>
	<path id="XMLID_332_" class="st3" d="M231,431h-21v-21h21V431z M211,430h19v-19h-19V430z"/>
	<path id="XMLID_329_" class="st3" d="M251,431h-21v-21h21V431z M231,430h19v-19h-19V430z"/>
	<path id="XMLID_326_" class="st3" d="M271,431h-21v-21h21V431z M251,430h19v-19h-19V430z"/>
	<path id="XMLID_323_" class="st3" d="M291,431h-21v-21h21V431z M271,430h19v-19h-19V430z"/>
	<path id="XMLID_320_" class="st3" d="M311,431h-21v-21h21V431z M291,430h19v-19h-19V430z"/>
	<path id="XMLID_317_" class="st3" d="M331,431h-21v-21h21V431z M311,430h19v-19h-19V430z"/>
	<path id="XMLID_278_" class="st3" d="M351,431h-21v-21h21V431z M331,430h19v-19h-19V430z"/>
	<polygon id="XMLID_244_" class="st3" points="351,430.5 350,430.5 350,410 370.5,410 370.5,411 351,411 	"/>
	<path id="XMLID_277_" class="st2" d="M370.5,410.5"/>
	<path id="XMLID_246_" class="st2" d="M150.5,430.5"/>
	<polygon id="XMLID_314_" class="st3" points="171,450.5 170,450.5 170,431 150.5,431 150.5,430 171,430 	"/>
	<path id="XMLID_311_" class="st3" d="M191,451h-21v-21h21V451z M171,450h19v-19h-19V450z"/>
	<path id="XMLID_308_" class="st3" d="M211,451h-21v-21h21V451z M191,450h19v-19h-19V450z"/>
	<path id="XMLID_305_" class="st3" d="M231,451h-21v-21h21V451z M211,450h19v-19h-19V450z"/>
	<path id="XMLID_302_" class="st3" d="M251,451h-21v-21h21V451z M231,450h19v-19h-19V450z"/>
	<path id="XMLID_299_" class="st3" d="M271,451h-21v-21h21V451z M251,450h19v-19h-19V450z"/>
	<path id="XMLID_296_" class="st3" d="M291,451h-21v-21h21V451z M271,450h19v-19h-19V450z"/>
	<path id="XMLID_293_" class="st3" d="M311,451h-21v-21h21V451z M291,450h19v-19h-19V450z"/>
	<path id="XMLID_283_" class="st3" d="M331,451h-21v-21h21V451z M311,450h19v-19h-19V450z"/>
	<polygon id="XMLID_264_" class="st3" points="331,450.5 330,450.5 330,430 350.5,430 350.5,431 331,431 	"/>
	<path id="XMLID_282_" class="st2" d="M350.5,430.5"/>
	<path id="XMLID_288_" class="st3" d="M333.5,451H167.5L50,333.5V167.5L167.5,50h166.1L451,167.5v166.1L333.5,451z M167.9,450h165.3
		L450,333.1V167.9L333.1,51H167.9L51,167.9v165.3L167.9,450z"/>
</g>
<g id="lines2" class="st0">
	<g id="XMLID_240_" class="st4">
		<polygon id="XMLID_218_" class="st5" points="167.7,450.5 109.1,391.9 50.5,333.3 50.5,250.5 50.5,167.7 109.1,109.1 167.7,50.5 
			250.5,50.5 333.3,50.5 391.9,109.1 450.5,167.7 450.5,250.5 450.5,333.3 391.9,391.9 333.3,450.5 250.5,450.5 		"/>
		<line id="XMLID_232_" class="st5" x1="167.7" y1="50.5" x2="167.7" y2="450.5"/>
		<line id="XMLID_233_" class="st5" x1="333.3" y1="450.5" x2="333.3" y2="50.5"/>
		<line id="XMLID_234_" class="st5" x1="250.5" y1="50.5" x2="250.5" y2="450.5"/>
		<line id="XMLID_235_" class="st5" x1="50.5" y1="250.5" x2="450.5" y2="250.5"/>
		<line id="XMLID_236_" class="st5" x1="50.5" y1="167.7" x2="450.5" y2="167.7"/>
		<line id="XMLID_237_" class="st5" x1="50.5" y1="333.3" x2="450.5" y2="333.3"/>
		<polyline id="XMLID_242_" class="st5" points="391.9,391.9 391.9,109.1 109.1,109.1 109.1,391.9 391.9,391.9 		"/>
		<path id="XMLID_231_" class="st5" d="M109.1,391.9"/>
		<path id="XMLID_239_" class="st5" d="M391.9,391.9"/>
	</g>
</g>
<g id="lines1" class="st0">
	<polygon id="XMLID_217_" class="st6" points="167.7,450.5 109.1,391.9 50.5,333.3 50.5,250.5 50.5,167.7 109.1,109.1 167.7,50.5 
		250.5,50.5 333.3,50.5 391.9,109.1 450.5,167.7 450.5,250.5 450.5,333.3 391.9,391.9 333.3,450.5 250.5,450.5 	"/>
	<line id="XMLID_220_" class="st6" x1="167.7" y1="50.5" x2="333.3" y2="450.5"/>
	<line id="XMLID_221_" class="st6" x1="333.3" y1="50.5" x2="167.7" y2="450.5"/>
	<line id="XMLID_222_" class="st6" x1="50.5" y1="333.3" x2="450.5" y2="167.7"/>
	<line id="XMLID_223_" class="st6" x1="450.5" y1="333.3" x2="50.5" y2="167.7"/>
	<line id="XMLID_224_" class="st6" x1="109.1" y1="109.1" x2="391.9" y2="391.9"/>
	<line id="XMLID_225_" class="st6" x1="391.9" y1="109.1" x2="109.1" y2="391.9"/>
	<line id="XMLID_226_" class="st6" x1="50.5" y1="250.5" x2="450.5" y2="250.5"/>
	<line id="XMLID_227_" class="st6" x1="250.5" y1="450.5" x2="250.5" y2="50.5"/>
	<path id="XMLID_219_" class="st6" d="M215.7,238.5"/>
	<path id="XMLID_228_" class="st6" d="M196.7,400.5c-5.3,0-10.4-2.1-14.1-5.9l-38.1-38.1l-38.1-38.1c-3.8-3.8-5.9-8.8-5.9-14.1
		v-53.8v-53.8c0-5.3,2.1-10.4,5.9-14.1l38.1-38.1l38.1-38.1c3.8-3.8,8.8-5.9,14.1-5.9h53.8h53.8c5.3,0,10.4,2.1,14.1,5.9l38.1,38.1
		l38.1,38.1c3.8,3.8,5.9,8.8,5.9,14.1v53.8v53.8c0,5.3-2.1,10.4-5.9,14.1l-38.1,38.1l-38.1,38.1c-3.8,3.8-8.8,5.9-14.1,5.9h-53.8
		H196.7z"/>
	<path id="XMLID_229_" class="st6" d="M217.4,350.5c-5.3,0-10.4-2.1-14.1-5.9l-23.4-23.4l-23.4-23.4c-3.8-3.8-5.9-8.8-5.9-14.1
		v-33.1v-33.1c0-5.3,2.1-10.4,5.9-14.1l23.4-23.4l23.4-23.4c3.8-3.8,8.8-5.9,14.1-5.9h33.1h33.1c5.3,0,10.4,2.1,14.1,5.9l23.4,23.4
		l23.4,23.4c3.8,3.8,5.9,8.8,5.9,14.1v33.1v33.1c0,5.3-2.1,10.4-5.9,14.1l-23.4,23.4l-23.4,23.4c-3.8,3.8-8.8,5.9-14.1,5.9h-33.1
		H217.4z"/>
	<path id="XMLID_230_" class="st6" d="M238.1,300.5c-5.3,0-10.4-2.1-14.1-5.9l-8.8-8.8l-8.8-8.8c-3.8-3.8-5.9-8.8-5.9-14.1v-12.4
		v-12.4c0-5.3,2.1-10.4,5.9-14.1l8.8-8.8l8.8-8.8c3.8-3.8,8.8-5.9,14.1-5.9h12.4h12.4c5.3,0,10.4,2.1,14.1,5.9l8.8,8.8l8.8,8.8
		c3.8,3.8,5.9,8.8,5.9,14.1v12.4v12.4c0,5.3-2.1,10.4-5.9,14.1l-8.8,8.8l-8.8,8.8c-3.8,3.8-8.8,5.9-14.1,5.9h-12.4H238.1z"/>
</g>
<g id="lines4" class="st0">
	<path id="XMLID_1249_" class="st6" d="M175.9,450.5c-5.3,0-10.4-2.1-14.1-5.9l-52.7-52.7l-52.7-52.7c-3.8-3.8-5.9-8.8-5.9-14.1
		v-74.6v-74.6c0-5.3,2.1-10.4,5.9-14.1l52.7-52.7l52.7-52.7c3.8-3.8,8.8-5.9,14.1-5.9h74.6h74.6c5.3,0,10.4,2.1,14.1,5.9l52.7,52.7
		l52.7,52.7c3.8,3.8,5.9,8.8,5.9,14.1v74.6v74.6c0,5.3-2.1,10.4-5.9,14.1l-52.7,52.7l-52.7,52.7c-3.8,3.8-8.8,5.9-14.1,5.9h-74.6
		H175.9z"/>
	<path id="XMLID_1240_" class="st6" d="M215.7,238.5"/>
	<path id="XMLID_1239_" class="st6" d="M196.7,400.5c-5.3,0-10.4-2.1-14.1-5.9l-38.1-38.1l-38.1-38.1c-3.8-3.8-5.9-8.8-5.9-14.1
		v-53.8v-53.8c0-5.3,2.1-10.4,5.9-14.1l38.1-38.1l38.1-38.1c3.8-3.8,8.8-5.9,14.1-5.9h53.8h53.8c5.3,0,10.4,2.1,14.1,5.9l38.1,38.1
		l38.1,38.1c3.8,3.8,5.9,8.8,5.9,14.1v53.8v53.8c0,5.3-2.1,10.4-5.9,14.1l-38.1,38.1l-38.1,38.1c-3.8,3.8-8.8,5.9-14.1,5.9h-53.8
		H196.7z"/>
	<path id="XMLID_261_" class="st6" d="M217.4,350.5c-5.3,0-10.4-2.1-14.1-5.9l-23.4-23.4l-23.4-23.4c-3.8-3.8-5.9-8.8-5.9-14.1
		v-33.1v-33.1c0-5.3,2.1-10.4,5.9-14.1l23.4-23.4l23.4-23.4c3.8-3.8,8.8-5.9,14.1-5.9h33.1h33.1c5.3,0,10.4,2.1,14.1,5.9l23.4,23.4
		l23.4,23.4c3.8,3.8,5.9,8.8,5.9,14.1v33.1v33.1c0,5.3-2.1,10.4-5.9,14.1l-23.4,23.4l-23.4,23.4c-3.8,3.8-8.8,5.9-14.1,5.9h-33.1
		H217.4z"/>
	<path id="XMLID_238_" class="st6" d="M238.1,300.5c-5.3,0-10.4-2.1-14.1-5.9l-8.8-8.8l-8.8-8.8c-3.8-3.8-5.9-8.8-5.9-14.1v-12.4
		v-12.4c0-5.3,2.1-10.4,5.9-14.1l8.8-8.8l8.8-8.8c3.8-3.8,8.8-5.9,14.1-5.9h12.4h12.4c5.3,0,10.4,2.1,14.1,5.9l8.8,8.8l8.8,8.8
		c3.8,3.8,5.9,8.8,5.9,14.1v12.4v12.4c0,5.3-2.1,10.4-5.9,14.1l-8.8,8.8l-8.8,8.8c-3.8,3.8-8.8,5.9-14.1,5.9h-12.4H238.1z"/>
</g>
<g id="cha5" class="st0">
	<polygon id="XMLID_108_" class="st7" points="167.7,450.5 50.5,333.3 50.5,167.7 167.7,50.5 333.3,50.5 450.5,167.7 450.5,333.3 
		333.3,450.5 	"/>
</g>
<g id="cha3">
	<polygon id="XMLID_41_" class="st8" points="391.9,391.9 333.3,450.5 167.7,450.5 109.1,391.9 250.5,250.5 	"/>
	<polygon id="XMLID_40_" class="st9" points="450.5,167.7 450.5,333.3 391.9,391.9 250.5,250.5 391.9,109.1 	"/>
	<polygon id="XMLID_29_" class="st10" points="250.5,250.5 109.1,391.9 50.5,333.3 50.5,167.7 109.1,109.1 	"/>
	<polygon id="XMLID_42_" class="st11" points="391.9,109.1 250.5,250.5 109.1,109.1 167.7,50.5 333.3,50.5 	"/>
</g>
<g id="cha4" class="st0">
	<polygon id="XMLID_51_" class="st12" points="391.9,391.9 362.6,421.2 333.3,450.5 250.5,450.5 250.5,250.5 321.2,321.2 	"/>
	<polygon id="XMLID_45_" class="st13" points="250.5,250.5 250.5,450.5 167.7,450.5 138.4,421.2 109.1,391.9 179.8,321.2 	"/>
	<polygon id="XMLID_44_" class="st14" points="450.5,250.5 450.5,333.3 421.2,362.6 391.9,391.9 321.2,321.2 250.5,250.5 	"/>
	<polygon id="XMLID_47_" class="st15" points="450.5,167.7 450.5,250.5 250.5,250.5 321.2,179.8 391.9,109.1 	"/>
	<polygon id="XMLID_52_" class="st16" points="250.5,250.5 50.5,250.5 50.5,167.7 109.1,109.1 179.8,179.8 	"/>
	<polygon id="XMLID_48_" class="st17" points="250.5,250.5 179.8,321.2 109.1,391.9 79.8,362.6 50.5,333.3 50.5,250.5 	"/>
	<polygon id="XMLID_50_" class="st18" points="391.9,109.1 321.2,179.8 250.5,250.5 250.5,50.5 333.3,50.5 	"/>
	<polygon id="XMLID_46_" class="st19" points="250.5,50.5 250.5,250.5 179.8,179.8 109.1,109.1 167.7,50.5 	"/>
</g>
<g id="cha2" class="st0">
	<polygon id="XMLID_25_" class="st20" points="250.5,50.5 250.5,250.5 50.5,250.5 50.5,167.7 167.7,50.5 	"/>
	<polygon id="XMLID_34_" class="st21" points="450.5,167.7 450.5,250.5 250.5,250.5 250.5,50.5 333.3,50.5 	"/>
	<polygon id="XMLID_32_" class="st17" points="250.5,250.5 250.5,450.5 167.7,450.5 109.1,391.9 50.5,333.3 50.5,250.5 	"/>
	<polygon id="XMLID_39_" class="st12" points="450.5,250.5 450.5,333.3 391.9,391.9 333.3,450.5 250.5,450.5 250.5,250.5 	"/>
</g>
<g id="cha1" class="st0">
	<polygon id="XMLID_1242_" class="st14" points="450.5,333.3 333.3,450.5 250.5,250.5 	"/>
	<polygon id="XMLID_1241_" class="st18" points="450.5,167.7 250.5,250.5 333.3,50.5 	"/>
	<polygon id="XMLID_1250_" class="st19" points="333.3,50.5 250.5,250.5 167.7,50.5 	"/>
	<polygon id="XMLID_1245_" class="st22" points="250.5,250.5 50.5,167.7 167.7,50.5 	"/>
	<polygon id="XMLID_1248_" class="st23" points="250.5,250.5 50.5,333.3 50.5,167.7 	"/>
	<polygon id="XMLID_33_" class="st24" points="250.5,250.5 167.7,450.5 50.5,333.3 	"/>
	<polygon id="XMLID_1243_" class="st21" points="450.5,167.7 450.5,333.3 250.5,250.5 	"/>
	<polygon id="XMLID_1246_" class="st12" points="333.3,450.5 167.7,450.5 250.5,250.5 	"/>
</g>
<g id="background" class="st0">
	<g id="XMLID_11_" class="st25">
		<radialGradient id="XMLID_23_" cx="250.5" cy="250" r="200" gradientUnits="userSpaceOnUse">
			<stop  offset="0" style="stop-color:#FFFFFF;stop-opacity:0.3"/>
			<stop  offset="1" style="stop-color:#000000;stop-opacity:0.44"/>
		</radialGradient>
		<path id="XMLID_5_" class="st26" d="M162.1,444.4l-106-106c-3.6-3.6-5.6-8.4-5.6-13.4V175c0-5,2-9.9,5.6-13.4l106-106
			c3.6-3.6,8.4-5.6,13.4-5.6h149.9c5,0,9.9,2,13.4,5.6l106,106c3.6,3.6,5.6,8.4,5.6,13.4V325c0,5-2,9.9-5.6,13.4l-106,106
			c-3.6,3.6-8.4,5.6-13.4,5.6H175.5C170.5,450,165.7,448,162.1,444.4z"/>
		<linearGradient id="XMLID_26_" gradientUnits="userSpaceOnUse" x1="250.5" y1="454.5" x2="250.5" y2="45.5">
			<stop  offset="0" style="stop-color:#898584"/>
			<stop  offset="1" style="stop-color:#BABCBE"/>
		</linearGradient>
		<path id="XMLID_6_" class="st27" d="M448.1,158.4l-106-106c-4.4-4.4-10.3-6.9-16.6-6.9H175.5c-6.3,0-12.2,2.4-16.6,6.9l-106,106
			c-4.4,4.4-6.9,10.3-6.9,16.6V325c0,6.3,2.4,12.2,6.9,16.6l106,106c4.4,4.4,10.3,6.9,16.6,6.9h149.9c6.3,0,12.2-2.4,16.6-6.9
			l106-106c4.4-4.4,6.9-10.3,6.9-16.6V175C455,168.8,452.6,162.8,448.1,158.4z M446,325c0,3.9-1.5,7.5-4.3,10.3l-106,106
			c-2.7,2.7-6.4,4.3-10.3,4.3H175.5c-3.9,0-7.5-1.5-10.3-4.3l-106-106c-2.7-2.7-4.3-6.4-4.3-10.3V175c0-3.9,1.5-7.5,4.3-10.3
			l106-106c2.7-2.7,6.4-4.3,10.3-4.3h149.9c3.9,0,7.5,1.5,10.3,4.3l106,106c2.7,2.7,4.3,6.4,4.3,10.3V325z"/>
	</g>
	<path id="XMLID_24_" class="st28" d="M299.4,453.1l-19.5,14.3c-12.1,8.9-46.8,8.9-58.9,0l-19.5-14.3H299.4z"/>
</g>
<g id="CHART1" class="st0">
	<rect id="XMLID_18_" x="332.8" y="167.2" class="st29" width="117.2" height="165.7"/>
	<polygon id="XMLID_19_" class="st30" points="167.2,50 167.2,167.2 50,167.2 	"/>
	<rect id="XMLID_17_" x="50" y="167.2" class="st31" width="117.2" height="165.7"/>
	<polygon id="XMLID_10_" class="st32" points="167.2,332.8 167.2,450 50,332.8 	"/>
	<rect id="XMLID_14_" x="167.2" y="332.8" class="st33" width="165.7" height="117.2"/>
	<polygon id="XMLID_16_" class="st34" points="450,167.2 332.8,167.2 332.8,50 	"/>
	<rect id="XMLID_8_" x="167.2" y="50" class="st35" width="165.7" height="117.2"/>
	<rect id="XMLID_21_" x="167.2" y="167.2" class="st36" width="165.7" height="165.7"/>
	<polygon id="XMLID_15_" class="st37" points="450,332.8 332.8,450 332.8,332.8 	"/>
</g>
<g id="Layer_3" class="st0">
	<rect id="XMLID_3_" x="167" y="47" class="st38" width="165.3" height="260"/>
	<text id="XMLID_2_" transform="matrix(1 0 0 1 167 61.7437)" class="st25"><tspan x="0" y="0" class="st39 st40">STATISM</tspan><tspan x="0" y="22.8" class="st39 st40">TRADITIONALISM</tspan><tspan x="0" y="45.6" class="st39 st40">RIGHT</tspan><tspan x="0" y="68.4" class="st39 st40">INDIVIDUALISM</tspan><tspan x="0" y="91.2" class="st39 st40">MINARCHISM</tspan><tspan x="0" y="114" class="st39 st40">MODERNISM</tspan><tspan x="0" y="136.8" class="st39 st40">LEFT</tspan><tspan x="0" y="159.6" class="st39 st40">COLLECTIVISM</tspan></text>
</g>
<g id="LABELZ" class="st0">
	<g id="XMLID_7_" class="st4">
		<path id="XMLID_91_" d="M212.4,94.8c0.5,0,0.8,0,1.1-0.1c0.3-0.1,0.5-0.2,0.7-0.3c0.2-0.1,0.3-0.3,0.4-0.5
			c0.1-0.2,0.1-0.4,0.1-0.6c0-0.5-0.2-0.9-0.7-1.2c-0.4-0.3-1.2-0.7-2.3-1c-0.5-0.2-1-0.4-1.4-0.6c-0.5-0.2-0.9-0.5-1.3-0.8
			s-0.7-0.7-0.9-1.2c-0.2-0.5-0.4-1-0.4-1.7s0.1-1.3,0.4-1.8c0.3-0.5,0.6-1,1.1-1.4s1-0.7,1.7-0.9c0.7-0.2,1.4-0.3,2.2-0.3
			c1,0,1.8,0.1,2.5,0.3c0.7,0.2,1.3,0.4,1.8,0.7l-0.9,2.6c-0.4-0.2-0.9-0.4-1.4-0.6c-0.5-0.2-1.1-0.2-1.8-0.2
			c-0.8,0-1.3,0.1-1.7,0.3c-0.3,0.2-0.5,0.5-0.5,1c0,0.3,0.1,0.5,0.2,0.7c0.1,0.2,0.3,0.3,0.5,0.5c0.2,0.1,0.5,0.3,0.8,0.4
			c0.3,0.1,0.6,0.2,1,0.4c0.8,0.3,1.4,0.6,2,0.8c0.6,0.3,1,0.6,1.4,1c0.4,0.4,0.6,0.8,0.8,1.3c0.2,0.5,0.3,1.1,0.3,1.8
			c0,1.4-0.5,2.4-1.4,3.2c-1,0.7-2.4,1.1-4.3,1.1c-0.6,0-1.2,0-1.7-0.1c-0.5-0.1-1-0.2-1.4-0.3c-0.4-0.1-0.7-0.2-1-0.4
			c-0.3-0.1-0.5-0.2-0.7-0.4l0.9-2.6c0.4,0.2,1,0.5,1.6,0.6C210.7,94.7,211.5,94.8,212.4,94.8z"/>
		<path id="XMLID_93_" d="M231,82.7v2.8h-4.4v11.8h-3.3V85.5H219v-2.8H231z"/>
		<path id="XMLID_95_" d="M241.2,97.3c-0.2-0.5-0.3-1-0.5-1.6c-0.2-0.5-0.4-1.1-0.6-1.6h-5.7c-0.2,0.5-0.4,1.1-0.6,1.6
			c-0.2,0.5-0.4,1.1-0.5,1.6h-3.4c0.5-1.6,1.1-3,1.6-4.3c0.5-1.3,1-2.6,1.4-3.8c0.5-1.2,0.9-2.3,1.4-3.3c0.5-1.1,0.9-2.1,1.4-3.1
			h3.1c0.5,1,0.9,2,1.4,3.1c0.5,1.1,0.9,2.2,1.4,3.3c0.5,1.2,1,2.4,1.4,3.8c0.5,1.3,1,2.8,1.6,4.3H241.2z M237.2,86
			c-0.1,0.2-0.2,0.5-0.3,0.9c-0.1,0.4-0.3,0.8-0.5,1.3c-0.2,0.5-0.4,1-0.6,1.6c-0.2,0.6-0.4,1.2-0.7,1.8h4.2
			c-0.2-0.6-0.4-1.2-0.6-1.8c-0.2-0.6-0.4-1.1-0.6-1.6c-0.2-0.5-0.4-0.9-0.5-1.3C237.4,86.5,237.3,86.2,237.2,86z"/>
		<path id="XMLID_98_" d="M255.6,82.7v2.8h-4.4v11.8h-3.3V85.5h-4.4v-2.8H255.6z"/>
		<path id="XMLID_100_" d="M257.7,82.7h3.3v14.6h-3.3V82.7z"/>
		<path id="XMLID_102_" d="M268.3,94.8c0.5,0,0.8,0,1.1-0.1c0.3-0.1,0.5-0.2,0.7-0.3c0.2-0.1,0.3-0.3,0.4-0.5
			c0.1-0.2,0.1-0.4,0.1-0.6c0-0.5-0.2-0.9-0.7-1.2c-0.4-0.3-1.2-0.7-2.3-1c-0.5-0.2-1-0.4-1.4-0.6c-0.5-0.2-0.9-0.5-1.3-0.8
			c-0.4-0.3-0.7-0.7-0.9-1.2c-0.2-0.5-0.4-1-0.4-1.7s0.1-1.3,0.4-1.8s0.6-1,1.1-1.4c0.5-0.4,1-0.7,1.7-0.9c0.7-0.2,1.4-0.3,2.2-0.3
			c1,0,1.8,0.1,2.5,0.3c0.7,0.2,1.3,0.4,1.8,0.7l-0.9,2.6c-0.4-0.2-0.9-0.4-1.4-0.6c-0.5-0.2-1.1-0.2-1.8-0.2
			c-0.8,0-1.3,0.1-1.7,0.3c-0.3,0.2-0.5,0.5-0.5,1c0,0.3,0.1,0.5,0.2,0.7c0.1,0.2,0.3,0.3,0.5,0.5c0.2,0.1,0.5,0.3,0.8,0.4
			c0.3,0.1,0.6,0.2,1,0.4c0.8,0.3,1.4,0.6,2,0.8c0.6,0.3,1,0.6,1.4,1c0.4,0.4,0.6,0.8,0.8,1.3c0.2,0.5,0.3,1.1,0.3,1.8
			c0,1.4-0.5,2.4-1.4,3.2c-1,0.7-2.4,1.1-4.3,1.1c-0.6,0-1.2,0-1.7-0.1c-0.5-0.1-1-0.2-1.4-0.3c-0.4-0.1-0.7-0.2-1-0.4
			c-0.3-0.1-0.5-0.2-0.7-0.4l0.9-2.6c0.4,0.2,1,0.5,1.6,0.6C266.6,94.7,267.4,94.8,268.3,94.8z"/>
		<path id="XMLID_104_" d="M280.4,82.7c0.3,0.5,0.5,1,0.9,1.7s0.7,1.4,1,2.2c0.4,0.8,0.7,1.6,1.1,2.4s0.7,1.6,1,2.3
			c0.3-0.7,0.6-1.5,1-2.3c0.4-0.8,0.7-1.6,1.1-2.4c0.4-0.8,0.7-1.5,1-2.2s0.6-1.2,0.9-1.7h3c0.1,1,0.3,2,0.4,3.2
			c0.1,1.2,0.2,2.4,0.3,3.7s0.2,2.6,0.3,3.9c0.1,1.3,0.1,2.5,0.2,3.7h-3.2c0-1.4-0.1-3-0.2-4.6c-0.1-1.7-0.2-3.3-0.3-5
			c-0.3,0.6-0.5,1.2-0.8,2s-0.6,1.4-0.9,2.1s-0.6,1.4-0.9,2c-0.3,0.7-0.5,1.2-0.7,1.7h-2.3c-0.2-0.5-0.4-1-0.7-1.7
			c-0.3-0.7-0.6-1.3-0.9-2c-0.3-0.7-0.6-1.4-0.9-2.1s-0.6-1.4-0.8-2c-0.1,1.7-0.2,3.4-0.3,5c-0.1,1.7-0.1,3.2-0.2,4.6h-3.2
			c0.1-1.1,0.1-2.4,0.2-3.7c0.1-1.3,0.2-2.6,0.3-3.9c0.1-1.3,0.2-2.5,0.3-3.7c0.1-1.2,0.2-2.3,0.4-3.2H280.4z"/>
	</g>
	<g id="XMLID_9_" class="st4">
		<path id="XMLID_69_" d="M187.1,402.7c0.3,0.5,0.5,1,0.9,1.7c0.3,0.7,0.7,1.4,1,2.2c0.4,0.8,0.7,1.6,1.1,2.4s0.7,1.6,1,2.3
			c0.3-0.7,0.6-1.5,1-2.3c0.4-0.8,0.7-1.6,1.1-2.4s0.7-1.5,1-2.2c0.3-0.7,0.6-1.3,0.9-1.7h3c0.1,1,0.3,2,0.4,3.2
			c0.1,1.2,0.2,2.4,0.3,3.7c0.1,1.3,0.2,2.6,0.3,3.9c0.1,1.3,0.1,2.5,0.2,3.7H196c0-1.4-0.1-3-0.2-4.6c-0.1-1.7-0.2-3.3-0.3-5
			c-0.3,0.6-0.5,1.2-0.8,2c-0.3,0.7-0.6,1.4-0.9,2.1c-0.3,0.7-0.6,1.4-0.9,2c-0.3,0.7-0.5,1.2-0.7,1.7h-2.3c-0.2-0.5-0.4-1-0.7-1.7
			c-0.3-0.7-0.6-1.3-0.9-2c-0.3-0.7-0.6-1.4-0.9-2.1c-0.3-0.7-0.6-1.4-0.8-2c-0.1,1.7-0.2,3.4-0.3,5c-0.1,1.7-0.1,3.2-0.2,4.6h-3.2
			c0.1-1.1,0.1-2.4,0.2-3.7c0.1-1.3,0.2-2.6,0.3-3.9c0.1-1.3,0.2-2.5,0.3-3.7s0.2-2.3,0.4-3.2H187.1z"/>
		<path id="XMLID_71_" d="M202.1,402.7h3.3v14.6h-3.3V402.7z"/>
		<path id="XMLID_73_" d="M218.5,417.3c-0.9-1.7-2-3.3-3-4.9c-1.1-1.6-2.3-3.2-3.5-4.6v9.5h-3.2v-14.6h2.7c0.5,0.5,1,1,1.5,1.7
			c0.6,0.7,1.1,1.4,1.7,2.2c0.6,0.8,1.2,1.6,1.7,2.4c0.6,0.8,1.1,1.6,1.6,2.4v-8.6h3.3v14.6H218.5z"/>
		<path id="XMLID_75_" d="M234.4,417.3c-0.2-0.5-0.3-1-0.5-1.6s-0.4-1.1-0.6-1.6h-5.7c-0.2,0.5-0.4,1.1-0.6,1.6
			c-0.2,0.5-0.4,1.1-0.5,1.6h-3.4c0.5-1.6,1.1-3,1.6-4.3s1-2.6,1.4-3.8c0.5-1.2,0.9-2.3,1.4-3.3c0.5-1.1,0.9-2.1,1.4-3.1h3.1
			c0.5,1,0.9,2,1.4,3.1c0.5,1.1,0.9,2.2,1.4,3.3c0.5,1.2,1,2.4,1.4,3.8s1,2.8,1.6,4.3H234.4z M230.4,406c-0.1,0.2-0.2,0.5-0.3,0.9
			c-0.1,0.4-0.3,0.8-0.5,1.3c-0.2,0.5-0.4,1-0.6,1.6c-0.2,0.6-0.4,1.2-0.7,1.8h4.2c-0.2-0.6-0.4-1.2-0.6-1.8
			c-0.2-0.6-0.4-1.1-0.6-1.6c-0.2-0.5-0.4-0.9-0.5-1.3C230.6,406.5,230.5,406.2,230.4,406z"/>
		<path id="XMLID_78_" d="M244,402.6c2.2,0,3.9,0.4,5,1.2c1.2,0.8,1.7,2,1.7,3.6c0,1-0.2,1.9-0.7,2.5c-0.5,0.6-1.1,1.1-2,1.5
			c0.3,0.4,0.6,0.8,0.9,1.3c0.3,0.5,0.6,1,1,1.5c0.3,0.5,0.6,1,0.9,1.6c0.3,0.6,0.6,1.1,0.8,1.6H248c-0.3-0.5-0.5-1-0.8-1.4
			c-0.3-0.5-0.6-1-0.8-1.4c-0.3-0.5-0.6-0.9-0.9-1.3c-0.3-0.4-0.6-0.8-0.8-1.1H243v5.3h-3.3V403c0.7-0.1,1.5-0.2,2.2-0.3
			C242.7,402.6,243.4,402.6,244,402.6z M244.2,405.4c-0.2,0-0.5,0-0.6,0c-0.2,0-0.4,0-0.5,0v3.9h0.9c1.2,0,2.1-0.2,2.6-0.5
			c0.5-0.3,0.8-0.8,0.8-1.6c0-0.7-0.3-1.2-0.8-1.5C246,405.5,245.2,405.4,244.2,405.4z"/>
		<path id="XMLID_81_" d="M260,417.6c-2.4,0-4.2-0.7-5.4-2c-1.2-1.3-1.9-3.2-1.9-5.6c0-1.2,0.2-2.3,0.6-3.2c0.4-0.9,0.9-1.7,1.6-2.4
			c0.7-0.7,1.4-1.1,2.4-1.5s1.9-0.5,3-0.5c0.6,0,1.2,0,1.7,0.1c0.5,0.1,0.9,0.2,1.3,0.3c0.4,0.1,0.7,0.2,0.9,0.4
			c0.3,0.1,0.4,0.2,0.5,0.3l-0.9,2.6c-0.4-0.2-1-0.4-1.6-0.6c-0.6-0.2-1.3-0.3-2-0.3c-0.5,0-1,0.1-1.5,0.3c-0.5,0.2-0.9,0.4-1.3,0.8
			c-0.4,0.4-0.7,0.9-0.9,1.4s-0.3,1.3-0.3,2.1c0,0.7,0.1,1.3,0.2,1.9c0.1,0.6,0.4,1.1,0.7,1.5c0.3,0.4,0.8,0.8,1.3,1
			c0.5,0.2,1.2,0.4,1.9,0.4c0.5,0,0.9,0,1.3-0.1c0.4-0.1,0.7-0.1,1-0.2c0.3-0.1,0.6-0.2,0.8-0.3s0.4-0.2,0.6-0.3l0.9,2.6
			c-0.5,0.3-1.1,0.5-2,0.8C262.1,417.5,261.1,417.6,260,417.6z"/>
		<path id="XMLID_83_" d="M275.8,402.7h3.3v14.6h-3.3v-6.2h-5.5v6.2H267v-14.6h3.3v5.6h5.5V402.7z"/>
		<path id="XMLID_85_" d="M282.4,402.7h3.3v14.6h-3.3V402.7z"/>
		<path id="XMLID_87_" d="M293,414.8c0.5,0,0.8,0,1.1-0.1c0.3-0.1,0.5-0.2,0.7-0.3c0.2-0.1,0.3-0.3,0.4-0.5s0.1-0.4,0.1-0.6
			c0-0.5-0.2-0.9-0.7-1.2c-0.4-0.3-1.2-0.7-2.3-1c-0.5-0.2-1-0.4-1.4-0.6c-0.5-0.2-0.9-0.5-1.3-0.8c-0.4-0.3-0.7-0.7-0.9-1.2
			c-0.2-0.5-0.4-1-0.4-1.7s0.1-1.3,0.4-1.8s0.6-1,1.1-1.4c0.5-0.4,1-0.7,1.7-0.9c0.7-0.2,1.4-0.3,2.2-0.3c1,0,1.8,0.1,2.5,0.3
			c0.7,0.2,1.3,0.4,1.8,0.7l-0.9,2.6c-0.4-0.2-0.9-0.4-1.4-0.6c-0.5-0.2-1.1-0.2-1.8-0.2c-0.8,0-1.3,0.1-1.7,0.3s-0.5,0.6-0.5,1
			c0,0.3,0.1,0.5,0.2,0.7s0.3,0.3,0.5,0.5c0.2,0.1,0.5,0.3,0.8,0.4s0.6,0.2,1,0.4c0.8,0.3,1.4,0.6,2,0.8s1,0.6,1.4,1
			c0.4,0.4,0.6,0.8,0.8,1.3c0.2,0.5,0.3,1.1,0.3,1.8c0,1.4-0.5,2.4-1.4,3.2c-1,0.8-2.4,1.1-4.3,1.1c-0.6,0-1.2,0-1.7-0.1
			c-0.5-0.1-1-0.2-1.4-0.3c-0.4-0.1-0.7-0.2-1-0.4c-0.3-0.1-0.5-0.2-0.7-0.4l0.9-2.6c0.4,0.2,1,0.5,1.6,0.6S292.1,414.8,293,414.8z"
			/>
		<path id="XMLID_89_" d="M305.1,402.7c0.3,0.5,0.5,1,0.9,1.7s0.7,1.4,1,2.2c0.4,0.8,0.7,1.6,1.1,2.4s0.7,1.6,1,2.3
			c0.3-0.7,0.6-1.5,1-2.3c0.4-0.8,0.7-1.6,1.1-2.4c0.4-0.8,0.7-1.5,1-2.2s0.6-1.3,0.9-1.7h3c0.1,1,0.3,2,0.4,3.2s0.2,2.4,0.3,3.7
			s0.2,2.6,0.3,3.9c0.1,1.3,0.1,2.5,0.2,3.7H314c0-1.4-0.1-3-0.2-4.6c-0.1-1.7-0.2-3.3-0.3-5c-0.3,0.6-0.5,1.2-0.8,2
			c-0.3,0.7-0.6,1.4-0.9,2.1c-0.3,0.7-0.6,1.4-0.9,2c-0.3,0.7-0.5,1.2-0.7,1.7h-2.3c-0.2-0.5-0.4-1-0.7-1.7c-0.3-0.7-0.6-1.3-0.9-2
			c-0.3-0.7-0.6-1.4-0.9-2.1c-0.3-0.7-0.6-1.4-0.8-2c-0.1,1.7-0.2,3.4-0.3,5c-0.1,1.7-0.1,3.2-0.2,4.6h-3.2c0.1-1.1,0.1-2.4,0.2-3.7
			c0.1-1.3,0.2-2.6,0.3-3.9c0.1-1.3,0.2-2.5,0.3-3.7s0.2-2.3,0.4-3.2H305.1z"/>
	</g>
	<g id="XMLID_12_" class="st4">
		<path id="XMLID_61_" d="M85.8,253.8v2.8h-9.7V242h3.3v11.7H85.8z"/>
		<path id="XMLID_63_" d="M87.9,256.6V242h9.8v2.8h-6.6v2.9H97v2.7h-5.8v3.5h7v2.8H87.9z"/>
		<path id="XMLID_65_" d="M100.6,256.6V242h9.7v2.8h-6.5v3h5.8v2.8h-5.8v6H100.6z"/>
		<path id="XMLID_67_" d="M123.9,242v2.8h-4.4v11.8h-3.3v-11.8h-4.4V242H123.9z"/>
	</g>
	<g id="XMLID_13_" class="st4">
		<path id="XMLID_38_" d="M373.5,241.8c2.2,0,3.9,0.4,5,1.2c1.2,0.8,1.7,2,1.7,3.6c0,1-0.2,1.9-0.7,2.5c-0.5,0.6-1.1,1.1-2,1.5
			c0.3,0.4,0.6,0.8,0.9,1.3c0.3,0.5,0.6,1,1,1.5c0.3,0.5,0.6,1,0.9,1.6c0.3,0.6,0.6,1.1,0.8,1.6h-3.7c-0.3-0.5-0.5-1-0.8-1.4
			c-0.3-0.5-0.6-1-0.8-1.4c-0.3-0.5-0.6-0.9-0.9-1.3c-0.3-0.4-0.6-0.8-0.8-1.1h-1.6v5.3h-3.3v-14.3c0.7-0.1,1.5-0.2,2.2-0.3
			C372.2,241.9,372.9,241.8,373.5,241.8z M373.7,244.6c-0.2,0-0.5,0-0.6,0c-0.2,0-0.4,0-0.5,0v3.9h0.9c1.2,0,2.1-0.2,2.6-0.5
			s0.8-0.8,0.8-1.6c0-0.7-0.3-1.2-0.8-1.5C375.5,244.8,374.7,244.6,373.7,244.6z"/>
		<path id="XMLID_53_" d="M383.2,242h3.3v14.6h-3.3V242z"/>
		<path id="XMLID_55_" d="M396.9,244.5c-1.5,0-2.6,0.4-3.3,1.3c-0.7,0.8-1,2-1,3.5c0,0.7,0.1,1.4,0.3,1.9c0.2,0.6,0.4,1.1,0.8,1.5
			s0.8,0.7,1.3,1s1.1,0.3,1.8,0.3c0.4,0,0.7,0,0.9,0s0.5,0,0.7-0.1v-5.1h3.3v7.2c-0.4,0.2-1,0.3-1.9,0.5c-0.9,0.2-1.9,0.3-3.2,0.3
			c-1.1,0-2.1-0.2-3-0.5c-0.9-0.3-1.6-0.8-2.3-1.5c-0.6-0.6-1.1-1.4-1.5-2.4c-0.3-0.9-0.5-2-0.5-3.2c0-1.2,0.2-2.3,0.6-3.2
			c0.4-0.9,0.9-1.7,1.6-2.4c0.7-0.7,1.4-1.1,2.3-1.5c0.9-0.3,1.8-0.5,2.8-0.5c0.7,0,1.3,0,1.9,0.1c0.6,0.1,1,0.2,1.4,0.3
			c0.4,0.1,0.7,0.2,1,0.4c0.3,0.1,0.4,0.2,0.6,0.3l-0.9,2.6c-0.4-0.2-1-0.4-1.5-0.6C398.3,244.6,397.6,244.5,396.9,244.5z"/>
		<path id="XMLID_57_" d="M413.4,242h3.3v14.6h-3.3v-6.2h-5.5v6.2h-3.3V242h3.3v5.6h5.5V242z"/>
		<path id="XMLID_59_" d="M430.8,242v2.8h-4.4v11.8h-3.3v-11.8h-4.4V242H430.8z"/>
	</g>
</g>
<g id="labelz2" class="st0">
	<g id="XMLID_4_" class="st4">
		<path id="XMLID_184_" d="M328.8,76.5l-1.7,1.7l-2.7-2.7l-7.1,7.1l-2-2l7.1-7.1l-2.7-2.7l1.7-1.7L328.8,76.5z"/>
		<path id="XMLID_186_" d="M332.7,80.2c1.3,1.3,2.1,2.6,2.3,3.7s-0.1,2.3-1.1,3.3c-0.6,0.6-1.3,1-1.9,1.1c-0.7,0.1-1.4,0-2.1-0.3
			c0,0.4-0.1,0.8-0.2,1.3c-0.1,0.5-0.2,1-0.3,1.5c-0.1,0.5-0.3,1-0.4,1.5c-0.2,0.5-0.3,1-0.5,1.5l-2.2-2.2c0.1-0.5,0.3-0.9,0.4-1.4
			c0.1-0.5,0.2-0.9,0.4-1.4c0.1-0.5,0.2-0.9,0.3-1.3c0.1-0.4,0.1-0.8,0.2-1.2l-1-1l-3.2,3.2l-2-2l8.7-8.7c0.5,0.3,1,0.7,1.5,1.2
			C331.9,79.5,332.4,79.9,332.7,80.2z M331.1,82c-0.1-0.1-0.3-0.3-0.4-0.4c-0.1-0.1-0.2-0.2-0.4-0.3l-2.4,2.4l0.6,0.6
			c0.7,0.7,1.4,1.2,1.9,1.3c0.5,0.1,1,0,1.4-0.5c0.4-0.4,0.6-0.9,0.4-1.4C332.2,83.2,331.8,82.7,331.1,82z"/>
		<path id="XMLID_189_" d="M336,101.4c0.2-0.4,0.4-0.8,0.6-1.3c0.2-0.4,0.4-0.9,0.6-1.3l-3.4-3.4c-0.4,0.2-0.9,0.4-1.3,0.6
			c-0.4,0.2-0.9,0.4-1.3,0.6l-2.1-2.1c1.3-0.6,2.5-1.2,3.6-1.7c1.1-0.5,2.2-1,3.2-1.4c1-0.4,2-0.8,2.9-1.2c0.9-0.4,1.8-0.7,2.7-1
			l1.9,1.9c-0.3,0.9-0.7,1.8-1,2.7c-0.4,0.9-0.8,1.9-1.2,2.9c-0.4,1-0.9,2.1-1.4,3.2c-0.5,1.1-1.1,2.3-1.7,3.6L336,101.4z
			 M340.5,92.2c-0.2,0.1-0.4,0.2-0.7,0.3c-0.3,0.1-0.7,0.3-1.1,0.5c-0.4,0.2-0.8,0.4-1.3,0.6c-0.5,0.2-1,0.4-1.5,0.7l2.5,2.5
			c0.2-0.5,0.5-1,0.7-1.5c0.2-0.5,0.4-0.9,0.6-1.3c0.2-0.4,0.3-0.8,0.5-1.1C340.3,92.6,340.4,92.3,340.5,92.2z"/>
		<path id="XMLID_192_" d="M351.4,107.9c-0.8,0.8-1.5,1.3-2.4,1.6c-0.8,0.3-1.6,0.5-2.4,0.4c-0.8-0.1-1.6-0.3-2.4-0.8
			c-0.8-0.4-1.6-1.1-2.4-1.8c-0.4-0.4-0.8-0.8-1.2-1.3c-0.4-0.5-0.9-1-1.2-1.6l8.6-8.6c0.5,0.4,1.1,0.8,1.6,1.3
			c0.5,0.5,1,0.9,1.3,1.2c0.8,0.8,1.4,1.5,1.8,2.3c0.4,0.8,0.7,1.6,0.8,2.4c0.1,0.8-0.1,1.6-0.4,2.4
			C352.8,106.3,352.2,107.1,351.4,107.9z M342.9,105c0.1,0.1,0.2,0.2,0.3,0.3c0.1,0.1,0.3,0.3,0.4,0.4c1,1,2,1.5,3,1.5
			c1,0,1.9-0.5,2.8-1.4c0.9-0.9,1.4-1.9,1.4-2.8c0-0.9-0.5-1.9-1.5-2.9c-0.1-0.1-0.3-0.3-0.4-0.4c-0.1-0.1-0.3-0.3-0.4-0.4
			L342.9,105z"/>
		<path id="XMLID_195_" d="M357.5,105.2l2,2l-8.8,8.8l-2-2L357.5,105.2z"/>
		<path id="XMLID_197_" d="M368,115.7l-1.7,1.7l-2.7-2.7l-7.1,7.1l-2-2l7.1-7.1l-2.7-2.7l1.7-1.7L368,115.7z"/>
		<path id="XMLID_199_" d="M369.3,117l2,2l-8.8,8.8l-2-2L369.3,117z"/>
		<path id="XMLID_201_" d="M377.3,133.8c-0.8,0.8-1.5,1.3-2.3,1.7c-0.8,0.3-1.6,0.5-2.4,0.5c-0.8,0-1.5-0.2-2.3-0.5s-1.4-0.8-2-1.4
			c-0.6-0.6-1.1-1.3-1.4-2c-0.3-0.7-0.5-1.5-0.5-2.3c0-0.8,0.2-1.6,0.5-2.4c0.3-0.8,0.9-1.6,1.6-2.3c0.8-0.8,1.5-1.3,2.3-1.6
			c0.8-0.3,1.6-0.5,2.4-0.5c0.8,0,1.6,0.2,2.3,0.5c0.7,0.3,1.4,0.8,2,1.4c0.6,0.6,1.1,1.3,1.4,2c0.3,0.7,0.5,1.5,0.5,2.3
			c0,0.8-0.2,1.6-0.5,2.4C378.6,132.3,378.1,133.1,377.3,133.8z M370.6,127.1c-0.4,0.4-0.8,0.9-1,1.3c-0.2,0.5-0.4,0.9-0.4,1.4
			c-0.1,0.4,0,0.9,0.2,1.3c0.2,0.4,0.4,0.8,0.8,1.2c0.4,0.4,0.8,0.6,1.2,0.8c0.4,0.2,0.9,0.2,1.3,0.2c0.4-0.1,0.9-0.2,1.4-0.4
			c0.5-0.2,0.9-0.6,1.3-1c0.4-0.4,0.8-0.9,1-1.3c0.2-0.5,0.4-0.9,0.4-1.4c0.1-0.4,0-0.9-0.2-1.3c-0.2-0.4-0.4-0.8-0.8-1.2
			c-0.4-0.4-0.8-0.6-1.2-0.8c-0.4-0.1-0.9-0.2-1.3-0.1c-0.4,0.1-0.9,0.2-1.4,0.4C371.5,126.4,371,126.7,370.6,127.1z"/>
		<path id="XMLID_204_" d="M380.5,145.8c0.4-1.6,0.8-3.2,1.1-4.8c0.3-1.6,0.5-3.3,0.7-4.9l-5.8,5.8l-2-2l8.8-8.8l1.6,1.6
			c0,0.6,0,1.2-0.1,2c-0.1,0.7-0.2,1.5-0.3,2.3c-0.1,0.8-0.2,1.6-0.4,2.5c-0.1,0.8-0.3,1.6-0.5,2.4l5.2-5.2l2,2l-8.8,8.8
			L380.5,145.8z"/>
		<path id="XMLID_206_" d="M390.1,155.5c0.2-0.4,0.4-0.8,0.6-1.3c0.2-0.4,0.4-0.9,0.6-1.3l-3.4-3.4c-0.4,0.2-0.9,0.4-1.3,0.6
			c-0.4,0.2-0.9,0.4-1.3,0.6l-2.1-2.1c1.3-0.6,2.5-1.2,3.6-1.7c1.1-0.5,2.2-1,3.2-1.4c1-0.4,2-0.8,2.9-1.2c0.9-0.4,1.8-0.7,2.7-1
			l1.9,1.9c-0.3,0.9-0.7,1.8-1,2.7c-0.4,0.9-0.8,1.9-1.2,2.9c-0.4,1-0.9,2-1.4,3.2c-0.5,1.1-1.1,2.3-1.7,3.6L390.1,155.5z
			 M394.5,146.2c-0.2,0.1-0.4,0.2-0.7,0.3c-0.3,0.1-0.7,0.3-1.1,0.5s-0.8,0.4-1.3,0.6c-0.5,0.2-1,0.4-1.5,0.7l2.5,2.5
			c0.2-0.5,0.5-1,0.7-1.5c0.2-0.5,0.4-0.9,0.6-1.3c0.2-0.4,0.3-0.8,0.5-1.1C394.4,146.7,394.5,146.4,394.5,146.2z"/>
		<path id="XMLID_209_" d="M401,162.9l-1.7,1.7l-5.9-5.9l8.8-8.8l2,2l-7.1,7.1L401,162.9z"/>
		<path id="XMLID_211_" d="M409.4,157.1l2,2l-8.8,8.8l-2-2L409.4,157.1z"/>
		<path id="XMLID_213_" d="M408.5,170.8c0.3,0.3,0.5,0.5,0.8,0.6c0.2,0.1,0.4,0.2,0.6,0.2c0.2,0,0.4,0,0.5-0.1
			c0.2-0.1,0.3-0.2,0.4-0.3c0.3-0.3,0.4-0.7,0.3-1.1c-0.1-0.5-0.3-1.1-0.8-2c-0.2-0.4-0.4-0.8-0.5-1.2c-0.2-0.4-0.3-0.8-0.3-1.3
			c0-0.4,0-0.9,0.2-1.3c0.1-0.4,0.4-0.8,0.8-1.3c0.4-0.4,0.9-0.7,1.3-0.9c0.5-0.2,1-0.2,1.5-0.2c0.5,0.1,1,0.2,1.5,0.5
			c0.5,0.3,1,0.7,1.5,1.2c0.6,0.6,1,1.2,1.3,1.7c0.3,0.6,0.5,1.1,0.6,1.5l-2.1,1c-0.1-0.4-0.3-0.8-0.5-1.2c-0.2-0.4-0.5-0.8-0.9-1.2
			c-0.5-0.5-0.9-0.8-1.2-0.8c-0.3-0.1-0.6,0-0.9,0.3c-0.2,0.2-0.3,0.3-0.3,0.5c0,0.2,0,0.4,0,0.6c0.1,0.2,0.1,0.5,0.2,0.7
			c0.1,0.3,0.2,0.5,0.4,0.8c0.3,0.6,0.5,1.2,0.7,1.7c0.2,0.5,0.3,1,0.3,1.4c0,0.4-0.1,0.9-0.3,1.3c-0.2,0.4-0.5,0.8-0.9,1.2
			c-0.8,0.8-1.8,1.2-2.8,1.1c-1-0.1-2.1-0.8-3.3-1.9c-0.4-0.4-0.7-0.8-1-1.1c-0.3-0.4-0.5-0.7-0.7-1c-0.2-0.3-0.3-0.6-0.4-0.8
			c-0.1-0.3-0.2-0.5-0.2-0.7l2.1-1c0.1,0.4,0.3,0.9,0.6,1.4C407.5,169.7,407.9,170.2,408.5,170.8z"/>
		<path id="XMLID_215_" d="M423.1,170.8c-0.1,0.4-0.3,1-0.5,1.6c-0.2,0.6-0.4,1.3-0.7,2c-0.3,0.7-0.5,1.4-0.8,2.1
			c-0.3,0.7-0.6,1.4-0.8,2c0.6-0.3,1.3-0.5,2-0.8c0.7-0.3,1.4-0.6,2.1-0.8c0.7-0.3,1.4-0.5,2-0.7c0.6-0.2,1.1-0.4,1.6-0.5l1.8,1.8
			c-0.5,0.7-1.1,1.4-1.7,2.2c-0.7,0.8-1.3,1.6-2.1,2.5c-0.7,0.8-1.5,1.7-2.2,2.5c-0.7,0.8-1.4,1.6-2.1,2.3l-1.9-1.9
			c0.8-0.9,1.7-1.8,2.7-2.9c1-1.1,1.9-2.1,2.9-3.2c-0.5,0.2-1.1,0.4-1.7,0.7c-0.6,0.2-1.2,0.5-1.9,0.7c-0.6,0.2-1.2,0.5-1.8,0.7
			c-0.6,0.2-1,0.4-1.4,0.6l-1.4-1.4c0.2-0.4,0.4-0.9,0.6-1.4c0.2-0.6,0.5-1.2,0.7-1.8s0.5-1.2,0.7-1.9s0.5-1.2,0.7-1.7
			c-1.1,0.9-2.2,1.9-3.2,2.9c-1.1,1-2,1.9-2.9,2.7l-1.9-1.9c0.7-0.7,1.5-1.4,2.3-2.1c0.8-0.7,1.7-1.5,2.5-2.2
			c0.8-0.7,1.7-1.4,2.5-2.1c0.8-0.7,1.5-1.2,2.2-1.7L423.1,170.8z"/>
	</g>
	<g id="XMLID_20_" class="st4">
		<path id="XMLID_163_" d="M99.9,330.1c-0.1,0.4-0.3,1-0.5,1.6c-0.2,0.6-0.4,1.3-0.7,2c-0.3,0.7-0.5,1.4-0.8,2.1
			c-0.3,0.7-0.6,1.4-0.8,2c0.6-0.3,1.3-0.5,2-0.8c0.7-0.3,1.4-0.6,2.1-0.8c0.7-0.3,1.3-0.5,2-0.7c0.6-0.2,1.1-0.4,1.6-0.5l1.8,1.8
			c-0.5,0.7-1.1,1.4-1.7,2.2c-0.7,0.8-1.3,1.6-2.1,2.5c-0.7,0.8-1.5,1.7-2.2,2.5c-0.7,0.8-1.4,1.6-2.1,2.3l-1.9-1.9
			c0.8-0.9,1.7-1.8,2.7-2.9c1-1.1,1.9-2.1,2.9-3.2c-0.5,0.2-1.1,0.4-1.7,0.7c-0.6,0.2-1.2,0.5-1.9,0.7c-0.6,0.2-1.2,0.5-1.8,0.7
			c-0.6,0.2-1,0.4-1.4,0.6l-1.4-1.4c0.2-0.4,0.4-0.9,0.6-1.4c0.2-0.6,0.5-1.2,0.7-1.8c0.2-0.6,0.5-1.2,0.7-1.9s0.5-1.2,0.7-1.7
			c-1.1,0.9-2.2,1.9-3.2,2.9c-1.1,1-2,1.9-2.9,2.7l-1.9-1.9c0.7-0.7,1.5-1.4,2.3-2.1c0.8-0.7,1.7-1.5,2.5-2.2s1.7-1.4,2.5-2.1
			c0.8-0.7,1.5-1.2,2.2-1.7L99.9,330.1z"/>
		<path id="XMLID_165_" d="M113,352c-0.8,0.8-1.5,1.3-2.3,1.7c-0.8,0.3-1.6,0.5-2.4,0.5c-0.8,0-1.5-0.2-2.3-0.5s-1.4-0.8-2-1.4
			c-0.6-0.6-1.1-1.3-1.4-2c-0.3-0.7-0.5-1.5-0.5-2.3c0-0.8,0.2-1.6,0.5-2.4c0.3-0.8,0.9-1.6,1.6-2.3c0.8-0.8,1.5-1.3,2.3-1.6
			c0.8-0.3,1.6-0.5,2.4-0.5c0.8,0,1.6,0.2,2.3,0.5c0.7,0.3,1.4,0.8,2,1.4c0.6,0.6,1.1,1.3,1.4,2c0.3,0.7,0.5,1.5,0.5,2.3
			c0,0.8-0.2,1.6-0.5,2.4C114.3,350.4,113.7,351.2,113,352z M106.2,345.2c-0.4,0.4-0.8,0.9-1,1.3c-0.2,0.5-0.4,0.9-0.4,1.4
			c-0.1,0.4,0,0.9,0.2,1.3c0.2,0.4,0.4,0.8,0.8,1.2c0.4,0.4,0.8,0.6,1.2,0.8c0.4,0.2,0.9,0.2,1.3,0.2c0.4-0.1,0.9-0.2,1.4-0.4
			s0.9-0.6,1.3-1c0.4-0.4,0.8-0.9,1-1.3c0.2-0.5,0.4-0.9,0.4-1.4c0.1-0.4,0-0.9-0.2-1.3s-0.4-0.8-0.8-1.2c-0.4-0.4-0.8-0.6-1.2-0.8
			c-0.4-0.1-0.9-0.2-1.3-0.1c-0.4,0.1-0.9,0.2-1.4,0.4C107.1,344.5,106.6,344.8,106.2,345.2z"/>
		<path id="XMLID_168_" d="M122.3,361.3c-0.8,0.8-1.5,1.3-2.4,1.6c-0.8,0.3-1.6,0.5-2.4,0.4c-0.8-0.1-1.6-0.3-2.4-0.8
			c-0.8-0.4-1.6-1.1-2.4-1.8c-0.4-0.4-0.8-0.8-1.2-1.3c-0.4-0.5-0.9-1-1.2-1.6l8.6-8.6c0.5,0.4,1.1,0.8,1.6,1.3
			c0.5,0.5,1,0.9,1.3,1.2c0.8,0.8,1.4,1.5,1.8,2.3c0.4,0.8,0.7,1.6,0.8,2.4c0.1,0.8-0.1,1.6-0.4,2.4
			C123.7,359.7,123.1,360.5,122.3,361.3z M113.8,358.4c0.1,0.1,0.2,0.2,0.3,0.3c0.1,0.1,0.3,0.3,0.4,0.4c1,1,2,1.5,3,1.5
			c1,0,1.9-0.5,2.8-1.4c0.9-0.9,1.4-1.9,1.4-2.8c0-0.9-0.5-1.9-1.5-2.9c-0.1-0.1-0.3-0.3-0.4-0.4c-0.1-0.1-0.3-0.3-0.4-0.4
			L113.8,358.4z"/>
		<path id="XMLID_171_" d="M119.6,367.4l8.8-8.8l6,6l-1.7,1.7l-4-4L127,364l3.5,3.5l-1.6,1.6l-3.5-3.5l-2.1,2.1l4.3,4.3l-1.7,1.7
			L119.6,367.4z"/>
		<path id="XMLID_173_" d="M138.8,368.8c1.3,1.3,2.1,2.6,2.3,3.7s-0.1,2.3-1.1,3.3c-0.6,0.6-1.3,1-1.9,1.1c-0.7,0.1-1.4,0-2.1-0.3
			c0,0.4-0.1,0.8-0.2,1.3c-0.1,0.5-0.2,1-0.3,1.5c-0.1,0.5-0.3,1-0.4,1.5c-0.2,0.5-0.3,1-0.5,1.5l-2.2-2.2c0.1-0.5,0.3-0.9,0.4-1.4
			c0.1-0.5,0.2-0.9,0.4-1.4c0.1-0.5,0.2-0.9,0.3-1.3c0.1-0.4,0.1-0.8,0.2-1.2l-1-1l-3.2,3.2l-2-2l8.7-8.7c0.5,0.3,1,0.7,1.5,1.2
			C138,368,138.4,368.4,138.8,368.8z M137.2,370.6c-0.1-0.1-0.3-0.3-0.4-0.4c-0.1-0.1-0.2-0.2-0.4-0.3l-2.4,2.4l0.6,0.6
			c0.7,0.7,1.4,1.2,1.9,1.3c0.5,0.1,1,0,1.4-0.5c0.4-0.4,0.6-0.9,0.4-1.4C138.2,371.8,137.8,371.2,137.2,370.6z"/>
		<path id="XMLID_176_" d="M141.7,389.5c0.4-1.6,0.8-3.2,1.1-4.8c0.3-1.6,0.5-3.3,0.7-4.9l-5.8,5.8l-2-2l8.8-8.8l1.6,1.6
			c0,0.6,0,1.2-0.1,2c-0.1,0.7-0.2,1.5-0.3,2.3c-0.1,0.8-0.2,1.6-0.4,2.5c-0.1,0.8-0.3,1.6-0.5,2.4l5.2-5.2l2,2l-8.8,8.8
			L141.7,389.5z"/>
		<path id="XMLID_178_" d="M154.2,384.4l2,2l-8.8,8.8l-2-2L154.2,384.4z"/>
		<path id="XMLID_180_" d="M153.3,398.1c0.3,0.3,0.5,0.5,0.8,0.6c0.2,0.1,0.4,0.2,0.6,0.2c0.2,0,0.4,0,0.5-0.1
			c0.2-0.1,0.3-0.2,0.4-0.3c0.3-0.3,0.4-0.7,0.3-1.1c-0.1-0.5-0.3-1.1-0.8-2c-0.2-0.4-0.4-0.8-0.5-1.2c-0.2-0.4-0.3-0.8-0.3-1.3
			c0-0.4,0-0.9,0.2-1.3c0.1-0.4,0.4-0.8,0.8-1.3s0.9-0.7,1.3-0.9c0.5-0.2,1-0.2,1.5-0.2c0.5,0.1,1,0.2,1.5,0.5
			c0.5,0.3,1,0.7,1.5,1.2c0.6,0.6,1,1.2,1.3,1.7c0.3,0.6,0.5,1.1,0.6,1.5l-2.1,1c-0.1-0.4-0.3-0.8-0.5-1.2c-0.2-0.4-0.5-0.8-0.9-1.2
			c-0.5-0.5-0.9-0.8-1.2-0.8c-0.3-0.1-0.6,0-0.9,0.3c-0.2,0.2-0.3,0.3-0.3,0.5c0,0.2,0,0.4,0,0.6c0.1,0.2,0.1,0.5,0.2,0.7
			c0.1,0.3,0.2,0.5,0.4,0.8c0.3,0.6,0.5,1.2,0.7,1.7c0.2,0.5,0.3,1,0.3,1.4c0,0.4-0.1,0.9-0.3,1.3c-0.2,0.4-0.5,0.8-0.9,1.2
			c-0.8,0.8-1.7,1.2-2.8,1.1c-1-0.1-2.1-0.8-3.3-1.9c-0.4-0.4-0.7-0.8-1-1.1c-0.3-0.4-0.5-0.7-0.7-1c-0.2-0.3-0.3-0.6-0.4-0.8
			c-0.1-0.3-0.2-0.5-0.2-0.7l2.1-1c0.1,0.4,0.3,0.9,0.6,1.4C152.4,397.1,152.8,397.6,153.3,398.1z"/>
		<path id="XMLID_182_" d="M168,398.2c-0.1,0.4-0.3,1-0.5,1.6c-0.2,0.6-0.4,1.3-0.7,2c-0.3,0.7-0.5,1.4-0.8,2.1
			c-0.3,0.7-0.6,1.4-0.8,2c0.6-0.3,1.3-0.5,2-0.8c0.7-0.3,1.4-0.6,2.1-0.8c0.7-0.3,1.4-0.5,2-0.7c0.6-0.2,1.1-0.4,1.6-0.5l1.8,1.8
			c-0.5,0.7-1.1,1.4-1.7,2.2c-0.7,0.8-1.3,1.6-2.1,2.5s-1.5,1.7-2.2,2.5c-0.7,0.8-1.4,1.6-2.1,2.3l-1.9-1.9c0.8-0.9,1.7-1.8,2.7-2.9
			c1-1.1,1.9-2.1,2.9-3.2c-0.5,0.2-1.1,0.4-1.7,0.7c-0.6,0.2-1.2,0.5-1.9,0.7c-0.6,0.2-1.2,0.5-1.8,0.7c-0.6,0.2-1,0.4-1.4,0.6
			l-1.4-1.4c0.2-0.4,0.4-0.9,0.6-1.4s0.5-1.2,0.7-1.8s0.5-1.2,0.7-1.9s0.5-1.2,0.7-1.7c-1.1,0.9-2.2,1.9-3.2,2.9
			c-1.1,1-2,1.9-2.9,2.7l-1.9-1.9c0.7-0.7,1.5-1.4,2.3-2.1c0.8-0.7,1.7-1.5,2.5-2.2c0.8-0.7,1.7-1.4,2.5-2.1
			c0.8-0.7,1.5-1.2,2.2-1.7L168,398.2z"/>
	</g>
	<g id="XMLID_106_" class="st4">
		<path id="XMLID_138_" d="M93.3,178.1c-1.4,1.4-2.9,2.1-4.5,2.1c-1.5,0-3.1-0.8-4.5-2.3c-0.7-0.7-1.3-1.5-1.6-2.3
			c-0.3-0.8-0.5-1.6-0.5-2.4c0-0.8,0.2-1.6,0.5-2.3c0.3-0.8,0.8-1.5,1.5-2.1c0.4-0.4,0.7-0.7,1.1-0.9c0.4-0.3,0.7-0.5,1-0.6
			c0.3-0.2,0.6-0.3,0.8-0.3c0.2-0.1,0.4-0.1,0.5-0.2l1,2.2c-0.4,0.1-0.9,0.3-1.3,0.6c-0.5,0.3-0.9,0.6-1.4,1.1
			c-0.3,0.3-0.6,0.7-0.7,1c-0.2,0.4-0.3,0.8-0.3,1.3c0,0.5,0.1,0.9,0.3,1.4c0.2,0.5,0.6,1,1.1,1.5c0.4,0.4,0.8,0.7,1.3,1
			s0.9,0.4,1.3,0.5c0.5,0.1,0.9,0,1.4-0.2c0.5-0.2,0.9-0.5,1.4-0.9c0.3-0.3,0.5-0.6,0.7-0.8c0.2-0.3,0.4-0.5,0.5-0.7
			c0.1-0.2,0.2-0.4,0.3-0.6c0.1-0.2,0.1-0.4,0.2-0.5l2.1,1c-0.1,0.4-0.4,1-0.7,1.6C94.5,176.8,93.9,177.4,93.3,178.1z"/>
		<path id="XMLID_140_" d="M101,161.2c0.8,0.8,1.3,1.5,1.7,2.3c0.3,0.8,0.5,1.6,0.5,2.4c0,0.8-0.2,1.5-0.5,2.3s-0.8,1.4-1.4,2
			c-0.6,0.6-1.3,1.1-2,1.4c-0.7,0.3-1.5,0.5-2.3,0.5c-0.8,0-1.6-0.2-2.4-0.5c-0.8-0.3-1.6-0.9-2.3-1.6c-0.8-0.8-1.3-1.5-1.6-2.3
			c-0.3-0.8-0.5-1.6-0.5-2.4c0-0.8,0.2-1.6,0.5-2.3c0.3-0.7,0.8-1.4,1.4-2c0.6-0.6,1.3-1.1,2-1.4c0.7-0.3,1.5-0.5,2.3-0.5
			c0.8,0,1.6,0.2,2.4,0.5C99.4,159.9,100.2,160.4,101,161.2z M94.2,167.9c0.4,0.4,0.9,0.8,1.3,1c0.5,0.2,0.9,0.4,1.4,0.4
			c0.4,0.1,0.9,0,1.3-0.2c0.4-0.2,0.8-0.4,1.2-0.8c0.4-0.4,0.6-0.8,0.8-1.2s0.2-0.9,0.2-1.3c-0.1-0.4-0.2-0.9-0.4-1.4
			c-0.2-0.5-0.6-0.9-1-1.3c-0.4-0.4-0.9-0.8-1.3-1c-0.5-0.2-0.9-0.4-1.4-0.4c-0.4-0.1-0.9,0-1.3,0.2c-0.4,0.2-0.8,0.4-1.2,0.8
			c-0.4,0.4-0.6,0.8-0.8,1.2c-0.1,0.4-0.2,0.9-0.1,1.3c0.1,0.4,0.2,0.9,0.4,1.4C93.5,167.1,93.8,167.5,94.2,167.9z"/>
		<path id="XMLID_143_" d="M111.2,156.4l1.7,1.7L107,164l-8.8-8.8l2-2l7.1,7.1L111.2,156.4z"/>
		<path id="XMLID_145_" d="M118.4,149.2l1.7,1.7l-5.9,5.9l-8.8-8.8l2-2l7.1,7.1L118.4,149.2z"/>
		<path id="XMLID_147_" d="M121.4,149.6l-8.8-8.8l6-6l1.7,1.7l-4,4l1.7,1.7l3.5-3.5l1.6,1.6l-3.5,3.5l2.1,2.1l4.3-4.3l1.7,1.7
			L121.4,149.6z"/>
		<path id="XMLID_149_" d="M133.3,138.1c-1.4,1.4-2.9,2.1-4.5,2.1c-1.5,0-3.1-0.8-4.5-2.3c-0.7-0.7-1.3-1.5-1.6-2.3
			c-0.3-0.8-0.5-1.6-0.5-2.4s0.2-1.6,0.5-2.3c0.3-0.8,0.8-1.5,1.5-2.1c0.4-0.4,0.7-0.7,1.1-0.9c0.4-0.3,0.7-0.5,1-0.6
			c0.3-0.2,0.6-0.3,0.8-0.3c0.2-0.1,0.4-0.1,0.5-0.2l1,2.2c-0.4,0.1-0.9,0.3-1.3,0.6c-0.5,0.3-0.9,0.6-1.4,1.1
			c-0.3,0.3-0.6,0.7-0.7,1c-0.2,0.4-0.3,0.8-0.3,1.3c0,0.5,0.1,0.9,0.3,1.4c0.2,0.5,0.6,1,1.1,1.5c0.4,0.4,0.8,0.7,1.3,1
			s0.9,0.4,1.3,0.5c0.5,0.1,0.9,0,1.4-0.2c0.5-0.2,0.9-0.5,1.4-0.9c0.3-0.3,0.5-0.6,0.7-0.8c0.2-0.3,0.4-0.5,0.5-0.7
			c0.1-0.2,0.2-0.4,0.3-0.6c0.1-0.2,0.1-0.4,0.2-0.5l2.1,1c-0.1,0.4-0.4,1-0.7,1.6C134.5,136.7,134,137.4,133.3,138.1z"/>
		<path id="XMLID_151_" d="M135.3,118l1.7,1.7l-2.7,2.7l7.1,7.1l-2,2l-7.1-7.1l-2.7,2.7l-1.7-1.7L135.3,118z"/>
		<path id="XMLID_153_" d="M136.6,116.8l2-2l8.8,8.8l-2,2L136.6,116.8z"/>
		<path id="XMLID_155_" d="M152.1,118.9c-1.1-0.4-2.2-0.8-3.3-1.3c-1.1-0.5-2.3-0.9-3.3-1.4c-1.1-0.5-2.1-0.9-3.1-1.4
			c-1-0.5-1.8-0.9-2.6-1.2l2.2-2.2c0.7,0.3,1.4,0.7,2.2,1.1c0.8,0.4,1.6,0.8,2.4,1.1s1.6,0.7,2.3,1.1c0.7,0.3,1.4,0.6,1.9,0.8
			c-0.2-0.6-0.5-1.2-0.8-1.9c-0.3-0.7-0.7-1.5-1.1-2.3c-0.4-0.8-0.8-1.6-1.1-2.4c-0.4-0.8-0.8-1.5-1.1-2.2l2.1-2.1
			c0.4,0.8,0.8,1.6,1.2,2.6c0.5,1,0.9,2,1.4,3.1c0.5,1.1,0.9,2.2,1.4,3.3c0.5,1.1,0.9,2.2,1.3,3.3L152.1,118.9z"/>
		<path id="XMLID_157_" d="M149.8,103.5l2-2l8.8,8.8l-2,2L149.8,103.5z"/>
		<path id="XMLID_159_" d="M163.5,104.4c0.3-0.3,0.5-0.5,0.6-0.8c0.1-0.2,0.2-0.4,0.2-0.6c0-0.2,0-0.4-0.1-0.5
			c-0.1-0.2-0.2-0.3-0.3-0.4c-0.3-0.3-0.7-0.4-1.1-0.3c-0.5,0.1-1.1,0.3-2,0.8c-0.4,0.2-0.8,0.4-1.2,0.5c-0.4,0.2-0.8,0.3-1.3,0.3
			c-0.4,0-0.9,0-1.3-0.2c-0.4-0.1-0.8-0.4-1.3-0.8c-0.4-0.4-0.7-0.9-0.9-1.3c-0.2-0.5-0.2-1-0.2-1.5c0.1-0.5,0.2-1,0.5-1.5
			c0.3-0.5,0.7-1,1.2-1.5c0.6-0.6,1.2-1,1.7-1.3c0.6-0.3,1.1-0.5,1.5-0.6l1,2.1c-0.4,0.1-0.8,0.3-1.2,0.5c-0.4,0.2-0.8,0.5-1.2,0.9
			c-0.5,0.5-0.8,0.9-0.8,1.2c-0.1,0.3,0,0.6,0.3,0.9c0.2,0.2,0.3,0.3,0.5,0.3c0.2,0,0.4,0,0.6,0c0.2-0.1,0.5-0.1,0.7-0.2
			c0.3-0.1,0.5-0.2,0.8-0.4c0.6-0.3,1.2-0.5,1.7-0.7c0.5-0.2,1-0.3,1.4-0.3c0.4,0,0.9,0.1,1.3,0.3c0.4,0.2,0.8,0.5,1.2,0.9
			c0.8,0.8,1.2,1.7,1.1,2.8c-0.1,1-0.8,2.1-1.9,3.3c-0.4,0.4-0.8,0.7-1.1,1c-0.4,0.3-0.7,0.5-1,0.7c-0.3,0.2-0.6,0.3-0.8,0.4
			c-0.3,0.1-0.5,0.2-0.7,0.2l-1-2.1c0.4-0.1,0.9-0.3,1.4-0.6C162.5,105.4,163,105,163.5,104.4z"/>
		<path id="XMLID_161_" d="M163.6,89.8c0.4,0.1,1,0.3,1.6,0.5s1.3,0.4,2,0.7c0.7,0.3,1.4,0.5,2.1,0.8c0.7,0.3,1.4,0.6,2,0.8
			c-0.3-0.6-0.5-1.3-0.8-2c-0.3-0.7-0.6-1.4-0.8-2.1c-0.3-0.7-0.5-1.3-0.7-2c-0.2-0.6-0.4-1.1-0.5-1.6l1.8-1.8
			c0.7,0.5,1.4,1.1,2.2,1.7c0.8,0.7,1.6,1.3,2.5,2.1c0.8,0.7,1.7,1.5,2.5,2.2c0.8,0.7,1.6,1.4,2.3,2.1l-1.9,1.9
			c-0.9-0.8-1.8-1.7-2.9-2.7c-1.1-1-2.1-1.9-3.2-2.9c0.2,0.5,0.4,1.1,0.7,1.7c0.2,0.6,0.5,1.2,0.7,1.9c0.2,0.6,0.5,1.2,0.7,1.8
			s0.4,1,0.6,1.4l-1.4,1.4c-0.4-0.2-0.9-0.4-1.4-0.6c-0.6-0.2-1.2-0.5-1.8-0.7c-0.6-0.2-1.2-0.5-1.9-0.7s-1.2-0.5-1.7-0.7
			c0.9,1.1,1.9,2.2,2.9,3.2c1,1.1,1.9,2,2.7,2.9l-1.9,1.9c-0.7-0.7-1.4-1.5-2.1-2.3c-0.7-0.8-1.5-1.7-2.2-2.5s-1.4-1.7-2.1-2.5
			c-0.7-0.8-1.2-1.5-1.7-2.2L163.6,89.8z"/>
	</g>
	<g id="XMLID_107_" class="st4">
		<path id="XMLID_109_" d="M319.9,414.7l2-2l8.8,8.8l-2,2L319.9,414.7z"/>
		<path id="XMLID_111_" d="M338.7,413.6c-1.6-0.4-3.2-0.8-4.8-1.1c-1.6-0.3-3.3-0.5-4.9-0.7l5.8,5.8l-2,2l-8.8-8.8l1.6-1.6
			c0.6,0,1.2,0,2,0.1c0.7,0.1,1.5,0.2,2.3,0.3s1.6,0.2,2.5,0.4c0.8,0.1,1.6,0.3,2.4,0.5l-5.2-5.2l2-2l8.8,8.8L338.7,413.6z"/>
		<path id="XMLID_113_" d="M345.7,397.8c0.8,0.8,1.3,1.5,1.6,2.4s0.5,1.6,0.4,2.4c-0.1,0.8-0.3,1.6-0.8,2.4
			c-0.4,0.8-1.1,1.6-1.8,2.4c-0.4,0.4-0.8,0.8-1.3,1.2s-1,0.9-1.6,1.2l-8.6-8.6c0.4-0.5,0.8-1.1,1.3-1.6c0.5-0.5,0.9-1,1.2-1.3
			c0.8-0.8,1.5-1.4,2.3-1.8c0.8-0.4,1.6-0.7,2.4-0.8c0.8-0.1,1.6,0.1,2.4,0.4C344.1,396.4,344.9,397,345.7,397.8z M342.7,406.3
			c0.1-0.1,0.2-0.2,0.3-0.3c0.1-0.1,0.3-0.3,0.4-0.4c1-1,1.5-2,1.5-3c0-1-0.5-1.9-1.4-2.8c-0.9-0.9-1.9-1.4-2.8-1.4
			c-0.9,0-1.9,0.5-2.9,1.5c-0.1,0.1-0.3,0.3-0.4,0.4c-0.1,0.1-0.3,0.3-0.4,0.4L342.7,406.3z"/>
		<path id="XMLID_116_" d="M342.9,391.7l2-2l8.8,8.8l-2,2L342.9,391.7z"/>
		<path id="XMLID_118_" d="M358.4,393.9c-1.1-0.4-2.2-0.8-3.3-1.3c-1.1-0.5-2.3-0.9-3.3-1.4c-1.1-0.5-2.1-0.9-3.1-1.4
			c-1-0.5-1.8-0.9-2.6-1.2l2.2-2.2c0.7,0.3,1.4,0.7,2.2,1.1c0.8,0.4,1.6,0.8,2.4,1.1c0.8,0.4,1.6,0.7,2.3,1.1
			c0.7,0.3,1.4,0.6,1.9,0.8c-0.2-0.6-0.5-1.2-0.8-1.9c-0.3-0.7-0.7-1.5-1.1-2.3c-0.4-0.8-0.8-1.6-1.1-2.4c-0.4-0.8-0.8-1.5-1.1-2.2
			l2.1-2.1c0.4,0.8,0.8,1.6,1.2,2.6c0.5,1,0.9,2,1.4,3.1c0.5,1.1,0.9,2.2,1.4,3.3c0.5,1.1,0.9,2.2,1.3,3.3L358.4,393.9z"/>
		<path id="XMLID_120_" d="M356.1,378.5l2-2l8.8,8.8l-2,2L356.1,378.5z"/>
		<path id="XMLID_122_" d="M372.3,371.2c0.8,0.8,1.3,1.5,1.6,2.4c0.3,0.8,0.5,1.6,0.4,2.4c-0.1,0.8-0.3,1.6-0.8,2.4
			c-0.4,0.8-1.1,1.6-1.8,2.4c-0.4,0.4-0.8,0.8-1.3,1.2c-0.5,0.4-1,0.9-1.6,1.2l-8.6-8.6c0.4-0.5,0.8-1.1,1.3-1.6
			c0.5-0.5,0.9-1,1.2-1.3c0.8-0.8,1.5-1.4,2.3-1.8c0.8-0.4,1.6-0.7,2.4-0.8c0.8-0.1,1.6,0.1,2.4,0.4
			C370.7,369.8,371.5,370.4,372.3,371.2z M369.3,379.7c0.1-0.1,0.2-0.2,0.3-0.3c0.1-0.1,0.3-0.3,0.4-0.4c1-1,1.5-2,1.5-3
			c0-1-0.5-1.9-1.4-2.8c-0.9-0.9-1.9-1.4-2.8-1.4c-0.9,0-1.9,0.5-2.9,1.5c-0.1,0.1-0.3,0.3-0.4,0.4c-0.1,0.1-0.3,0.3-0.4,0.4
			L369.3,379.7z"/>
		<path id="XMLID_125_" d="M382,370.7c-0.6,0.6-1.2,1.1-1.9,1.3c-0.6,0.3-1.2,0.4-1.8,0.4c-0.6,0-1.2-0.2-1.8-0.5
			c-0.6-0.3-1.1-0.7-1.6-1.2l-5.5-5.5l2-2l5.3,5.3c0.4,0.4,0.7,0.6,1,0.8c0.3,0.2,0.6,0.3,0.9,0.3c0.3,0,0.6,0,0.8-0.2
			c0.3-0.1,0.5-0.3,0.8-0.6c0.5-0.5,0.7-1,0.7-1.6c0-0.6-0.4-1.3-1.1-2l-5.3-5.3l2-2l5.5,5.5c0.5,0.5,0.9,1.1,1.2,1.6
			c0.3,0.6,0.4,1.2,0.5,1.8c0,0.6-0.1,1.2-0.4,1.9C383.1,369.4,382.6,370,382,370.7z"/>
		<path id="XMLID_127_" d="M393,359.3c-0.4-0.2-0.8-0.4-1.3-0.6c-0.4-0.2-0.9-0.4-1.3-0.6l-3.4,3.4c0.2,0.4,0.4,0.9,0.6,1.3
			c0.2,0.4,0.4,0.9,0.6,1.3l-2.1,2.1c-0.6-1.3-1.2-2.5-1.7-3.6c-0.5-1.1-1-2.2-1.4-3.2c-0.4-1-0.8-2-1.2-2.9c-0.4-0.9-0.7-1.8-1-2.7
			l1.9-1.9c0.9,0.3,1.8,0.7,2.7,1c0.9,0.4,1.9,0.8,2.9,1.2s2,0.9,3.2,1.4c1.1,0.5,2.3,1.1,3.6,1.7L393,359.3z M383.8,354.8
			c0.1,0.2,0.2,0.4,0.3,0.7c0.1,0.3,0.3,0.7,0.5,1.1c0.2,0.4,0.4,0.8,0.6,1.3c0.2,0.5,0.4,1,0.7,1.5l2.5-2.5c-0.5-0.2-1-0.5-1.5-0.7
			c-0.5-0.2-0.9-0.4-1.3-0.6c-0.4-0.2-0.8-0.3-1.1-0.5C384.2,355,384,354.9,383.8,354.8z"/>
		<path id="XMLID_130_" d="M400.5,348.4l1.7,1.7l-5.9,5.9l-8.8-8.8l2-2l7.1,7.1L400.5,348.4z"/>
		<path id="XMLID_132_" d="M394.6,340l2-2l8.8,8.8l-2,2L394.6,340z"/>
		<path id="XMLID_134_" d="M408.3,340.9c0.3-0.3,0.5-0.5,0.6-0.8c0.1-0.2,0.2-0.4,0.2-0.6c0-0.2,0-0.4-0.1-0.5s-0.2-0.3-0.3-0.4
			c-0.3-0.3-0.7-0.4-1.1-0.3c-0.5,0.1-1.1,0.3-2,0.8c-0.4,0.2-0.8,0.4-1.2,0.5c-0.4,0.2-0.8,0.3-1.3,0.3c-0.4,0-0.9,0-1.3-0.2
			c-0.4-0.1-0.8-0.4-1.3-0.8c-0.4-0.4-0.7-0.9-0.9-1.3c-0.2-0.5-0.2-1-0.2-1.5c0.1-0.5,0.2-1,0.5-1.5c0.3-0.5,0.7-1,1.2-1.5
			c0.6-0.6,1.2-1,1.7-1.3c0.6-0.3,1.1-0.5,1.5-0.6l1,2.1c-0.4,0.1-0.8,0.3-1.2,0.5c-0.4,0.2-0.8,0.5-1.2,0.9
			c-0.5,0.5-0.8,0.9-0.8,1.2c-0.1,0.3,0,0.6,0.3,0.9c0.2,0.2,0.3,0.3,0.5,0.3c0.2,0,0.4,0,0.6,0c0.2-0.1,0.5-0.1,0.7-0.2
			c0.3-0.1,0.5-0.2,0.8-0.4c0.6-0.3,1.2-0.5,1.7-0.7c0.5-0.2,1-0.3,1.4-0.3c0.4,0,0.9,0.1,1.3,0.3c0.4,0.2,0.8,0.5,1.2,0.9
			c0.8,0.8,1.2,1.8,1.1,2.8c-0.1,1-0.8,2.1-1.9,3.3c-0.4,0.4-0.8,0.7-1.1,1c-0.4,0.3-0.7,0.5-1,0.7c-0.3,0.2-0.6,0.3-0.8,0.4
			c-0.2,0.1-0.5,0.2-0.7,0.2l-1-2.1c0.4-0.1,0.9-0.3,1.4-0.6C407.3,341.9,407.8,341.5,408.3,340.9z"/>
		<path id="XMLID_136_" d="M408.4,326.3c0.4,0.1,1,0.3,1.6,0.5c0.6,0.2,1.3,0.4,2,0.7c0.7,0.3,1.4,0.5,2.1,0.8
			c0.7,0.3,1.4,0.6,2,0.8c-0.3-0.6-0.5-1.3-0.8-2s-0.6-1.4-0.8-2.1c-0.3-0.7-0.5-1.4-0.7-2c-0.2-0.6-0.4-1.1-0.5-1.6l1.8-1.8
			c0.7,0.5,1.4,1.1,2.2,1.7c0.8,0.7,1.6,1.3,2.5,2.1c0.8,0.7,1.7,1.5,2.5,2.2c0.8,0.7,1.6,1.4,2.3,2.1l-1.9,1.9
			c-0.9-0.8-1.9-1.7-2.9-2.7c-1.1-1-2.1-1.9-3.2-2.9c0.2,0.5,0.4,1.1,0.7,1.7c0.2,0.6,0.5,1.2,0.7,1.9c0.2,0.6,0.5,1.2,0.7,1.8
			c0.2,0.6,0.4,1,0.6,1.4l-1.4,1.4c-0.4-0.2-0.9-0.4-1.4-0.6c-0.6-0.2-1.2-0.5-1.8-0.7c-0.6-0.2-1.2-0.5-1.9-0.7
			c-0.6-0.2-1.2-0.5-1.7-0.7c0.9,1.1,1.9,2.2,2.9,3.2s1.9,2,2.7,2.9l-1.9,1.9c-0.7-0.7-1.4-1.5-2.1-2.3c-0.7-0.8-1.5-1.7-2.2-2.5
			c-0.7-0.8-1.4-1.7-2.1-2.5c-0.7-0.8-1.2-1.5-1.7-2.2L408.4,326.3z"/>
	</g>
</g>
</svg>
