<?xml version="1.0" encoding="utf-8"?>
<!-- Generator: Adobe Illustrator 19.0.0, SVG Export Plug-In . SVG Version: 6.00 Build 0)  -->
<svg version="1.1" id="Layer_1" xmlns="http://www.w3.org/2000/svg" xmlns:xlink="http://www.w3.org/1999/xlink" x="0px" y="0px"
	 viewBox="-109 353 393 88" style="enable-background:new -109 353 393 88;" xml:space="preserve">
<style type="text/css">
	.st0{fill:url(#XMLID_9_);stroke:#D3D3D3;stroke-width:2;stroke-miterlimit:10;}
	.st1{fill:url(#XMLID_11_);stroke:#D3D3D3;stroke-width:2;stroke-miterlimit:10;}
	.st2{fill:url(#XMLID_13_);stroke:#D3D3D3;stroke-width:2;stroke-miterlimit:10;}
	.st3{fill:url(#XMLID_14_);stroke:#D3D3D3;stroke-width:2;stroke-miterlimit:10;}
	.st4{fill:url(#XMLID_16_);stroke:#D3D3D3;stroke-width:2;stroke-miterlimit:10;}
	.st5{fill:url(#XMLID_18_);stroke:#D3D3D3;stroke-width:2;stroke-miterlimit:10;}
	.st6{fill:url(#XMLID_21_);stroke:#D3D3D3;stroke-width:2;stroke-miterlimit:10;}
	.st7{fill:url(#XMLID_22_);stroke:#D3D3D3;stroke-width:2;stroke-miterlimit:10;}
	.st8{fill:url(#XMLID_24_);stroke:#D3D3D3;stroke-width:2;stroke-miterlimit:10;}
</style>
<g id="XMLID_26_">
	<g id="XMLID_2_">
		
			<linearGradient id="XMLID_9_" gradientUnits="userSpaceOnUse" x1="-54.599" y1="414.6662" x2="-54.599" y2="359.4662" gradientTransform="matrix(1 0 0 -1 0 796)">
			<stop  offset="0" style="stop-color:#DBDBDB"/>
			<stop  offset="0.1995" style="stop-color:#D4D4D4"/>
			<stop  offset="0.5009" style="stop-color:#BFBFBF"/>
			<stop  offset="0.8651" style="stop-color:#9D9D9D"/>
			<stop  offset="1" style="stop-color:#8F8F8F"/>
		</linearGradient>
		<path id="XMLID_5_" class="st0" d="M-54.6,436.6L-54.6,436.6c-4.3,0-7.8-3.5-7.8-7.8v-39.6c0-4.3,3.5-7.8,7.8-7.8l0,0
			c4.3,0,7.8,3.5,7.8,7.8v39.6C-46.7,433.1-50.2,436.6-54.6,436.6z"/>
		
			<linearGradient id="XMLID_11_" gradientUnits="userSpaceOnUse" x1="-20.3679" y1="439.9837" x2="-20.3679" y2="358.6715" gradientTransform="matrix(1 0 0 -1 0 796)">
			<stop  offset="0" style="stop-color:#DBDBDB"/>
			<stop  offset="0.1995" style="stop-color:#D4D4D4"/>
			<stop  offset="0.5009" style="stop-color:#BFBFBF"/>
			<stop  offset="0.8651" style="stop-color:#9D9D9D"/>
			<stop  offset="1" style="stop-color:#8F8F8F"/>
		</linearGradient>
		<path id="XMLID_8_" class="st1" d="M-9.1,432.5c-0.5,3-3.3,5.1-6.3,4.8c-2.2-0.2-4.1-0.6-5.7-1.1c-2.8-0.9-5.1-2.2-6.7-3.8
			s-2.8-3.6-3.4-6c-0.6-2.3-0.9-5-0.9-7.9v-56c0-2.8,2.1-5.2,4.9-5.7l4.1-0.7c3.5-0.6,6.7,2.1,6.7,5.7v53.4c0,1.4,0.1,2.7,0.3,3.8
			c0.2,1.1,0.6,2.1,1.2,2.8c0.6,0.8,1.5,1.4,2.6,1.9l0,0c2.5,1.1,4,3.6,3.6,6.3L-9.1,432.5z"/>
		
			<linearGradient id="XMLID_13_" gradientUnits="userSpaceOnUse" x1="18.5822" y1="430.0685" x2="18.5822" y2="358.1561" gradientTransform="matrix(1 0 0 -1 0 796)">
			<stop  offset="0" style="stop-color:#DBDBDB"/>
			<stop  offset="0.1995" style="stop-color:#D4D4D4"/>
			<stop  offset="0.5009" style="stop-color:#BFBFBF"/>
			<stop  offset="0.8651" style="stop-color:#9D9D9D"/>
			<stop  offset="1" style="stop-color:#8F8F8F"/>
		</linearGradient>
		<path id="XMLID_10_" class="st2" d="M4.7,366.9l5.8-0.9c3-0.5,5.7,1.8,5.7,4.8v5.6c0,2.7,2.2,4.9,4.9,4.9h9c2.7,0,4.9,2.2,4.9,4.9
			v3.2c0,2.7-2.2,4.9-4.9,4.9h-9c-2.7,0-4.9,2.2-4.9,4.9v14.5c0,3.3,0.6,5.9,1.7,7.9c1.2,2,3.5,2.9,7,2.9c1.7,0,3.4-0.2,5.2-0.5
			c0,0,0,0,0.1,0c2.7-0.5,5.3,1.2,5.8,3.9l0.5,2.8c0.4,2.5-1.1,4.9-3.5,5.6c-0.7,0.2-1.4,0.4-2.1,0.5c-2.3,0.6-5.1,0.8-8.5,0.8
			c-4.3,0-7.8-0.6-10.6-1.7c-2.8-1.2-5-2.8-6.7-4.8c-1.7-2.1-2.9-4.6-3.5-7.5c-0.7-2.9-1-6.2-1-9.8v-42
			C0.6,369.3,2.4,367.3,4.7,366.9z"/>
		
			<linearGradient id="XMLID_14_" gradientUnits="userSpaceOnUse" x1="68.95" y1="416.1364" x2="68.95" y2="357.966" gradientTransform="matrix(1 0 0 -1 0 796)">
			<stop  offset="0" style="stop-color:#DBDBDB"/>
			<stop  offset="0.1995" style="stop-color:#D4D4D4"/>
			<stop  offset="0.5009" style="stop-color:#BFBFBF"/>
			<stop  offset="0.8651" style="stop-color:#9D9D9D"/>
			<stop  offset="1" style="stop-color:#8F8F8F"/>
		</linearGradient>
		<path id="XMLID_12_" class="st3" d="M43,409.4c0-4.9,0.8-9.2,2.3-12.9s3.5-6.7,5.9-9.2c2.4-2.4,5.3-4.3,8.5-5.6
			c3.2-1.3,6.5-1.9,9.8-1.9c7.8,0,14,2.4,18.6,7.2c4.5,4.8,6.8,11.8,6.8,21.2c0,0.9,0,1.9-0.1,3v0.1c-0.1,1.6-1.4,2.8-3,2.8H63.1
			c-2.4,0-3.8,2.6-2.5,4.6c0.7,1.2,1.7,2.2,3,3.1c2.7,1.9,6.2,2.8,10.7,2.8c2.9,0,5.7-0.3,8.5-0.8c1.3-0.2,2.5-0.5,3.6-0.8
			c1.7-0.5,3.5,0.6,3.7,2.4l1.1,6.9c0.2,1.4-0.6,2.8-2,3.3c-0.3,0.1-0.7,0.2-1,0.3c-1.4,0.4-3,0.8-4.7,1.1s-3.6,0.6-5.5,0.8
			c-2,0.2-3.9,0.3-5.9,0.3c-5,0-9.3-0.7-13-2.2s-6.7-3.5-9.1-6c-2.4-2.6-4.2-5.6-5.4-9.1C43.6,417.2,43,413.4,43,409.4z M76.3,403.4
			c2,0,3.4-1.9,2.9-3.8v-0.1c-0.4-1.3-1-2.4-1.8-3.4s-1.8-1.8-3-2.4c-1.2-0.6-2.7-0.9-4.6-0.9c-1.8,0-3.3,0.3-4.5,0.9
			c-1.3,0.6-2.3,1.4-3.1,2.4s-1.5,2.1-1.9,3.4l0,0c-0.7,1.9,0.8,3.9,2.8,3.9C63.1,403.4,76.3,403.4,76.3,403.4z"/>
		
			<linearGradient id="XMLID_16_" gradientUnits="userSpaceOnUse" x1="124.5911" y1="415.821" x2="124.5911" y2="359.4362" gradientTransform="matrix(1 0 0 -1 0 796)">
			<stop  offset="0" style="stop-color:#DBDBDB"/>
			<stop  offset="0.1995" style="stop-color:#D4D4D4"/>
			<stop  offset="0.5009" style="stop-color:#BFBFBF"/>
			<stop  offset="0.8651" style="stop-color:#9D9D9D"/>
			<stop  offset="1" style="stop-color:#8F8F8F"/>
		</linearGradient>
		<path id="XMLID_15_" class="st4" d="M140.9,392c-0.4,1.7-2.1,2.9-3.8,2.5c-0.6-0.1-1.2-0.2-1.8-0.4c-1.9-0.4-3.9-0.6-6.1-0.6
			c-1,0-2.2,0.1-3.5,0.3c-0.1,0-0.2,0-0.3,0c-1.6,0.2-2.8,1.6-2.8,3.2v36.4c0,1.8-1.4,3.2-3.2,3.2h-9.3c-1.8,0-3.2-1.4-3.2-3.2
			v-46.8c0-1.4,0.9-2.6,2.2-3c2.3-0.7,4.8-1.4,7.7-2c3.8-0.9,8.1-1.3,12.8-1.3c0.8,0,1.9,0.1,3,0.2c1.2,0.1,2.4,0.2,3.6,0.4
			c1.2,0.2,2.4,0.4,3.6,0.6l0,0c1.7,0.4,2.8,2.1,2.4,3.8L140.9,392z"/>
		
			<linearGradient id="XMLID_18_" gradientUnits="userSpaceOnUse" x1="159.1" y1="414.6662" x2="159.1" y2="359.4662" gradientTransform="matrix(1 0 0 -1 0 796)">
			<stop  offset="0" style="stop-color:#DBDBDB"/>
			<stop  offset="0.1995" style="stop-color:#D4D4D4"/>
			<stop  offset="0.5009" style="stop-color:#BFBFBF"/>
			<stop  offset="0.8651" style="stop-color:#9D9D9D"/>
			<stop  offset="1" style="stop-color:#8F8F8F"/>
		</linearGradient>
		<path id="XMLID_17_" class="st5" d="M159.1,436.6L159.1,436.6c-4.3,0-7.8-3.5-7.8-7.8v-39.6c0-4.3,3.5-7.8,7.8-7.8l0,0
			c4.3,0,7.8,3.5,7.8,7.8v39.6C166.9,433.1,163.4,436.6,159.1,436.6z"/>
		
			<linearGradient id="XMLID_21_" gradientUnits="userSpaceOnUse" x1="204.95" y1="416.1364" x2="204.95" y2="357.966" gradientTransform="matrix(1 0 0 -1 0 796)">
			<stop  offset="0" style="stop-color:#DBDBDB"/>
			<stop  offset="0.1995" style="stop-color:#D4D4D4"/>
			<stop  offset="0.5009" style="stop-color:#BFBFBF"/>
			<stop  offset="0.8651" style="stop-color:#9D9D9D"/>
			<stop  offset="1" style="stop-color:#8F8F8F"/>
		</linearGradient>
		<path id="XMLID_20_" class="st6" d="M179,409.4c0-4.9,0.8-9.2,2.3-12.9s3.5-6.7,5.9-9.2c2.4-2.4,5.3-4.3,8.5-5.6
			c3.2-1.3,6.5-1.9,9.8-1.9c7.8,0,14,2.4,18.6,7.2c4.5,4.8,6.8,11.8,6.8,21.2c0,0.9,0,1.9-0.1,3v0.1c-0.1,1.6-1.4,2.8-3,2.8h-28.7
			c-2.4,0-3.8,2.6-2.5,4.6c0.7,1.2,1.7,2.2,3,3.1c2.7,1.9,6.2,2.8,10.7,2.8c2.9,0,5.7-0.3,8.5-0.8c1.3-0.2,2.5-0.5,3.6-0.8
			c1.7-0.5,3.5,0.6,3.7,2.4l1.1,6.9c0.2,1.4-0.6,2.8-2,3.3c-0.3,0.1-0.7,0.2-1,0.3c-1.4,0.4-3,0.8-4.7,1.1s-3.6,0.6-5.5,0.8
			c-2,0.2-3.9,0.3-5.9,0.3c-5,0-9.3-0.7-13-2.2s-6.7-3.5-9.1-6c-2.4-2.6-4.2-5.6-5.4-9.1C179.6,417.2,179,413.4,179,409.4z
			 M212.2,403.4c2,0,3.4-1.9,2.9-3.8v-0.1c-0.4-1.3-1-2.4-1.8-3.4s-1.8-1.8-3-2.4c-1.2-0.6-2.7-0.9-4.6-0.9c-1.8,0-3.3,0.3-4.5,0.9
			c-1.3,0.6-2.3,1.4-3.1,2.4c-0.8,1-1.5,2.1-1.9,3.4l0,0c-0.7,1.9,0.8,3.9,2.8,3.9C199,403.4,212.2,403.4,212.2,403.4z"/>
		
			<linearGradient id="XMLID_22_" gradientUnits="userSpaceOnUse" x1="261.4775" y1="416.1" x2="261.4775" y2="357.9296" gradientTransform="matrix(1 0 0 -1 0 796)">
			<stop  offset="0" style="stop-color:#DBDBDB"/>
			<stop  offset="0.1995" style="stop-color:#D4D4D4"/>
			<stop  offset="0.5009" style="stop-color:#BFBFBF"/>
			<stop  offset="0.8651" style="stop-color:#9D9D9D"/>
			<stop  offset="1" style="stop-color:#8F8F8F"/>
		</linearGradient>
		<path id="XMLID_23_" class="st7" d="M258.8,425.3c2.9,0,4.9-0.3,6.1-0.8c1.2-0.6,1.8-1.6,1.8-3.3c0-1.3-0.8-2.4-2.3-3.3
			s-3.9-2-7-3.2c-2.5-0.9-4.7-1.9-6.7-2.8c-2-1-3.7-2.2-5.1-3.5c-1.4-1.4-2.5-3-3.3-4.9c-0.8-1.9-1.2-4.2-1.2-6.8
			c0-5.2,1.9-9.3,5.8-12.3c3.8-3,9.1-4.5,15.9-4.5c3.4,0,6.6,0.3,9.7,0.9c0.5,0.1,1,0.2,1.5,0.3c3.3,0.7,5.3,4,4.6,7.2l-0.1,0.4
			c-0.7,3.3-4,5.3-7.3,4.5c0,0,0,0-0.1,0c-2.1-0.5-4.5-0.7-7.2-0.7c-4.9,0-7.3,1.4-7.3,4.1c0,0.6,0.1,1.2,0.3,1.7
			c0.2,0.5,0.6,1,1.3,1.4c0.6,0.5,1.5,0.9,2.6,1.5c1.1,0.5,2.5,1.1,4.1,1.7c3.4,1.3,6.3,2.5,8.5,3.8c2.2,1.2,4,2.6,5.3,4
			c1.3,1.4,2.2,3,2.7,4.8c0.5,1.7,0.8,3.8,0.8,6.1c0,5.4-2,9.6-6.1,12.4c-4.1,2.8-9.9,4.2-17.4,4.2c-4.9,0-9-0.4-12.2-1.3
			c-0.5-0.1-0.9-0.2-1.3-0.4c-3.1-0.8-5-3.9-4.3-7.1l0.2-0.8c0.7-3.4,4.1-5.5,7.5-4.6c0.7,0.2,1.4,0.3,2.1,0.5
			C253.3,425,256.1,425.3,258.8,425.3z"/>
	</g>
	<g id="XMLID_7_">
		
			<linearGradient id="XMLID_24_" gradientUnits="userSpaceOnUse" x1="-88.0485" y1="440" x2="-88.0485" y2="358.5205" gradientTransform="matrix(1 0 0 -1 0 796)">
			<stop  offset="0" style="stop-color:#DBDBDB"/>
			<stop  offset="0.1995" style="stop-color:#D4D4D4"/>
			<stop  offset="0.5009" style="stop-color:#BFBFBF"/>
			<stop  offset="0.8651" style="stop-color:#9D9D9D"/>
			<stop  offset="1" style="stop-color:#8F8F8F"/>
		</linearGradient>
		<path id="XMLID_19_" class="st8" d="M-82.7,356c2.9,0,5.6,0.3,8.1,0.9c1.2,0.3,2.3,0.6,3.2,0.9c1.4,0.4,2.2,1.8,1.8,3.3
			c-0.5,2-1.2,5-1.7,7.2c-0.4,1.5-1.9,2.4-3.4,2c-0.6-0.2-1.3-0.3-1.9-0.5c-1.6-0.3-3.2-0.5-4.6-0.5c-1.9,0-3.5,0.3-4.8,0.8
			c-1.3,0.5-2.3,1.2-3,2.2c-0.7,0.9-1.3,2-1.6,3.3c-0.2,1.1-0.4,2.4-0.4,3.9l0,0c0,1.5,1.2,2.7,2.7,2.7h13.9c1.5,0,2.7,1.2,2.7,2.7
			v7.6c0,1.5-1.2,2.7-2.7,2.7h-13.8c-1.5,0-2.7,1.2-2.7,2.7v36.7c0,1.5-1.2,2.7-2.7,2.7h-10.3c-1.5,0-2.7-1.2-2.7-2.7v-55.3
			c0-7.1,2-12.8,6-17C-96.5,358.1-90.6,356-82.7,356z"/>
	</g>
</g>
<g id="XMLID_1_">
</g>
<g id="XMLID_3_">
</g>
<g id="XMLID_4_">
</g>
<g id="XMLID_27_">
</g>
<g id="XMLID_28_">
</g>
<g id="XMLID_29_">
</g>
</svg>
