<?xml version="1.0" encoding="utf-8"?>
<!-- Generator: Adobe Illustrator 19.0.0, SVG Export Plug-In . SVG Version: 6.00 Build 0)  -->
<svg version="1.1" id="Layer_1" xmlns="http://www.w3.org/2000/svg" xmlns:xlink="http://www.w3.org/1999/xlink" x="0px" y="0px"
	 viewBox="0 0 500 500" style="enable-background:new 0 0 500 500;" xml:space="preserve">
<style type="text/css">
	.st0{display:none;}
	.st1{display:inline;fill:#FFFFFF;stroke:#000000;stroke-miterlimit:10;}
	.st2{display:inline;opacity:0.25;fill:none;stroke:#000000;stroke-miterlimit:10;enable-background:new    ;}
	.st3{display:inline;opacity:0.25;enable-background:new    ;}
	.st4{display:inline;opacity:0.5;}
	.st5{fill:none;stroke:#000000;stroke-miterlimit:10;}
	.st6{display:inline;opacity:0.5;fill:none;stroke:#000000;stroke-miterlimit:10;enable-background:new    ;}
	.st7{display:inline;fill:#9B9A9A;}
	.st8{display:inline;fill:#45B649;}
	.st9{display:inline;fill:#B05B46;}
	.st10{display:inline;fill:#5586A3;}
	.st11{display:inline;fill:#884B9D;}
	.st12{display:inline;fill:#B5B547;}
	.st13{display:inline;fill:#B28746;}
	.st14{display:inline;fill:#6C56A4;}
	.st15{display:inline;fill:#AE458A;}
	.st16{display:inline;fill:#D34B2E;}
	.st17{display:inline;fill:#BB4C9C;}
	.st18{display:inline;fill:#884A9D;}
	.st19{display:inline;fill:#7766AD;}
	.st20{display:inline;fill:#3181A0;}
	.st21{display:inline;}
	.st22{fill:url(#XMLID_35_);}
	.st23{fill:url(#XMLID_36_);}
	.st24{display:inline;fill:#898584;}
	.st25{display:inline;fill:#E79A24;stroke:#000000;stroke-miterlimit:10;}
	.st26{display:inline;fill:#895BA6;stroke:#000000;stroke-miterlimit:10;}
	.st27{display:inline;fill:#8479B8;stroke:#000000;stroke-miterlimit:10;}
	.st28{display:inline;fill:#7B9BD0;stroke:#000000;stroke-miterlimit:10;}
	.st29{display:inline;fill:#45B649;stroke:#000000;stroke-miterlimit:10;}
	.st30{display:inline;fill:#CE2C27;stroke:#000000;stroke-miterlimit:10;}
	.st31{display:inline;fill:#EF498C;stroke:#000000;stroke-miterlimit:10;}
	.st32{display:inline;fill:#A3A5A8;stroke:#000000;stroke-miterlimit:10;}
	.st33{display:inline;fill:#F7EC27;stroke:#000000;stroke-miterlimit:10;}
	.st34{display:inline;fill:none;}
	.st35{font-family:'Ubuntu-Bold';}
	.st36{font-size:19px;}
	.st37{opacity:0.5;}
</style>
<g id="template" class="st0">
	<polygon id="XMLID_1_" class="st1" points="167.2,450 50,332.8 50,167.2 167.2,50 332.8,50 450,167.2 450,332.8 332.8,450 	"/>
</g>
<g id="template_copy_2" class="st0">
	<polygon id="XMLID_241_" class="st1" points="167.2,450 50,332.8 50,167.2 167.2,50 332.8,50 450,167.2 450,332.8 332.8,450 	"/>
</g>
<g id="lines3" class="st0">
	<path id="XMLID_265_" class="st2" d="M150,70"/>
	<polygon id="XMLID_648_" class="st3" points="170.5,70.5 150,70.5 150,69.5 169.5,69.5 169.5,50 170.5,50 	"/>
	<path id="XMLID_649_" class="st3" d="M190.5,70.5h-21v-21h21V70.5z M170.5,69.5h19v-19h-19V69.5z"/>
	<path id="XMLID_650_" class="st3" d="M210.5,70.5h-21v-21h21V70.5z M190.5,69.5h19v-19h-19V69.5z"/>
	<path id="XMLID_651_" class="st3" d="M230.5,70.5h-21v-21h21V70.5z M210.5,69.5h19v-19h-19V69.5z"/>
	<path id="XMLID_652_" class="st3" d="M250.5,70.5h-21v-21h21V70.5z M230.5,69.5h19v-19h-19V69.5z"/>
	<path id="XMLID_653_" class="st3" d="M270.5,70.5h-21v-21h21V70.5z M250.5,69.5h19v-19h-19V69.5z"/>
	<path id="XMLID_654_" class="st3" d="M290.5,70.5h-21v-21h21V70.5z M270.5,69.5h19v-19h-19V69.5z"/>
	<path id="XMLID_655_" class="st3" d="M310.5,70.5h-21v-21h21V70.5z M290.5,69.5h19v-19h-19V69.5z"/>
	<path id="XMLID_272_" class="st3" d="M330.5,70.5h-21v-21h21V70.5z M310.5,69.5h19v-19h-19V69.5z"/>
	<polygon id="XMLID_243_" class="st3" points="350,70.5 329.5,70.5 329.5,50 330.5,50 330.5,69.5 350,69.5 	"/>
	<path id="XMLID_276_" class="st2" d="M350,70"/>
	<path id="XMLID_263_" class="st2" d="M130,90"/>
	<polygon id="XMLID_667_" class="st3" points="150.5,90.5 130,90.5 130,89.5 149.5,89.5 149.5,70 150.5,70 	"/>
	<path id="XMLID_668_" class="st3" d="M170.5,90.5h-21v-21h21V90.5z M150.5,89.5h19v-19h-19V89.5z"/>
	<path id="XMLID_669_" class="st3" d="M190.5,90.5h-21v-21h21V90.5z M170.5,89.5h19v-19h-19V89.5z"/>
	<path id="XMLID_670_" class="st3" d="M210.5,90.5h-21v-21h21V90.5z M190.5,89.5h19v-19h-19V89.5z"/>
	<path id="XMLID_671_" class="st3" d="M230.5,90.5h-21v-21h21V90.5z M210.5,89.5h19v-19h-19V89.5z"/>
	<path id="XMLID_672_" class="st3" d="M250.5,90.5h-21v-21h21V90.5z M230.5,89.5h19v-19h-19V89.5z"/>
	<path id="XMLID_673_" class="st3" d="M270.5,90.5h-21v-21h21V90.5z M250.5,89.5h19v-19h-19V89.5z"/>
	<path id="XMLID_674_" class="st3" d="M290.5,90.5h-21v-21h21V90.5z M270.5,89.5h19v-19h-19V89.5z"/>
	<path id="XMLID_675_" class="st3" d="M310.5,90.5h-21v-21h21V90.5z M290.5,89.5h19v-19h-19V89.5z"/>
	<path id="XMLID_676_" class="st3" d="M330.5,90.5h-21v-21h21V90.5z M310.5,89.5h19v-19h-19V89.5z"/>
	<path id="XMLID_275_" class="st3" d="M350.5,90.5h-21v-21h21V90.5z M330.5,89.5h19v-19h-19V89.5z"/>
	<polygon id="XMLID_259_" class="st3" points="370,90.5 349.5,90.5 349.5,70 350.5,70 350.5,89.5 370,89.5 	"/>
	<path id="XMLID_271_" class="st2" d="M370,90"/>
	<path id="XMLID_260_" class="st2" d="M110,110"/>
	<polygon id="XMLID_686_" class="st3" points="130.5,110.5 110,110.5 110,109.5 129.5,109.5 129.5,90 130.5,90 	"/>
	<path id="XMLID_687_" class="st3" d="M150.5,110.5h-21v-21h21V110.5z M130.5,109.5h19v-19h-19V109.5z"/>
	<path id="XMLID_688_" class="st3" d="M170.5,110.5h-21v-21h21V110.5z M150.5,109.5h19v-19h-19V109.5z"/>
	<path id="XMLID_689_" class="st3" d="M190.5,110.5h-21v-21h21V110.5z M170.5,109.5h19v-19h-19V109.5z"/>
	<path id="XMLID_690_" class="st3" d="M210.5,110.5h-21v-21h21V110.5z M190.5,109.5h19v-19h-19V109.5z"/>
	<path id="XMLID_691_" class="st3" d="M230.5,110.5h-21v-21h21V110.5z M210.5,109.5h19v-19h-19V109.5z"/>
	<path id="XMLID_692_" class="st3" d="M250.5,110.5h-21v-21h21V110.5z M230.5,109.5h19v-19h-19V109.5z"/>
	<path id="XMLID_693_" class="st3" d="M270.5,110.5h-21v-21h21V110.5z M250.5,109.5h19v-19h-19V109.5z"/>
	<path id="XMLID_694_" class="st3" d="M290.5,110.5h-21v-21h21V110.5z M270.5,109.5h19v-19h-19V109.5z"/>
	<path id="XMLID_695_" class="st3" d="M310.5,110.5h-21v-21h21V110.5z M290.5,109.5h19v-19h-19V109.5z"/>
	<path id="XMLID_696_" class="st3" d="M330.5,110.5h-21v-21h21V110.5z M310.5,109.5h19v-19h-19V109.5z"/>
	<path id="XMLID_697_" class="st3" d="M350.5,110.5h-21v-21h21V110.5z M330.5,109.5h19v-19h-19V109.5z"/>
	<path id="XMLID_268_" class="st3" d="M370.5,110.5h-21v-21h21V110.5z M350.5,109.5h19v-19h-19V109.5z"/>
	<polygon id="XMLID_254_" class="st3" points="390,110.5 369.5,110.5 369.5,90 370.5,90 370.5,109.5 390,109.5 	"/>
	<path id="XMLID_274_" class="st2" d="M390,110"/>
	<path id="XMLID_262_" class="st2" d="M90,130"/>
	<polygon id="XMLID_705_" class="st3" points="110.5,130.5 90,130.5 90,129.5 109.5,129.5 109.5,110 110.5,110 	"/>
	<path id="XMLID_706_" class="st3" d="M130.5,130.5h-21v-21h21V130.5z M110.5,129.5h19v-19h-19V129.5z"/>
	<path id="XMLID_707_" class="st3" d="M150.5,130.5h-21v-21h21V130.5z M130.5,129.5h19v-19h-19V129.5z"/>
	<path id="XMLID_708_" class="st3" d="M170.5,130.5h-21v-21h21V130.5z M150.5,129.5h19v-19h-19V129.5z"/>
	<path id="XMLID_709_" class="st3" d="M190.5,130.5h-21v-21h21V130.5z M170.5,129.5h19v-19h-19V129.5z"/>
	<path id="XMLID_710_" class="st3" d="M210.5,130.5h-21v-21h21V130.5z M190.5,129.5h19v-19h-19V129.5z"/>
	<path id="XMLID_711_" class="st3" d="M230.5,130.5h-21v-21h21V130.5z M210.5,129.5h19v-19h-19V129.5z"/>
	<path id="XMLID_712_" class="st3" d="M250.5,130.5h-21v-21h21V130.5z M230.5,129.5h19v-19h-19V129.5z"/>
	<path id="XMLID_713_" class="st3" d="M270.5,130.5h-21v-21h21V130.5z M250.5,129.5h19v-19h-19V129.5z"/>
	<path id="XMLID_714_" class="st3" d="M290.5,130.5h-21v-21h21V130.5z M270.5,129.5h19v-19h-19V129.5z"/>
	<path id="XMLID_715_" class="st3" d="M310.5,130.5h-21v-21h21V130.5z M290.5,129.5h19v-19h-19V129.5z"/>
	<path id="XMLID_716_" class="st3" d="M330.5,130.5h-21v-21h21V130.5z M310.5,129.5h19v-19h-19V129.5z"/>
	<path id="XMLID_717_" class="st3" d="M350.5,130.5h-21v-21h21V130.5z M330.5,129.5h19v-19h-19V129.5z"/>
	<path id="XMLID_718_" class="st3" d="M370.5,130.5h-21v-21h21V130.5z M350.5,129.5h19v-19h-19V129.5z"/>
	<path id="XMLID_273_" class="st3" d="M390.5,130.5h-21v-21h21V130.5z M370.5,129.5h19v-19h-19V129.5z"/>
	<polygon id="XMLID_257_" class="st3" points="410,130.5 389.5,130.5 389.5,110 390.5,110 390.5,129.5 410,129.5 	"/>
	<path id="XMLID_267_" class="st2" d="M410,130"/>
	<path id="XMLID_258_" class="st2" d="M70,150"/>
	<polygon id="XMLID_724_" class="st3" points="90.5,150.5 70,150.5 70,149.5 89.5,149.5 89.5,130 90.5,130 	"/>
	<path id="XMLID_725_" class="st3" d="M110.5,150.5h-21v-21h21V150.5z M90.5,149.5h19v-19h-19V149.5z"/>
	<path id="XMLID_726_" class="st3" d="M130.5,150.5h-21v-21h21V150.5z M110.5,149.5h19v-19h-19V149.5z"/>
	<path id="XMLID_727_" class="st3" d="M150.5,150.5h-21v-21h21V150.5z M130.5,149.5h19v-19h-19V149.5z"/>
	<path id="XMLID_728_" class="st3" d="M170.5,150.5h-21v-21h21V150.5z M150.5,149.5h19v-19h-19V149.5z"/>
	<path id="XMLID_729_" class="st3" d="M190.5,150.5h-21v-21h21V150.5z M170.5,149.5h19v-19h-19V149.5z"/>
	<path id="XMLID_730_" class="st3" d="M210.5,150.5h-21v-21h21V150.5z M190.5,149.5h19v-19h-19V149.5z"/>
	<path id="XMLID_731_" class="st3" d="M230.5,150.5h-21v-21h21V150.5z M210.5,149.5h19v-19h-19V149.5z"/>
	<path id="XMLID_732_" class="st3" d="M250.5,150.5h-21v-21h21V150.5z M230.5,149.5h19v-19h-19V149.5z"/>
	<path id="XMLID_733_" class="st3" d="M270.5,150.5h-21v-21h21V150.5z M250.5,149.5h19v-19h-19V149.5z"/>
	<path id="XMLID_734_" class="st3" d="M290.5,150.5h-21v-21h21V150.5z M270.5,149.5h19v-19h-19V149.5z"/>
	<path id="XMLID_735_" class="st3" d="M310.5,150.5h-21v-21h21V150.5z M290.5,149.5h19v-19h-19V149.5z"/>
	<path id="XMLID_736_" class="st3" d="M330.5,150.5h-21v-21h21V150.5z M310.5,149.5h19v-19h-19V149.5z"/>
	<path id="XMLID_737_" class="st3" d="M350.5,150.5h-21v-21h21V150.5z M330.5,149.5h19v-19h-19V149.5z"/>
	<path id="XMLID_738_" class="st3" d="M370.5,150.5h-21v-21h21V150.5z M350.5,149.5h19v-19h-19V149.5z"/>
	<path id="XMLID_739_" class="st3" d="M390.5,150.5h-21v-21h21V150.5z M370.5,149.5h19v-19h-19V149.5z"/>
	<path id="XMLID_266_" class="st3" d="M410.5,150.5h-21v-21h21V150.5z M390.5,149.5h19v-19h-19V149.5z"/>
	<polygon id="XMLID_245_" class="st3" points="430,150.5 409.5,150.5 409.5,130 410.5,130 410.5,149.5 430,149.5 	"/>
	<path id="XMLID_270_" class="st2" d="M430,150"/>
	<polygon id="XMLID_743_" class="st3" points="70.5,170.5 50,170.5 50,169.5 69.5,169.5 69.5,150 70.5,150 	"/>
	<path id="XMLID_744_" class="st3" d="M90.5,170.5h-21v-21h21V170.5z M70.5,169.5h19v-19h-19V169.5z"/>
	<path id="XMLID_745_" class="st3" d="M110.5,170.5h-21v-21h21V170.5z M90.5,169.5h19v-19h-19V169.5z"/>
	<path id="XMLID_746_" class="st3" d="M130.5,170.5h-21v-21h21V170.5z M110.5,169.5h19v-19h-19V169.5z"/>
	<path id="XMLID_747_" class="st3" d="M150.5,170.5h-21v-21h21V170.5z M130.5,169.5h19v-19h-19V169.5z"/>
	<path id="XMLID_748_" class="st3" d="M170.5,170.5h-21v-21h21V170.5z M150.5,169.5h19v-19h-19V169.5z"/>
	<path id="XMLID_749_" class="st3" d="M190.5,170.5h-21v-21h21V170.5z M170.5,169.5h19v-19h-19V169.5z"/>
	<path id="XMLID_750_" class="st3" d="M210.5,170.5h-21v-21h21V170.5z M190.5,169.5h19v-19h-19V169.5z"/>
	<path id="XMLID_751_" class="st3" d="M230.5,170.5h-21v-21h21V170.5z M210.5,169.5h19v-19h-19V169.5z"/>
	<path id="XMLID_752_" class="st3" d="M250.5,170.5h-21v-21h21V170.5z M230.5,169.5h19v-19h-19V169.5z"/>
	<path id="XMLID_753_" class="st3" d="M270.5,170.5h-21v-21h21V170.5z M250.5,169.5h19v-19h-19V169.5z"/>
	<path id="XMLID_754_" class="st3" d="M290.5,170.5h-21v-21h21V170.5z M270.5,169.5h19v-19h-19V169.5z"/>
	<path id="XMLID_755_" class="st3" d="M310.5,170.5h-21v-21h21V170.5z M290.5,169.5h19v-19h-19V169.5z"/>
	<path id="XMLID_756_" class="st3" d="M330.5,170.5h-21v-21h21V170.5z M310.5,169.5h19v-19h-19V169.5z"/>
	<path id="XMLID_757_" class="st3" d="M350.5,170.5h-21v-21h21V170.5z M330.5,169.5h19v-19h-19V169.5z"/>
	<path id="XMLID_758_" class="st3" d="M370.5,170.5h-21v-21h21V170.5z M350.5,169.5h19v-19h-19V169.5z"/>
	<path id="XMLID_759_" class="st3" d="M390.5,170.5h-21v-21h21V170.5z M370.5,169.5h19v-19h-19V169.5z"/>
	<path id="XMLID_760_" class="st3" d="M410.5,170.5h-21v-21h21V170.5z M390.5,169.5h19v-19h-19V169.5z"/>
	<path id="XMLID_269_" class="st3" d="M430.5,170.5h-21v-21h21V170.5z M410.5,169.5h19v-19h-19V169.5z"/>
	<polygon id="XMLID_762_" class="st3" points="450,170.5 429.5,170.5 429.5,150 430.5,150 430.5,169.5 450,169.5 	"/>
	<path id="XMLID_763_" class="st3" d="M70.5,190.5h-21v-21h21V190.5z M50.5,189.5h19v-19h-19V189.5z"/>
	<path id="XMLID_764_" class="st3" d="M90.5,190.5h-21v-21h21V190.5z M70.5,189.5h19v-19h-19V189.5z"/>
	<path id="XMLID_765_" class="st3" d="M110.5,190.5h-21v-21h21V190.5z M90.5,189.5h19v-19h-19V189.5z"/>
	<path id="XMLID_766_" class="st3" d="M130.5,190.5h-21v-21h21V190.5z M110.5,189.5h19v-19h-19V189.5z"/>
	<path id="XMLID_767_" class="st3" d="M150.5,190.5h-21v-21h21V190.5z M130.5,189.5h19v-19h-19V189.5z"/>
	<path id="XMLID_768_" class="st3" d="M170.5,190.5h-21v-21h21V190.5z M150.5,189.5h19v-19h-19V189.5z"/>
	<path id="XMLID_769_" class="st3" d="M190.5,190.5h-21v-21h21V190.5z M170.5,189.5h19v-19h-19V189.5z"/>
	<path id="XMLID_770_" class="st3" d="M210.5,190.5h-21v-21h21V190.5z M190.5,189.5h19v-19h-19V189.5z"/>
	<path id="XMLID_771_" class="st3" d="M230.5,190.5h-21v-21h21V190.5z M210.5,189.5h19v-19h-19V189.5z"/>
	<path id="XMLID_772_" class="st3" d="M250.5,190.5h-21v-21h21V190.5z M230.5,189.5h19v-19h-19V189.5z"/>
	<path id="XMLID_773_" class="st3" d="M270.5,190.5h-21v-21h21V190.5z M250.5,189.5h19v-19h-19V189.5z"/>
	<path id="XMLID_774_" class="st3" d="M290.5,190.5h-21v-21h21V190.5z M270.5,189.5h19v-19h-19V189.5z"/>
	<path id="XMLID_775_" class="st3" d="M310.5,190.5h-21v-21h21V190.5z M290.5,189.5h19v-19h-19V189.5z"/>
	<path id="XMLID_776_" class="st3" d="M330.5,190.5h-21v-21h21V190.5z M310.5,189.5h19v-19h-19V189.5z"/>
	<path id="XMLID_777_" class="st3" d="M350.5,190.5h-21v-21h21V190.5z M330.5,189.5h19v-19h-19V189.5z"/>
	<path id="XMLID_778_" class="st3" d="M370.5,190.5h-21v-21h21V190.5z M350.5,189.5h19v-19h-19V189.5z"/>
	<path id="XMLID_779_" class="st3" d="M390.5,190.5h-21v-21h21V190.5z M370.5,189.5h19v-19h-19V189.5z"/>
	<path id="XMLID_780_" class="st3" d="M410.5,190.5h-21v-21h21V190.5z M390.5,189.5h19v-19h-19V189.5z"/>
	<path id="XMLID_781_" class="st3" d="M430.5,190.5h-21v-21h21V190.5z M410.5,189.5h19v-19h-19V189.5z"/>
	<path id="XMLID_782_" class="st3" d="M450.5,190.5h-21v-21h21V190.5z M430.5,189.5h19v-19h-19V189.5z"/>
	<path id="XMLID_783_" class="st3" d="M70.5,210.5h-21v-21h21V210.5z M50.5,209.5h19v-19h-19V209.5z"/>
	<path id="XMLID_784_" class="st3" d="M90.5,210.5h-21v-21h21V210.5z M70.5,209.5h19v-19h-19V209.5z"/>
	<path id="XMLID_785_" class="st3" d="M110.5,210.5h-21v-21h21V210.5z M90.5,209.5h19v-19h-19V209.5z"/>
	<path id="XMLID_786_" class="st3" d="M130.5,210.5h-21v-21h21V210.5z M110.5,209.5h19v-19h-19V209.5z"/>
	<path id="XMLID_787_" class="st3" d="M150.5,210.5h-21v-21h21V210.5z M130.5,209.5h19v-19h-19V209.5z"/>
	<path id="XMLID_788_" class="st3" d="M170.5,210.5h-21v-21h21V210.5z M150.5,209.5h19v-19h-19V209.5z"/>
	<path id="XMLID_789_" class="st3" d="M190.5,210.5h-21v-21h21V210.5z M170.5,209.5h19v-19h-19V209.5z"/>
	<path id="XMLID_790_" class="st3" d="M210.5,210.5h-21v-21h21V210.5z M190.5,209.5h19v-19h-19V209.5z"/>
	<path id="XMLID_791_" class="st3" d="M230.5,210.5h-21v-21h21V210.5z M210.5,209.5h19v-19h-19V209.5z"/>
	<path id="XMLID_792_" class="st3" d="M250.5,210.5h-21v-21h21V210.5z M230.5,209.5h19v-19h-19V209.5z"/>
	<path id="XMLID_793_" class="st3" d="M270.5,210.5h-21v-21h21V210.5z M250.5,209.5h19v-19h-19V209.5z"/>
	<path id="XMLID_794_" class="st3" d="M290.5,210.5h-21v-21h21V210.5z M270.5,209.5h19v-19h-19V209.5z"/>
	<path id="XMLID_795_" class="st3" d="M310.5,210.5h-21v-21h21V210.5z M290.5,209.5h19v-19h-19V209.5z"/>
	<path id="XMLID_796_" class="st3" d="M330.5,210.5h-21v-21h21V210.5z M310.5,209.5h19v-19h-19V209.5z"/>
	<path id="XMLID_797_" class="st3" d="M350.5,210.5h-21v-21h21V210.5z M330.5,209.5h19v-19h-19V209.5z"/>
	<path id="XMLID_798_" class="st3" d="M370.5,210.5h-21v-21h21V210.5z M350.5,209.5h19v-19h-19V209.5z"/>
	<path id="XMLID_799_" class="st3" d="M390.5,210.5h-21v-21h21V210.5z M370.5,209.5h19v-19h-19V209.5z"/>
	<path id="XMLID_800_" class="st3" d="M410.5,210.5h-21v-21h21V210.5z M390.5,209.5h19v-19h-19V209.5z"/>
	<path id="XMLID_801_" class="st3" d="M430.5,210.5h-21v-21h21V210.5z M410.5,209.5h19v-19h-19V209.5z"/>
	<path id="XMLID_802_" class="st3" d="M450.5,210.5h-21v-21h21V210.5z M430.5,209.5h19v-19h-19V209.5z"/>
	<path id="XMLID_803_" class="st3" d="M70.5,230.5h-21v-21h21V230.5z M50.5,229.5h19v-19h-19V229.5z"/>
	<path id="XMLID_804_" class="st3" d="M90.5,230.5h-21v-21h21V230.5z M70.5,229.5h19v-19h-19V229.5z"/>
	<path id="XMLID_805_" class="st3" d="M110.5,230.5h-21v-21h21V230.5z M90.5,229.5h19v-19h-19V229.5z"/>
	<path id="XMLID_806_" class="st3" d="M130.5,230.5h-21v-21h21V230.5z M110.5,229.5h19v-19h-19V229.5z"/>
	<path id="XMLID_807_" class="st3" d="M150.5,230.5h-21v-21h21V230.5z M130.5,229.5h19v-19h-19V229.5z"/>
	<path id="XMLID_808_" class="st3" d="M170.5,230.5h-21v-21h21V230.5z M150.5,229.5h19v-19h-19V229.5z"/>
	<path id="XMLID_809_" class="st3" d="M190.5,230.5h-21v-21h21V230.5z M170.5,229.5h19v-19h-19V229.5z"/>
	<path id="XMLID_810_" class="st3" d="M210.5,230.5h-21v-21h21V230.5z M190.5,229.5h19v-19h-19V229.5z"/>
	<path id="XMLID_811_" class="st3" d="M230.5,230.5h-21v-21h21V230.5z M210.5,229.5h19v-19h-19V229.5z"/>
	<path id="XMLID_812_" class="st3" d="M250.5,230.5h-21v-21h21V230.5z M230.5,229.5h19v-19h-19V229.5z"/>
	<path id="XMLID_813_" class="st3" d="M270.5,230.5h-21v-21h21V230.5z M250.5,229.5h19v-19h-19V229.5z"/>
	<path id="XMLID_814_" class="st3" d="M290.5,230.5h-21v-21h21V230.5z M270.5,229.5h19v-19h-19V229.5z"/>
	<path id="XMLID_815_" class="st3" d="M310.5,230.5h-21v-21h21V230.5z M290.5,229.5h19v-19h-19V229.5z"/>
	<path id="XMLID_816_" class="st3" d="M330.5,230.5h-21v-21h21V230.5z M310.5,229.5h19v-19h-19V229.5z"/>
	<path id="XMLID_817_" class="st3" d="M350.5,230.5h-21v-21h21V230.5z M330.5,229.5h19v-19h-19V229.5z"/>
	<path id="XMLID_818_" class="st3" d="M370.5,230.5h-21v-21h21V230.5z M350.5,229.5h19v-19h-19V229.5z"/>
	<path id="XMLID_819_" class="st3" d="M390.5,230.5h-21v-21h21V230.5z M370.5,229.5h19v-19h-19V229.5z"/>
	<path id="XMLID_820_" class="st3" d="M410.5,230.5h-21v-21h21V230.5z M390.5,229.5h19v-19h-19V229.5z"/>
	<path id="XMLID_821_" class="st3" d="M430.5,230.5h-21v-21h21V230.5z M410.5,229.5h19v-19h-19V229.5z"/>
	<path id="XMLID_822_" class="st3" d="M450.5,230.5h-21v-21h21V230.5z M430.5,229.5h19v-19h-19V229.5z"/>
	<path id="XMLID_823_" class="st3" d="M70.5,250.5h-21v-21h21V250.5z M50.5,249.5h19v-19h-19V249.5z"/>
	<path id="XMLID_824_" class="st3" d="M90.5,250.5h-21v-21h21V250.5z M70.5,249.5h19v-19h-19V249.5z"/>
	<path id="XMLID_825_" class="st3" d="M110.5,250.5h-21v-21h21V250.5z M90.5,249.5h19v-19h-19V249.5z"/>
	<path id="XMLID_826_" class="st3" d="M130.5,250.5h-21v-21h21V250.5z M110.5,249.5h19v-19h-19V249.5z"/>
	<path id="XMLID_827_" class="st3" d="M150.5,250.5h-21v-21h21V250.5z M130.5,249.5h19v-19h-19V249.5z"/>
	<path id="XMLID_828_" class="st3" d="M170.5,250.5h-21v-21h21V250.5z M150.5,249.5h19v-19h-19V249.5z"/>
	<path id="XMLID_829_" class="st3" d="M190.5,250.5h-21v-21h21V250.5z M170.5,249.5h19v-19h-19V249.5z"/>
	<path id="XMLID_830_" class="st3" d="M210.5,250.5h-21v-21h21V250.5z M190.5,249.5h19v-19h-19V249.5z"/>
	<path id="XMLID_831_" class="st3" d="M230.5,250.5h-21v-21h21V250.5z M210.5,249.5h19v-19h-19V249.5z"/>
	<path id="XMLID_832_" class="st3" d="M250.5,250.5h-21v-21h21V250.5z M230.5,249.5h19v-19h-19V249.5z"/>
	<path id="XMLID_833_" class="st3" d="M270.5,250.5h-21v-21h21V250.5z M250.5,249.5h19v-19h-19V249.5z"/>
	<path id="XMLID_834_" class="st3" d="M290.5,250.5h-21v-21h21V250.5z M270.5,249.5h19v-19h-19V249.5z"/>
	<path id="XMLID_835_" class="st3" d="M310.5,250.5h-21v-21h21V250.5z M290.5,249.5h19v-19h-19V249.5z"/>
	<path id="XMLID_836_" class="st3" d="M330.5,250.5h-21v-21h21V250.5z M310.5,249.5h19v-19h-19V249.5z"/>
	<path id="XMLID_837_" class="st3" d="M350.5,250.5h-21v-21h21V250.5z M330.5,249.5h19v-19h-19V249.5z"/>
	<path id="XMLID_838_" class="st3" d="M370.5,250.5h-21v-21h21V250.5z M350.5,249.5h19v-19h-19V249.5z"/>
	<path id="XMLID_839_" class="st3" d="M390.5,250.5h-21v-21h21V250.5z M370.5,249.5h19v-19h-19V249.5z"/>
	<path id="XMLID_840_" class="st3" d="M410.5,250.5h-21v-21h21V250.5z M390.5,249.5h19v-19h-19V249.5z"/>
	<path id="XMLID_841_" class="st3" d="M430.5,250.5h-21v-21h21V250.5z M410.5,249.5h19v-19h-19V249.5z"/>
	<path id="XMLID_842_" class="st3" d="M450.5,250.5h-21v-21h21V250.5z M430.5,249.5h19v-19h-19V249.5z"/>
	<path id="XMLID_843_" class="st3" d="M70.5,270.5h-21v-21h21V270.5z M50.5,269.5h19v-19h-19V269.5z"/>
	<path id="XMLID_844_" class="st3" d="M90.5,270.5h-21v-21h21V270.5z M70.5,269.5h19v-19h-19V269.5z"/>
	<path id="XMLID_845_" class="st3" d="M110.5,270.5h-21v-21h21V270.5z M90.5,269.5h19v-19h-19V269.5z"/>
	<path id="XMLID_846_" class="st3" d="M130.5,270.5h-21v-21h21V270.5z M110.5,269.5h19v-19h-19V269.5z"/>
	<path id="XMLID_847_" class="st3" d="M150.5,270.5h-21v-21h21V270.5z M130.5,269.5h19v-19h-19V269.5z"/>
	<path id="XMLID_848_" class="st3" d="M170.5,270.5h-21v-21h21V270.5z M150.5,269.5h19v-19h-19V269.5z"/>
	<path id="XMLID_849_" class="st3" d="M190.5,270.5h-21v-21h21V270.5z M170.5,269.5h19v-19h-19V269.5z"/>
	<path id="XMLID_850_" class="st3" d="M210.5,270.5h-21v-21h21V270.5z M190.5,269.5h19v-19h-19V269.5z"/>
	<path id="XMLID_851_" class="st3" d="M230.5,270.5h-21v-21h21V270.5z M210.5,269.5h19v-19h-19V269.5z"/>
	<path id="XMLID_852_" class="st3" d="M250.5,270.5h-21v-21h21V270.5z M230.5,269.5h19v-19h-19V269.5z"/>
	<path id="XMLID_853_" class="st3" d="M270.5,270.5h-21v-21h21V270.5z M250.5,269.5h19v-19h-19V269.5z"/>
	<path id="XMLID_854_" class="st3" d="M290.5,270.5h-21v-21h21V270.5z M270.5,269.5h19v-19h-19V269.5z"/>
	<path id="XMLID_855_" class="st3" d="M310.5,270.5h-21v-21h21V270.5z M290.5,269.5h19v-19h-19V269.5z"/>
	<path id="XMLID_856_" class="st3" d="M330.5,270.5h-21v-21h21V270.5z M310.5,269.5h19v-19h-19V269.5z"/>
	<path id="XMLID_857_" class="st3" d="M350.5,270.5h-21v-21h21V270.5z M330.5,269.5h19v-19h-19V269.5z"/>
	<path id="XMLID_858_" class="st3" d="M370.5,270.5h-21v-21h21V270.5z M350.5,269.5h19v-19h-19V269.5z"/>
	<path id="XMLID_859_" class="st3" d="M390.5,270.5h-21v-21h21V270.5z M370.5,269.5h19v-19h-19V269.5z"/>
	<path id="XMLID_860_" class="st3" d="M410.5,270.5h-21v-21h21V270.5z M390.5,269.5h19v-19h-19V269.5z"/>
	<path id="XMLID_861_" class="st3" d="M430.5,270.5h-21v-21h21V270.5z M410.5,269.5h19v-19h-19V269.5z"/>
	<path id="XMLID_862_" class="st3" d="M450.5,270.5h-21v-21h21V270.5z M430.5,269.5h19v-19h-19V269.5z"/>
	<path id="XMLID_863_" class="st3" d="M70.5,290.5h-21v-21h21V290.5z M50.5,289.5h19v-19h-19V289.5z"/>
	<path id="XMLID_864_" class="st3" d="M90.5,290.5h-21v-21h21V290.5z M70.5,289.5h19v-19h-19V289.5z"/>
	<path id="XMLID_865_" class="st3" d="M110.5,290.5h-21v-21h21V290.5z M90.5,289.5h19v-19h-19V289.5z"/>
	<path id="XMLID_866_" class="st3" d="M130.5,290.5h-21v-21h21V290.5z M110.5,289.5h19v-19h-19V289.5z"/>
	<path id="XMLID_867_" class="st3" d="M150.5,290.5h-21v-21h21V290.5z M130.5,289.5h19v-19h-19V289.5z"/>
	<path id="XMLID_868_" class="st3" d="M170.5,290.5h-21v-21h21V290.5z M150.5,289.5h19v-19h-19V289.5z"/>
	<path id="XMLID_761_" class="st3" d="M190.5,290.5h-21v-21h21V290.5z M170.5,289.5h19v-19h-19V289.5z"/>
	<path id="XMLID_740_" class="st3" d="M210.5,290.5h-21v-21h21V290.5z M190.5,289.5h19v-19h-19V289.5z"/>
	<path id="XMLID_721_" class="st3" d="M230.5,290.5h-21v-21h21V290.5z M210.5,289.5h19v-19h-19V289.5z"/>
	<path id="XMLID_704_" class="st3" d="M250.5,290.5h-21v-21h21V290.5z M230.5,289.5h19v-19h-19V289.5z"/>
	<path id="XMLID_701_" class="st3" d="M270.5,290.5h-21v-21h21V290.5z M250.5,289.5h19v-19h-19V289.5z"/>
	<path id="XMLID_698_" class="st3" d="M290.5,290.5h-21v-21h21V290.5z M270.5,289.5h19v-19h-19V289.5z"/>
	<path id="XMLID_683_" class="st3" d="M310.5,290.5h-21v-21h21V290.5z M290.5,289.5h19v-19h-19V289.5z"/>
	<path id="XMLID_680_" class="st3" d="M330.5,290.5h-21v-21h21V290.5z M310.5,289.5h19v-19h-19V289.5z"/>
	<path id="XMLID_677_" class="st3" d="M350.5,290.5h-21v-21h21V290.5z M330.5,289.5h19v-19h-19V289.5z"/>
	<path id="XMLID_664_" class="st3" d="M370.5,290.5h-21v-21h21V290.5z M350.5,289.5h19v-19h-19V289.5z"/>
	<path id="XMLID_661_" class="st3" d="M390.5,290.5h-21v-21h21V290.5z M370.5,289.5h19v-19h-19V289.5z"/>
	<path id="XMLID_658_" class="st3" d="M410.5,290.5h-21v-21h21V290.5z M390.5,289.5h19v-19h-19V289.5z"/>
	<path id="XMLID_647_" class="st3" d="M430.5,290.5h-21v-21h21V290.5z M410.5,289.5h19v-19h-19V289.5z"/>
	<path id="XMLID_644_" class="st3" d="M450.5,290.5h-21v-21h21V290.5z M430.5,289.5h19v-19h-19V289.5z"/>
	<path id="XMLID_641_" class="st3" d="M70.5,310.5h-21v-21h21V310.5z M50.5,309.5h19v-19h-19V309.5z"/>
	<path id="XMLID_638_" class="st3" d="M90.5,310.5h-21v-21h21V310.5z M70.5,309.5h19v-19h-19V309.5z"/>
	<path id="XMLID_635_" class="st3" d="M110.5,310.5h-21v-21h21V310.5z M90.5,309.5h19v-19h-19V309.5z"/>
	<path id="XMLID_632_" class="st3" d="M130.5,310.5h-21v-21h21V310.5z M110.5,309.5h19v-19h-19V309.5z"/>
	<path id="XMLID_629_" class="st3" d="M150.5,310.5h-21v-21h21V310.5z M130.5,309.5h19v-19h-19V309.5z"/>
	<path id="XMLID_626_" class="st3" d="M170.5,310.5h-21v-21h21V310.5z M150.5,309.5h19v-19h-19V309.5z"/>
	<path id="XMLID_623_" class="st3" d="M190.5,310.5h-21v-21h21V310.5z M170.5,309.5h19v-19h-19V309.5z"/>
	<path id="XMLID_620_" class="st3" d="M210.5,310.5h-21v-21h21V310.5z M190.5,309.5h19v-19h-19V309.5z"/>
	<path id="XMLID_617_" class="st3" d="M230.5,310.5h-21v-21h21V310.5z M210.5,309.5h19v-19h-19V309.5z"/>
	<path id="XMLID_614_" class="st3" d="M250.5,310.5h-21v-21h21V310.5z M230.5,309.5h19v-19h-19V309.5z"/>
	<path id="XMLID_611_" class="st3" d="M270.5,310.5h-21v-21h21V310.5z M250.5,309.5h19v-19h-19V309.5z"/>
	<path id="XMLID_608_" class="st3" d="M290.5,310.5h-21v-21h21V310.5z M270.5,309.5h19v-19h-19V309.5z"/>
	<path id="XMLID_605_" class="st3" d="M310.5,310.5h-21v-21h21V310.5z M290.5,309.5h19v-19h-19V309.5z"/>
	<path id="XMLID_602_" class="st3" d="M330.5,310.5h-21v-21h21V310.5z M310.5,309.5h19v-19h-19V309.5z"/>
	<path id="XMLID_599_" class="st3" d="M350.5,310.5h-21v-21h21V310.5z M330.5,309.5h19v-19h-19V309.5z"/>
	<path id="XMLID_596_" class="st3" d="M370.5,310.5h-21v-21h21V310.5z M350.5,309.5h19v-19h-19V309.5z"/>
	<path id="XMLID_593_" class="st3" d="M390.5,310.5h-21v-21h21V310.5z M370.5,309.5h19v-19h-19V309.5z"/>
	<path id="XMLID_590_" class="st3" d="M410.5,310.5h-21v-21h21V310.5z M390.5,309.5h19v-19h-19V309.5z"/>
	<path id="XMLID_587_" class="st3" d="M430.5,310.5h-21v-21h21V310.5z M410.5,309.5h19v-19h-19V309.5z"/>
	<path id="XMLID_584_" class="st3" d="M450.5,310.5h-21v-21h21V310.5z M430.5,309.5h19v-19h-19V309.5z"/>
	<path id="XMLID_581_" class="st3" d="M70.5,330.5h-21v-21h21V330.5z M50.5,329.5h19v-19h-19V329.5z"/>
	<path id="XMLID_578_" class="st3" d="M90.5,330.5h-21v-21h21V330.5z M70.5,329.5h19v-19h-19V329.5z"/>
	<path id="XMLID_575_" class="st3" d="M110.5,330.5h-21v-21h21V330.5z M90.5,329.5h19v-19h-19V329.5z"/>
	<path id="XMLID_572_" class="st3" d="M130.5,330.5h-21v-21h21V330.5z M110.5,329.5h19v-19h-19V329.5z"/>
	<path id="XMLID_569_" class="st3" d="M150.5,330.5h-21v-21h21V330.5z M130.5,329.5h19v-19h-19V329.5z"/>
	<path id="XMLID_566_" class="st3" d="M170.5,330.5h-21v-21h21V330.5z M150.5,329.5h19v-19h-19V329.5z"/>
	<path id="XMLID_563_" class="st3" d="M190.5,330.5h-21v-21h21V330.5z M170.5,329.5h19v-19h-19V329.5z"/>
	<path id="XMLID_560_" class="st3" d="M210.5,330.5h-21v-21h21V330.5z M190.5,329.5h19v-19h-19V329.5z"/>
	<path id="XMLID_557_" class="st3" d="M230.5,330.5h-21v-21h21V330.5z M210.5,329.5h19v-19h-19V329.5z"/>
	<path id="XMLID_554_" class="st3" d="M250.5,330.5h-21v-21h21V330.5z M230.5,329.5h19v-19h-19V329.5z"/>
	<path id="XMLID_551_" class="st3" d="M270.5,330.5h-21v-21h21V330.5z M250.5,329.5h19v-19h-19V329.5z"/>
	<path id="XMLID_548_" class="st3" d="M290.5,330.5h-21v-21h21V330.5z M270.5,329.5h19v-19h-19V329.5z"/>
	<path id="XMLID_545_" class="st3" d="M310.5,330.5h-21v-21h21V330.5z M290.5,329.5h19v-19h-19V329.5z"/>
	<path id="XMLID_542_" class="st3" d="M330.5,330.5h-21v-21h21V330.5z M310.5,329.5h19v-19h-19V329.5z"/>
	<path id="XMLID_539_" class="st3" d="M350.5,330.5h-21v-21h21V330.5z M330.5,329.5h19v-19h-19V329.5z"/>
	<path id="XMLID_536_" class="st3" d="M370.5,330.5h-21v-21h21V330.5z M350.5,329.5h19v-19h-19V329.5z"/>
	<path id="XMLID_533_" class="st3" d="M390.5,330.5h-21v-21h21V330.5z M370.5,329.5h19v-19h-19V329.5z"/>
	<path id="XMLID_530_" class="st3" d="M410.5,330.5h-21v-21h21V330.5z M390.5,329.5h19v-19h-19V329.5z"/>
	<path id="XMLID_527_" class="st3" d="M430.5,330.5h-21v-21h21V330.5z M410.5,329.5h19v-19h-19V329.5z"/>
	<path id="XMLID_248_" class="st3" d="M450.5,330.5h-21v-21h21V330.5z M430.5,329.5h19v-19h-19V329.5z"/>
	<polygon id="XMLID_524_" class="st3" points="70.5,350 69.5,350 69.5,330.5 50,330.5 50,329.5 70.5,329.5 	"/>
	<path id="XMLID_521_" class="st3" d="M90.5,350.5h-21v-21h21V350.5z M70.5,349.5h19v-19h-19V349.5z"/>
	<path id="XMLID_518_" class="st3" d="M110.5,350.5h-21v-21h21V350.5z M90.5,349.5h19v-19h-19V349.5z"/>
	<path id="XMLID_515_" class="st3" d="M130.5,350.5h-21v-21h21V350.5z M110.5,349.5h19v-19h-19V349.5z"/>
	<path id="XMLID_512_" class="st3" d="M150.5,350.5h-21v-21h21V350.5z M130.5,349.5h19v-19h-19V349.5z"/>
	<path id="XMLID_509_" class="st3" d="M170.5,350.5h-21v-21h21V350.5z M150.5,349.5h19v-19h-19V349.5z"/>
	<path id="XMLID_506_" class="st3" d="M190.5,350.5h-21v-21h21V350.5z M170.5,349.5h19v-19h-19V349.5z"/>
	<path id="XMLID_503_" class="st3" d="M210.5,350.5h-21v-21h21V350.5z M190.5,349.5h19v-19h-19V349.5z"/>
	<path id="XMLID_500_" class="st3" d="M230.5,350.5h-21v-21h21V350.5z M210.5,349.5h19v-19h-19V349.5z"/>
	<path id="XMLID_497_" class="st3" d="M250.5,350.5h-21v-21h21V350.5z M230.5,349.5h19v-19h-19V349.5z"/>
	<path id="XMLID_494_" class="st3" d="M270.5,350.5h-21v-21h21V350.5z M250.5,349.5h19v-19h-19V349.5z"/>
	<path id="XMLID_491_" class="st3" d="M290.5,350.5h-21v-21h21V350.5z M270.5,349.5h19v-19h-19V349.5z"/>
	<path id="XMLID_488_" class="st3" d="M310.5,350.5h-21v-21h21V350.5z M290.5,349.5h19v-19h-19V349.5z"/>
	<path id="XMLID_485_" class="st3" d="M330.5,350.5h-21v-21h21V350.5z M310.5,349.5h19v-19h-19V349.5z"/>
	<path id="XMLID_482_" class="st3" d="M350.5,350.5h-21v-21h21V350.5z M330.5,349.5h19v-19h-19V349.5z"/>
	<path id="XMLID_479_" class="st3" d="M370.5,350.5h-21v-21h21V350.5z M350.5,349.5h19v-19h-19V349.5z"/>
	<path id="XMLID_476_" class="st3" d="M390.5,350.5h-21v-21h21V350.5z M370.5,349.5h19v-19h-19V349.5z"/>
	<path id="XMLID_473_" class="st3" d="M410.5,350.5h-21v-21h21V350.5z M390.5,349.5h19v-19h-19V349.5z"/>
	<path id="XMLID_281_" class="st3" d="M430.5,350.5h-21v-21h21V350.5z M410.5,349.5h19v-19h-19V349.5z"/>
	<polygon id="XMLID_252_" class="st3" points="430.5,350 429.5,350 429.5,329.5 450,329.5 450,330.5 430.5,330.5 	"/>
	<path id="XMLID_247_" class="st2" d="M70,350"/>
	<polygon id="XMLID_470_" class="st3" points="90.5,370 89.5,370 89.5,350.5 70,350.5 70,349.5 90.5,349.5 	"/>
	<path id="XMLID_467_" class="st3" d="M110.5,370.5h-21v-21h21V370.5z M90.5,369.5h19v-19h-19V369.5z"/>
	<path id="XMLID_464_" class="st3" d="M130.5,370.5h-21v-21h21V370.5z M110.5,369.5h19v-19h-19V369.5z"/>
	<path id="XMLID_461_" class="st3" d="M150.5,370.5h-21v-21h21V370.5z M130.5,369.5h19v-19h-19V369.5z"/>
	<path id="XMLID_458_" class="st3" d="M170.5,370.5h-21v-21h21V370.5z M150.5,369.5h19v-19h-19V369.5z"/>
	<path id="XMLID_455_" class="st3" d="M190.5,370.5h-21v-21h21V370.5z M170.5,369.5h19v-19h-19V369.5z"/>
	<path id="XMLID_452_" class="st3" d="M210.5,370.5h-21v-21h21V370.5z M190.5,369.5h19v-19h-19V369.5z"/>
	<path id="XMLID_449_" class="st3" d="M230.5,370.5h-21v-21h21V370.5z M210.5,369.5h19v-19h-19V369.5z"/>
	<path id="XMLID_446_" class="st3" d="M250.5,370.5h-21v-21h21V370.5z M230.5,369.5h19v-19h-19V369.5z"/>
	<path id="XMLID_443_" class="st3" d="M270.5,370.5h-21v-21h21V370.5z M250.5,369.5h19v-19h-19V369.5z"/>
	<path id="XMLID_440_" class="st3" d="M290.5,370.5h-21v-21h21V370.5z M270.5,369.5h19v-19h-19V369.5z"/>
	<path id="XMLID_437_" class="st3" d="M310.5,370.5h-21v-21h21V370.5z M290.5,369.5h19v-19h-19V369.5z"/>
	<path id="XMLID_434_" class="st3" d="M330.5,370.5h-21v-21h21V370.5z M310.5,369.5h19v-19h-19V369.5z"/>
	<path id="XMLID_431_" class="st3" d="M350.5,370.5h-21v-21h21V370.5z M330.5,369.5h19v-19h-19V369.5z"/>
	<path id="XMLID_428_" class="st3" d="M370.5,370.5h-21v-21h21V370.5z M350.5,369.5h19v-19h-19V369.5z"/>
	<path id="XMLID_425_" class="st3" d="M390.5,370.5h-21v-21h21V370.5z M370.5,369.5h19v-19h-19V369.5z"/>
	<path id="XMLID_287_" class="st3" d="M410.5,370.5h-21v-21h21V370.5z M390.5,369.5h19v-19h-19V369.5z"/>
	<polygon id="XMLID_255_" class="st3" points="410.5,370 409.5,370 409.5,349.5 430,349.5 430,350.5 410.5,350.5 	"/>
	<path id="XMLID_286_" class="st2" d="M430,350"/>
	<path id="XMLID_256_" class="st2" d="M90,370"/>
	<polygon id="XMLID_422_" class="st3" points="110.5,390 109.5,390 109.5,370.5 90,370.5 90,369.5 110.5,369.5 	"/>
	<path id="XMLID_419_" class="st3" d="M130.5,390.5h-21v-21h21V390.5z M110.5,389.5h19v-19h-19V389.5z"/>
	<path id="XMLID_416_" class="st3" d="M150.5,390.5h-21v-21h21V390.5z M130.5,389.5h19v-19h-19V389.5z"/>
	<path id="XMLID_413_" class="st3" d="M170.5,390.5h-21v-21h21V390.5z M150.5,389.5h19v-19h-19V389.5z"/>
	<path id="XMLID_410_" class="st3" d="M190.5,390.5h-21v-21h21V390.5z M170.5,389.5h19v-19h-19V389.5z"/>
	<path id="XMLID_407_" class="st3" d="M210.5,390.5h-21v-21h21V390.5z M190.5,389.5h19v-19h-19V389.5z"/>
	<path id="XMLID_404_" class="st3" d="M230.5,390.5h-21v-21h21V390.5z M210.5,389.5h19v-19h-19V389.5z"/>
	<path id="XMLID_401_" class="st3" d="M250.5,390.5h-21v-21h21V390.5z M230.5,389.5h19v-19h-19V389.5z"/>
	<path id="XMLID_398_" class="st3" d="M270.5,390.5h-21v-21h21V390.5z M250.5,389.5h19v-19h-19V389.5z"/>
	<path id="XMLID_395_" class="st3" d="M290.5,390.5h-21v-21h21V390.5z M270.5,389.5h19v-19h-19V389.5z"/>
	<path id="XMLID_392_" class="st3" d="M310.5,390.5h-21v-21h21V390.5z M290.5,389.5h19v-19h-19V389.5z"/>
	<path id="XMLID_389_" class="st3" d="M330.5,390.5h-21v-21h21V390.5z M310.5,389.5h19v-19h-19V389.5z"/>
	<path id="XMLID_386_" class="st3" d="M350.5,390.5h-21v-21h21V390.5z M330.5,389.5h19v-19h-19V389.5z"/>
	<path id="XMLID_383_" class="st3" d="M370.5,390.5h-21v-21h21V390.5z M350.5,389.5h19v-19h-19V389.5z"/>
	<path id="XMLID_280_" class="st3" d="M390.5,390.5h-21v-21h21V390.5z M370.5,389.5h19v-19h-19V389.5z"/>
	<polygon id="XMLID_249_" class="st3" points="390.5,390 389.5,390 389.5,369.5 410,369.5 410,370.5 390.5,370.5 	"/>
	<path id="XMLID_279_" class="st2" d="M410,370"/>
	<path id="XMLID_250_" class="st2" d="M110,390"/>
	<polygon id="XMLID_380_" class="st3" points="130.5,410 129.5,410 129.5,390.5 110,390.5 110,389.5 130.5,389.5 	"/>
	<path id="XMLID_377_" class="st3" d="M150.5,410.5h-21v-21h21V410.5z M130.5,409.5h19v-19h-19V409.5z"/>
	<path id="XMLID_374_" class="st3" d="M170.5,410.5h-21v-21h21V410.5z M150.5,409.5h19v-19h-19V409.5z"/>
	<path id="XMLID_371_" class="st3" d="M190.5,410.5h-21v-21h21V410.5z M170.5,409.5h19v-19h-19V409.5z"/>
	<path id="XMLID_368_" class="st3" d="M210.5,410.5h-21v-21h21V410.5z M190.5,409.5h19v-19h-19V409.5z"/>
	<path id="XMLID_365_" class="st3" d="M230.5,410.5h-21v-21h21V410.5z M210.5,409.5h19v-19h-19V409.5z"/>
	<path id="XMLID_362_" class="st3" d="M250.5,410.5h-21v-21h21V410.5z M230.5,409.5h19v-19h-19V409.5z"/>
	<path id="XMLID_359_" class="st3" d="M270.5,410.5h-21v-21h21V410.5z M250.5,409.5h19v-19h-19V409.5z"/>
	<path id="XMLID_356_" class="st3" d="M290.5,410.5h-21v-21h21V410.5z M270.5,409.5h19v-19h-19V409.5z"/>
	<path id="XMLID_353_" class="st3" d="M310.5,410.5h-21v-21h21V410.5z M290.5,409.5h19v-19h-19V409.5z"/>
	<path id="XMLID_350_" class="st3" d="M330.5,410.5h-21v-21h21V410.5z M310.5,409.5h19v-19h-19V409.5z"/>
	<path id="XMLID_347_" class="st3" d="M350.5,410.5h-21v-21h21V410.5z M330.5,409.5h19v-19h-19V409.5z"/>
	<path id="XMLID_285_" class="st3" d="M370.5,410.5h-21v-21h21V410.5z M350.5,409.5h19v-19h-19V409.5z"/>
	<polygon id="XMLID_251_" class="st3" points="370.5,410 369.5,410 369.5,389.5 390,389.5 390,390.5 370.5,390.5 	"/>
	<path id="XMLID_284_" class="st2" d="M390,390"/>
	<path id="XMLID_253_" class="st2" d="M130,410"/>
	<polygon id="XMLID_344_" class="st3" points="150.5,430 149.5,430 149.5,410.5 130,410.5 130,409.5 150.5,409.5 	"/>
	<path id="XMLID_341_" class="st3" d="M170.5,430.5h-21v-21h21V430.5z M150.5,429.5h19v-19h-19V429.5z"/>
	<path id="XMLID_338_" class="st3" d="M190.5,430.5h-21v-21h21V430.5z M170.5,429.5h19v-19h-19V429.5z"/>
	<path id="XMLID_335_" class="st3" d="M210.5,430.5h-21v-21h21V430.5z M190.5,429.5h19v-19h-19V429.5z"/>
	<path id="XMLID_332_" class="st3" d="M230.5,430.5h-21v-21h21V430.5z M210.5,429.5h19v-19h-19V429.5z"/>
	<path id="XMLID_329_" class="st3" d="M250.5,430.5h-21v-21h21V430.5z M230.5,429.5h19v-19h-19V429.5z"/>
	<path id="XMLID_326_" class="st3" d="M270.5,430.5h-21v-21h21V430.5z M250.5,429.5h19v-19h-19V429.5z"/>
	<path id="XMLID_323_" class="st3" d="M290.5,430.5h-21v-21h21V430.5z M270.5,429.5h19v-19h-19V429.5z"/>
	<path id="XMLID_320_" class="st3" d="M310.5,430.5h-21v-21h21V430.5z M290.5,429.5h19v-19h-19V429.5z"/>
	<path id="XMLID_317_" class="st3" d="M330.5,430.5h-21v-21h21V430.5z M310.5,429.5h19v-19h-19V429.5z"/>
	<path id="XMLID_278_" class="st3" d="M350.5,430.5h-21v-21h21V430.5z M330.5,429.5h19v-19h-19V429.5z"/>
	<polygon id="XMLID_244_" class="st3" points="350.5,430 349.5,430 349.5,409.5 370,409.5 370,410.5 350.5,410.5 	"/>
	<path id="XMLID_277_" class="st2" d="M370,410"/>
	<path id="XMLID_246_" class="st2" d="M150,430"/>
	<polygon id="XMLID_314_" class="st3" points="170.5,450 169.5,450 169.5,430.5 150,430.5 150,429.5 170.5,429.5 	"/>
	<path id="XMLID_311_" class="st3" d="M190.5,450.5h-21v-21h21V450.5z M170.5,449.5h19v-19h-19V449.5z"/>
	<path id="XMLID_308_" class="st3" d="M210.5,450.5h-21v-21h21V450.5z M190.5,449.5h19v-19h-19V449.5z"/>
	<path id="XMLID_305_" class="st3" d="M230.5,450.5h-21v-21h21V450.5z M210.5,449.5h19v-19h-19V449.5z"/>
	<path id="XMLID_302_" class="st3" d="M250.5,450.5h-21v-21h21V450.5z M230.5,449.5h19v-19h-19V449.5z"/>
	<path id="XMLID_299_" class="st3" d="M270.5,450.5h-21v-21h21V450.5z M250.5,449.5h19v-19h-19V449.5z"/>
	<path id="XMLID_296_" class="st3" d="M290.5,450.5h-21v-21h21V450.5z M270.5,449.5h19v-19h-19V449.5z"/>
	<path id="XMLID_293_" class="st3" d="M310.5,450.5h-21v-21h21V450.5z M290.5,449.5h19v-19h-19V449.5z"/>
	<path id="XMLID_283_" class="st3" d="M330.5,450.5h-21v-21h21V450.5z M310.5,449.5h19v-19h-19V449.5z"/>
	<polygon id="XMLID_264_" class="st3" points="330.5,450 329.5,450 329.5,429.5 350,429.5 350,430.5 330.5,430.5 	"/>
	<path id="XMLID_282_" class="st2" d="M350,430"/>
	<path id="XMLID_288_" class="st3" d="M333,450.5H167L49.5,333V167L167,49.5h166L450.5,167v166L333,450.5z M167.4,449.5h165.3
		l116.9-116.9V167.4l-117-116.9H167.4L50.5,167.4v165.3L167.4,449.5z"/>
</g>
<g id="lines2" class="st0">
	<g id="XMLID_240_" class="st4">
		<polygon id="XMLID_218_" class="st5" points="167.2,450 108.6,391.4 50,332.8 50,250 50,167.2 108.6,108.6 167.2,50 250,50 
			332.8,50 391.4,108.6 450,167.2 450,250 450,332.8 391.4,391.4 332.8,450 250,450 		"/>
		<line id="XMLID_232_" class="st5" x1="167.2" y1="50" x2="167.2" y2="450"/>
		<line id="XMLID_233_" class="st5" x1="332.8" y1="450" x2="332.8" y2="50"/>
		<line id="XMLID_234_" class="st5" x1="250" y1="50" x2="250" y2="450"/>
		<line id="XMLID_235_" class="st5" x1="50" y1="250" x2="450" y2="250"/>
		<line id="XMLID_236_" class="st5" x1="50" y1="167.2" x2="450" y2="167.2"/>
		<line id="XMLID_237_" class="st5" x1="50" y1="332.8" x2="450" y2="332.8"/>
		<polyline id="XMLID_242_" class="st5" points="391.4,391.4 391.4,108.6 108.6,108.6 108.6,391.4 391.4,391.4 		"/>
		<path id="XMLID_231_" class="st5" d="M108.6,391.4"/>
		<path id="XMLID_239_" class="st5" d="M391.4,391.4"/>
	</g>
</g>
<g id="lines1" class="st0">
	<polygon id="XMLID_217_" class="st6" points="167.2,450 108.6,391.4 50,332.8 50,250 50,167.2 108.6,108.6 167.2,50 250,50 
		332.8,50 391.4,108.6 450,167.2 450,250 450,332.8 391.4,391.4 332.8,450 250,450 	"/>
	<line id="XMLID_220_" class="st6" x1="167.2" y1="50" x2="332.8" y2="450"/>
	<line id="XMLID_221_" class="st6" x1="332.8" y1="50" x2="167.2" y2="450"/>
	<line id="XMLID_222_" class="st6" x1="50" y1="332.8" x2="450" y2="167.2"/>
	<line id="XMLID_223_" class="st6" x1="450" y1="332.8" x2="50" y2="167.2"/>
	<line id="XMLID_224_" class="st6" x1="108.6" y1="108.6" x2="391.4" y2="391.4"/>
	<line id="XMLID_225_" class="st6" x1="391.4" y1="108.6" x2="108.6" y2="391.4"/>
	<line id="XMLID_226_" class="st6" x1="50" y1="250" x2="450" y2="250"/>
	<line id="XMLID_227_" class="st6" x1="250" y1="450" x2="250" y2="50"/>
	<path id="XMLID_219_" class="st6" d="M215.2,238"/>
	<polygon id="XMLID_228_" class="st6" points="187.9,400 143.9,356.1 100,312.1 100,250 100,187.9 143.9,143.9 187.9,100 250,100 
		312.1,100 356.1,143.9 400,187.9 400,250 400,312.1 356.1,356.1 312.1,400 250,400 	"/>
	<polygon id="XMLID_229_" class="st6" points="208.6,350 179.3,320.7 150,291.4 150,250 150,208.6 179.3,179.3 208.6,150 250,150 
		291.4,150 320.7,179.3 350,208.6 350,250 350,291.4 320.7,320.7 291.4,350 250,350 	"/>
	<polygon id="XMLID_230_" class="st6" points="229.3,300 214.6,285.4 200,270.7 200,250 200,229.3 214.6,214.6 229.3,200 250,200 
		270.7,200 285.4,214.6 300,229.3 300,250 300,270.7 285.4,285.4 270.7,300 250,300 	"/>
</g>
<g id="lines4" class="st0">
	<polygon id="XMLID_1249_" class="st6" points="167.2,450 108.6,391.4 50,332.8 50,250 50,167.2 108.6,108.6 167.2,50 250,50 
		332.8,50 391.4,108.6 450,167.2 450,250 450,332.8 391.4,391.4 332.8,450 250,450 	"/>
	<path id="XMLID_1240_" class="st6" d="M215.2,238"/>
	<polygon id="XMLID_1239_" class="st6" points="187.9,400 143.9,356.1 100,312.1 100,250 100,187.9 143.9,143.9 187.9,100 250,100 
		312.1,100 356.1,143.9 400,187.9 400,250 400,312.1 356.1,356.1 312.1,400 250,400 	"/>
	<polygon id="XMLID_261_" class="st6" points="208.6,350 179.3,320.7 150,291.4 150,250 150,208.6 179.3,179.3 208.6,150 250,150 
		291.4,150 320.7,179.3 350,208.6 350,250 350,291.4 320.7,320.7 291.4,350 250,350 	"/>
	<polygon id="XMLID_238_" class="st6" points="229.3,300 214.6,285.4 200,270.7 200,250 200,229.3 214.6,214.6 229.3,200 250,200 
		270.7,200 285.4,214.6 300,229.3 300,250 300,270.7 285.4,285.4 270.7,300 250,300 	"/>
</g>
<g id="cha5" class="st0">
	<polygon id="XMLID_108_" class="st7" points="167.2,450 50,332.8 50,167.2 167.2,50 332.8,50 450,167.2 450,332.8 332.8,450 	"/>
</g>
<g id="cha3" class="st0">
	<polygon id="XMLID_41_" class="st8" points="391.4,391.4 332.8,450 167.2,450 108.6,391.4 250,250 	"/>
	<polygon id="XMLID_40_" class="st9" points="450,167.2 450,332.8 391.4,391.4 250,250 391.4,108.6 	"/>
	<polygon id="XMLID_23_" class="st10" points="250,250 108.6,391.4 50,332.8 50,167.2 108.6,108.6 	"/>
	<polygon id="XMLID_42_" class="st11" points="391.4,108.6 250,250 108.6,108.6 167.2,50 332.8,50 	"/>
</g>
<g id="cha4" class="st0">
	<polygon id="XMLID_51_" class="st12" points="391.4,391.4 362.1,420.7 332.8,450 250,450 250,250 320.7,320.7 	"/>
	<polygon id="XMLID_45_" class="st8" points="250,250 250,450 167.2,450 137.9,420.7 108.6,391.4 179.3,320.7 	"/>
	<polygon id="XMLID_44_" class="st13" points="450,250 450,332.8 420.7,362.1 391.4,391.4 320.7,320.7 250,250 	"/>
	<polygon id="XMLID_47_" class="st9" points="450,167.2 450,250 250,250 320.7,179.3 391.4,108.6 	"/>
	<polygon id="XMLID_52_" class="st14" points="250,250 50,250 50,167.2 108.6,108.6 179.3,179.3 	"/>
	<polygon id="XMLID_48_" class="st10" points="250,250 179.3,320.7 108.6,391.4 79.3,362.1 50,332.8 50,250 	"/>
	<polygon id="XMLID_50_" class="st15" points="391.4,108.6 320.7,179.3 250,250 250,50 332.8,50 	"/>
	<polygon id="XMLID_46_" class="st11" points="250,50 250,250 179.3,179.3 108.6,108.6 167.2,50 	"/>
</g>
<g id="cha2" class="st0">
	<polygon id="XMLID_25_" class="st11" points="250,50 250,250 50,250 50,167.2 167.2,50 	"/>
	<polygon id="XMLID_34_" class="st9" points="450,167.2 450,250 250,250 250,50 332.8,50 	"/>
	<polygon id="XMLID_32_" class="st10" points="250,250 250,450 167.2,450 108.6,391.4 50,332.8 50,250 	"/>
	<polygon id="XMLID_39_" class="st8" points="450,250 450,332.8 391.4,391.4 332.8,450 250,450 250,250 	"/>
</g>
<g id="cha1" class="st0">
	<polygon id="XMLID_28_" class="st12" points="450,332.8 332.8,450 250,250 	"/>
	<polygon id="XMLID_29_" class="st16" points="450,167.2 250,250 332.8,50 	"/>
	<polygon id="XMLID_30_" class="st17" points="332.8,50 250,250 167.2,50 	"/>
	<polygon id="XMLID_31_" class="st18" points="250,250 50,167.2 167.2,50 	"/>
	<polygon id="XMLID_27_" class="st19" points="250,250 50,332.8 50,167.2 	"/>
	<polygon id="XMLID_33_" class="st20" points="250,250 167.2,450 50,332.8 	"/>
	<polygon id="XMLID_26_" class="st13" points="450,167.2 450,332.8 250,250 	"/>
	<polygon id="XMLID_22_" class="st8" points="332.8,450 167.2,450 250,250 	"/>
</g>
<g id="background" class="st0">
	<g id="XMLID_11_" class="st21">
		<radialGradient id="XMLID_35_" cx="250" cy="250" r="200" gradientUnits="userSpaceOnUse">
			<stop  offset="0" style="stop-color:#FFFFFF;stop-opacity:0.3"/>
			<stop  offset="1" style="stop-color:#000000;stop-opacity:0.44"/>
		</radialGradient>
		<path id="XMLID_5_" class="st22" d="M161.6,444.4l-106-106C52,334.8,50,330,50,325V175c0-5,2-9.9,5.6-13.4l106-106
			C165.2,52,170,50,175,50h150c5,0,9.9,2,13.4,5.6l106,106c3.6,3.6,5.6,8.4,5.6,13.4v150c0,5-2,9.9-5.6,13.4l-106,106
			c-3.6,3.6-8.4,5.6-13.4,5.6H175C170,450,165.2,448,161.6,444.4z"/>
		<linearGradient id="XMLID_36_" gradientUnits="userSpaceOnUse" x1="250" y1="454.5" x2="250" y2="45.5">
			<stop  offset="0" style="stop-color:#898584"/>
			<stop  offset="1" style="stop-color:#BABCBE"/>
		</linearGradient>
		<path id="XMLID_6_" class="st23" d="M447.6,158.4l-106-106c-4.4-4.4-10.3-6.9-16.6-6.9H175c-6.3,0-12.2,2.4-16.6,6.9l-106,106
			c-4.4,4.4-6.9,10.3-6.9,16.6v150c0,6.3,2.4,12.2,6.9,16.6l106,106c4.4,4.4,10.3,6.9,16.6,6.9h150c6.3,0,12.2-2.4,16.6-6.9l106-106
			c4.4-4.4,6.9-10.3,6.9-16.6V175C454.5,168.8,452.1,162.8,447.6,158.4z M445.5,325c0,3.9-1.5,7.5-4.3,10.3l-106,106
			c-2.7,2.7-6.4,4.3-10.3,4.3H175c-3.9,0-7.5-1.5-10.3-4.3l-106-106c-2.7-2.7-4.3-6.4-4.3-10.3V175c0-3.9,1.5-7.5,4.3-10.3l106-106
			c2.7-2.7,6.4-4.3,10.3-4.3h150c3.9,0,7.5,1.5,10.3,4.3l106,106c2.7,2.7,4.3,6.4,4.3,10.3L445.5,325L445.5,325z"/>
	</g>
	<path id="XMLID_24_" class="st24" d="M292.5,454.5l-16.9,12.4c-10.5,7.7-40.6,7.7-51.2,0l-16.9-12.4H292.5z"/>
</g>
<g id="CHART1" class="st0">
	<rect id="XMLID_18_" x="332.8" y="167.2" class="st25" width="117.2" height="165.7"/>
	<polygon id="XMLID_19_" class="st26" points="167.2,50 167.2,167.2 50,167.2 	"/>
	<rect id="XMLID_17_" x="50" y="167.2" class="st27" width="117.2" height="165.7"/>
	<polygon id="XMLID_10_" class="st28" points="167.2,332.8 167.2,450 50,332.8 	"/>
	<rect id="XMLID_14_" x="167.2" y="332.8" class="st29" width="165.7" height="117.2"/>
	<polygon id="XMLID_16_" class="st30" points="450,167.2 332.8,167.2 332.8,50 	"/>
	<rect id="XMLID_8_" x="167.2" y="50" class="st31" width="165.7" height="117.2"/>
	<rect id="XMLID_21_" x="167.2" y="167.2" class="st32" width="165.7" height="165.7"/>
	<polygon id="XMLID_15_" class="st33" points="450,332.8 332.8,450 332.8,332.8 	"/>
</g>
<g id="Layer_3" class="st0">
	<rect id="XMLID_3_" x="167" y="47" class="st34" width="165.3" height="260"/>
	<text transform="matrix(1 0 0 1 167 61.7437)" class="st21 st35 st36">STATISM</text>
	<text transform="matrix(1 0 0 1 167 84.5437)" class="st21 st35 st36">TRADITIONALISM</text>
	<text transform="matrix(1 0 0 1 167 107.3437)" class="st21 st35 st36">RIGHT</text>
	<text transform="matrix(1 0 0 1 167 130.1437)" class="st21 st35 st36">INDIVIDUALISM</text>
	<text transform="matrix(1 0 0 1 167 152.9437)" class="st21 st35 st36">MINARCHISM</text>
	<text transform="matrix(1 0 0 1 167 175.7437)" class="st21 st35 st36">MODERNISM</text>
	<text transform="matrix(1 0 0 1 167 198.5437)" class="st21 st35 st36">LEFT</text>
	<text transform="matrix(1 0 0 1 167 221.3437)" class="st21 st35 st36">COLLECTIVISM</text>
</g>
<g id="LABELZ">
	<g id="XMLID_7_" class="st37">
		<path id="XMLID_91_" d="M212.8,87.3c0.5,0,0.8,0,1.1-0.1s0.5-0.2,0.7-0.3c0.2-0.1,0.3-0.3,0.4-0.5c0.1-0.2,0.1-0.4,0.1-0.6
			c0-0.5-0.2-0.9-0.7-1.2c-0.4-0.3-1.2-0.7-2.3-1c-0.5-0.2-1-0.4-1.4-0.6c-0.5-0.2-0.9-0.5-1.3-0.8s-0.7-0.7-0.9-1.2s-0.4-1-0.4-1.7
			s0.1-1.3,0.4-1.8c0.3-0.5,0.6-1,1.1-1.4s1-0.7,1.7-0.9c0.7-0.2,1.4-0.3,2.2-0.3c1,0,1.8,0.1,2.5,0.3s1.3,0.4,1.8,0.7l-0.9,2.6
			c-0.4-0.2-0.9-0.4-1.4-0.6s-1.1-0.2-1.8-0.2c-0.8,0-1.3,0.1-1.7,0.3c-0.3,0.2-0.5,0.5-0.5,1c0,0.3,0.1,0.5,0.2,0.7
			c0.1,0.2,0.3,0.3,0.5,0.5c0.2,0.1,0.5,0.3,0.8,0.4s0.6,0.2,1,0.4c0.8,0.3,1.4,0.6,2,0.8c0.6,0.3,1,0.6,1.4,1s0.6,0.8,0.8,1.3
			s0.3,1.1,0.3,1.8c0,1.4-0.5,2.4-1.4,3.2c-1,0.7-2.4,1.1-4.3,1.1c-0.6,0-1.2,0-1.7-0.1s-1-0.2-1.4-0.3c-0.4-0.1-0.7-0.2-1-0.4
			c-0.3-0.1-0.5-0.2-0.7-0.4l0.9-2.6c0.4,0.2,1,0.5,1.6,0.6C211.1,87.1,211.9,87.3,212.8,87.3z"/>
		<path id="XMLID_93_" d="M231.4,75.1v2.8H227v11.8h-3.3V77.9h-4.3v-2.8H231.4z"/>
		<path id="XMLID_95_" d="M241.6,89.8c-0.2-0.5-0.3-1-0.5-1.6c-0.2-0.5-0.4-1.1-0.6-1.6h-5.7c-0.2,0.5-0.4,1.1-0.6,1.6
			c-0.2,0.5-0.4,1.1-0.5,1.6h-3.4c0.5-1.6,1.1-3,1.6-4.3s1-2.6,1.4-3.8c0.5-1.2,0.9-2.3,1.4-3.3c0.5-1.1,0.9-2.1,1.4-3.1h3.1
			c0.5,1,0.9,2,1.4,3.1s0.9,2.2,1.4,3.3c0.5,1.2,1,2.4,1.4,3.8c0.5,1.3,1,2.8,1.6,4.3H241.6z M237.6,78.4c-0.1,0.2-0.2,0.5-0.3,0.9
			s-0.3,0.8-0.5,1.3s-0.4,1-0.6,1.6c-0.2,0.6-0.4,1.2-0.7,1.8h4.2c-0.2-0.6-0.4-1.2-0.6-1.8c-0.2-0.6-0.4-1.1-0.6-1.6
			c-0.2-0.5-0.4-0.9-0.5-1.3C237.8,78.9,237.7,78.6,237.6,78.4z"/>
		<path id="XMLID_98_" d="M256,75.1v2.8h-4.4v11.8h-3.3V77.9h-4.4v-2.8H256z"/>
		<path id="XMLID_100_" d="M258.1,75.1h3.3v14.6h-3.3V75.1z"/>
		<path id="XMLID_102_" d="M268.7,87.3c0.5,0,0.8,0,1.1-0.1c0.3-0.1,0.5-0.2,0.7-0.3c0.2-0.1,0.3-0.3,0.4-0.5s0.1-0.4,0.1-0.6
			c0-0.5-0.2-0.9-0.7-1.2c-0.4-0.3-1.2-0.7-2.3-1c-0.5-0.2-1-0.4-1.4-0.6c-0.5-0.2-0.9-0.5-1.3-0.8s-0.7-0.7-0.9-1.2
			c-0.2-0.5-0.4-1-0.4-1.7s0.1-1.3,0.4-1.8s0.6-1,1.1-1.4s1-0.7,1.7-0.9c0.7-0.2,1.4-0.3,2.2-0.3c1,0,1.8,0.1,2.5,0.3
			s1.3,0.4,1.8,0.7l-0.9,2.6c-0.4-0.2-0.9-0.4-1.4-0.6s-1.1-0.2-1.8-0.2c-0.8,0-1.3,0.1-1.7,0.3c-0.3,0.2-0.5,0.5-0.5,1
			c0,0.3,0.1,0.5,0.2,0.7s0.3,0.3,0.5,0.5c0.2,0.1,0.5,0.3,0.8,0.4s0.6,0.2,1,0.4c0.8,0.3,1.4,0.6,2,0.8c0.6,0.3,1,0.6,1.4,1
			s0.6,0.8,0.8,1.3c0.2,0.5,0.3,1.1,0.3,1.8c0,1.4-0.5,2.4-1.4,3.2c-1,0.7-2.4,1.1-4.3,1.1c-0.6,0-1.2,0-1.7-0.1s-1-0.2-1.4-0.3
			c-0.4-0.1-0.7-0.2-1-0.4c-0.3-0.1-0.5-0.2-0.7-0.4l0.9-2.6c0.4,0.2,1,0.5,1.6,0.6C267,87.1,267.8,87.3,268.7,87.3z"/>
		<path id="XMLID_104_" d="M280.8,75.1c0.3,0.5,0.5,1,0.9,1.7s0.7,1.4,1,2.2c0.4,0.8,0.7,1.6,1.1,2.4s0.7,1.6,1,2.3
			c0.3-0.7,0.6-1.5,1-2.3s0.7-1.6,1.1-2.4s0.7-1.5,1-2.2s0.6-1.2,0.9-1.7h3c0.1,1,0.3,2,0.4,3.2s0.2,2.4,0.3,3.7
			c0.1,1.3,0.2,2.6,0.3,3.9c0.1,1.3,0.1,2.5,0.2,3.7h-3.2c0-1.4-0.1-3-0.2-4.6c-0.1-1.7-0.2-3.3-0.3-5c-0.3,0.6-0.5,1.2-0.8,2
			s-0.6,1.4-0.9,2.1s-0.6,1.4-0.9,2c-0.3,0.7-0.5,1.2-0.7,1.7h-2.3c-0.2-0.5-0.4-1-0.7-1.7c-0.3-0.7-0.6-1.3-0.9-2s-0.6-1.4-0.9-2.1
			s-0.6-1.4-0.8-2c-0.1,1.7-0.2,3.4-0.3,5c-0.1,1.7-0.1,3.2-0.2,4.6h-3.2c0.1-1.1,0.1-2.4,0.2-3.7s0.2-2.6,0.3-3.9
			c0.1-1.3,0.2-2.5,0.3-3.7c0.1-1.2,0.2-2.3,0.4-3.2H280.8z"/>
	</g>
	<g id="XMLID_9_" class="st37">
		<path id="XMLID_69_" d="M187.5,410.7c0.3,0.5,0.5,1,0.9,1.7c0.3,0.7,0.7,1.4,1,2.2c0.4,0.8,0.7,1.6,1.1,2.4s0.7,1.6,1,2.3
			c0.3-0.7,0.6-1.5,1-2.3s0.7-1.6,1.1-2.4s0.7-1.5,1-2.2s0.6-1.3,0.9-1.7h3c0.1,1,0.3,2,0.4,3.2c0.1,1.2,0.2,2.4,0.3,3.7
			c0.1,1.3,0.2,2.6,0.3,3.9s0.1,2.5,0.2,3.7h-3.3c0-1.4-0.1-3-0.2-4.6c-0.1-1.7-0.2-3.3-0.3-5c-0.3,0.6-0.5,1.2-0.8,2
			c-0.3,0.7-0.6,1.4-0.9,2.1c-0.3,0.7-0.6,1.4-0.9,2c-0.3,0.7-0.5,1.2-0.7,1.7h-2.3c-0.2-0.5-0.4-1-0.7-1.7s-0.6-1.3-0.9-2
			c-0.3-0.7-0.6-1.4-0.9-2.1c-0.3-0.7-0.6-1.4-0.8-2c-0.1,1.7-0.2,3.4-0.3,5c-0.1,1.7-0.1,3.2-0.2,4.6h-3.2c0.1-1.1,0.1-2.4,0.2-3.7
			c0.1-1.3,0.2-2.6,0.3-3.9s0.2-2.5,0.3-3.7s0.2-2.3,0.4-3.2H187.5z"/>
		<path id="XMLID_71_" d="M202.5,410.7h3.3v14.6h-3.3V410.7z"/>
		<path id="XMLID_73_" d="M218.9,425.3c-0.9-1.7-2-3.3-3-4.9c-1.1-1.6-2.3-3.2-3.5-4.6v9.5h-3.2v-14.6h2.7c0.5,0.5,1,1,1.5,1.7
			c0.6,0.7,1.1,1.4,1.7,2.2c0.6,0.8,1.2,1.6,1.7,2.4c0.6,0.8,1.1,1.6,1.6,2.4v-8.6h3.3v14.6h-2.8V425.3z"/>
		<path id="XMLID_75_" d="M234.8,425.3c-0.2-0.5-0.3-1-0.5-1.6c-0.2-0.6-0.4-1.1-0.6-1.6H228c-0.2,0.5-0.4,1.1-0.6,1.6
			c-0.2,0.5-0.4,1.1-0.5,1.6h-3.4c0.5-1.6,1.1-3,1.6-4.3s1-2.6,1.4-3.8c0.5-1.2,0.9-2.3,1.4-3.3c0.5-1.1,0.9-2.1,1.4-3.1h3.1
			c0.5,1,0.9,2,1.4,3.1c0.5,1.1,0.9,2.2,1.4,3.3c0.5,1.2,1,2.4,1.4,3.8c0.4,1.4,1,2.8,1.6,4.3H234.8z M230.8,414
			c-0.1,0.2-0.2,0.5-0.3,0.9c-0.1,0.4-0.3,0.8-0.5,1.3s-0.4,1-0.6,1.6c-0.2,0.6-0.4,1.2-0.7,1.8h4.2c-0.2-0.6-0.4-1.2-0.6-1.8
			c-0.2-0.6-0.4-1.1-0.6-1.6c-0.2-0.5-0.4-0.9-0.5-1.3C231,414.5,230.9,414.2,230.8,414z"/>
		<path id="XMLID_78_" d="M244.4,410.6c2.2,0,3.9,0.4,5,1.2c1.2,0.8,1.7,2,1.7,3.6c0,1-0.2,1.9-0.7,2.5c-0.5,0.6-1.1,1.1-2,1.5
			c0.3,0.4,0.6,0.8,0.9,1.3c0.3,0.5,0.6,1,1,1.5c0.3,0.5,0.6,1,0.9,1.6c0.3,0.6,0.6,1.1,0.8,1.6h-3.6c-0.3-0.5-0.5-1-0.8-1.4
			c-0.3-0.5-0.6-1-0.8-1.4c-0.3-0.5-0.6-0.9-0.9-1.3c-0.3-0.4-0.6-0.8-0.8-1.1h-1.7v5.3h-3.3V411c0.7-0.1,1.5-0.2,2.2-0.3
			C243.1,410.6,243.8,410.6,244.4,410.6z M244.6,413.4c-0.2,0-0.5,0-0.6,0c-0.2,0-0.4,0-0.5,0v3.9h0.9c1.2,0,2.1-0.2,2.6-0.5
			s0.8-0.8,0.8-1.6c0-0.7-0.3-1.2-0.8-1.5C246.4,413.5,245.6,413.4,244.6,413.4z"/>
		<path id="XMLID_81_" d="M260.4,425.6c-2.4,0-4.2-0.7-5.4-2c-1.2-1.3-1.9-3.2-1.9-5.6c0-1.2,0.2-2.3,0.6-3.2
			c0.4-0.9,0.9-1.7,1.6-2.4c0.7-0.7,1.4-1.1,2.4-1.5c1-0.4,1.9-0.5,3-0.5c0.6,0,1.2,0,1.7,0.1c0.5,0.1,0.9,0.2,1.3,0.3
			c0.4,0.1,0.7,0.2,0.9,0.4c0.3,0.1,0.4,0.2,0.5,0.3l-0.9,2.6c-0.4-0.2-1-0.4-1.6-0.6s-1.3-0.3-2-0.3c-0.5,0-1,0.1-1.5,0.3
			c-0.5,0.2-0.9,0.4-1.3,0.8c-0.4,0.4-0.7,0.9-0.9,1.4s-0.3,1.3-0.3,2.1c0,0.7,0.1,1.3,0.2,1.9c0.1,0.6,0.4,1.1,0.7,1.5
			c0.3,0.4,0.8,0.8,1.3,1s1.2,0.4,1.9,0.4c0.5,0,0.9,0,1.3-0.1c0.4-0.1,0.7-0.1,1-0.2c0.3-0.1,0.6-0.2,0.8-0.3s0.4-0.2,0.6-0.3
			l0.9,2.6c-0.5,0.3-1.1,0.5-2,0.8C262.5,425.5,261.5,425.6,260.4,425.6z"/>
		<path id="XMLID_83_" d="M276.2,410.7h3.3v14.6h-3.3v-6.2h-5.5v6.2h-3.3v-14.6h3.3v5.6h5.5V410.7z"/>
		<path id="XMLID_85_" d="M282.8,410.7h3.3v14.6h-3.3V410.7z"/>
		<path id="XMLID_87_" d="M293.4,422.8c0.5,0,0.8,0,1.1-0.1c0.3-0.1,0.5-0.2,0.7-0.3c0.2-0.1,0.3-0.3,0.4-0.5s0.1-0.4,0.1-0.6
			c0-0.5-0.2-0.9-0.7-1.2c-0.4-0.3-1.2-0.7-2.3-1c-0.5-0.2-1-0.4-1.4-0.6c-0.5-0.2-0.9-0.5-1.3-0.8s-0.7-0.7-0.9-1.2
			c-0.2-0.5-0.4-1-0.4-1.7s0.1-1.3,0.4-1.8s0.6-1,1.1-1.4c0.5-0.4,1-0.7,1.7-0.9c0.7-0.2,1.4-0.3,2.2-0.3c1,0,1.8,0.1,2.5,0.3
			c0.7,0.2,1.3,0.4,1.8,0.7l-0.9,2.6c-0.4-0.2-0.9-0.4-1.4-0.6s-1.1-0.2-1.8-0.2c-0.8,0-1.3,0.1-1.7,0.3c-0.4,0.2-0.5,0.6-0.5,1
			c0,0.3,0.1,0.5,0.2,0.7s0.3,0.3,0.5,0.5c0.2,0.1,0.5,0.3,0.8,0.4c0.3,0.1,0.6,0.2,1,0.4c0.8,0.3,1.4,0.6,2,0.8s1,0.6,1.4,1
			c0.4,0.4,0.6,0.8,0.8,1.3c0.2,0.5,0.3,1.1,0.3,1.8c0,1.4-0.5,2.4-1.4,3.2c-1,0.8-2.4,1.1-4.3,1.1c-0.6,0-1.2,0-1.7-0.1
			c-0.5-0.1-1-0.2-1.4-0.3c-0.4-0.1-0.7-0.2-1-0.4c-0.3-0.1-0.5-0.2-0.7-0.4l0.9-2.6c0.4,0.2,1,0.5,1.6,0.6
			C291.7,422.5,292.5,422.8,293.4,422.8z"/>
		<path id="XMLID_89_" d="M305.5,410.7c0.3,0.5,0.5,1,0.9,1.7s0.7,1.4,1,2.2c0.4,0.8,0.7,1.6,1.1,2.4s0.7,1.6,1,2.3
			c0.3-0.7,0.6-1.5,1-2.3s0.7-1.6,1.1-2.4s0.7-1.5,1-2.2s0.6-1.3,0.9-1.7h3c0.1,1,0.3,2,0.4,3.2s0.2,2.4,0.3,3.7
			c0.1,1.3,0.2,2.6,0.3,3.9c0.1,1.3,0.1,2.5,0.2,3.7h-3.3c0-1.4-0.1-3-0.2-4.6c-0.1-1.7-0.2-3.3-0.3-5c-0.3,0.6-0.5,1.2-0.8,2
			c-0.3,0.7-0.6,1.4-0.9,2.1s-0.6,1.4-0.9,2c-0.3,0.7-0.5,1.2-0.7,1.7h-2.3c-0.2-0.5-0.4-1-0.7-1.7c-0.3-0.7-0.6-1.3-0.9-2
			s-0.6-1.4-0.9-2.1s-0.6-1.4-0.8-2c-0.1,1.7-0.2,3.4-0.3,5c-0.1,1.7-0.1,3.2-0.2,4.6h-3.2c0.1-1.1,0.1-2.4,0.2-3.7
			c0.1-1.3,0.2-2.6,0.3-3.9c0.1-1.3,0.2-2.5,0.3-3.7s0.2-2.3,0.4-3.2H305.5z"/>
	</g>
	<g id="XMLID_12_" class="st37">
		<path id="XMLID_61_" d="M85.8,253.8v2.8h-9.7V242h3.3v11.7h6.4C85.8,253.7,85.8,253.8,85.8,253.8z"/>
		<path id="XMLID_63_" d="M87.9,256.6V242h9.8v2.8h-6.6v2.9H97v2.7h-5.8v3.5h7v2.8L87.9,256.6L87.9,256.6z"/>
		<path id="XMLID_65_" d="M100.6,256.6V242h9.7v2.8h-6.5v3h5.8v2.8h-5.8v6H100.6z"/>
		<path id="XMLID_67_" d="M123.9,242v2.8h-4.4v11.8h-3.3v-11.8h-4.4V242H123.9z"/>
	</g>
	<g id="XMLID_13_" class="st37">
		<path id="XMLID_38_" d="M373.5,241.8c2.2,0,3.9,0.4,5,1.2c1.2,0.8,1.7,2,1.7,3.6c0,1-0.2,1.9-0.7,2.5s-1.1,1.1-2,1.5
			c0.3,0.4,0.6,0.8,0.9,1.3s0.6,1,1,1.5c0.3,0.5,0.6,1,0.9,1.6s0.6,1.1,0.8,1.6h-3.7c-0.3-0.5-0.5-1-0.8-1.4c-0.3-0.5-0.6-1-0.8-1.4
			c-0.3-0.5-0.6-0.9-0.9-1.3c-0.3-0.4-0.6-0.8-0.8-1.1h-1.6v5.3h-3.3v-14.3c0.7-0.1,1.5-0.2,2.2-0.3
			C372.2,241.9,372.9,241.8,373.5,241.8z M373.7,244.6c-0.2,0-0.5,0-0.6,0c-0.2,0-0.4,0-0.5,0v3.9h0.9c1.2,0,2.1-0.2,2.6-0.5
			s0.8-0.8,0.8-1.6c0-0.7-0.3-1.2-0.8-1.5C375.5,244.8,374.7,244.6,373.7,244.6z"/>
		<path id="XMLID_53_" d="M383.2,242h3.3v14.6h-3.3V242z"/>
		<path id="XMLID_55_" d="M396.9,244.5c-1.5,0-2.6,0.4-3.3,1.3c-0.7,0.8-1,2-1,3.5c0,0.7,0.1,1.4,0.3,1.9c0.2,0.6,0.4,1.1,0.8,1.5
			s0.8,0.7,1.3,1s1.1,0.3,1.8,0.3c0.4,0,0.7,0,0.9,0s0.5,0,0.7-0.1v-5.1h3.3v7.2c-0.4,0.2-1,0.3-1.9,0.5s-1.9,0.3-3.2,0.3
			c-1.1,0-2.1-0.2-3-0.5c-0.9-0.3-1.6-0.8-2.3-1.5c-0.6-0.6-1.1-1.4-1.5-2.4c-0.3-0.9-0.5-2-0.5-3.2s0.2-2.3,0.6-3.2
			s0.9-1.7,1.6-2.4s1.4-1.1,2.3-1.5c0.9-0.3,1.8-0.5,2.8-0.5c0.7,0,1.3,0,1.9,0.1s1,0.2,1.4,0.3s0.7,0.2,1,0.4
			c0.3,0.1,0.4,0.2,0.6,0.3l-0.9,2.6c-0.4-0.2-1-0.4-1.5-0.6C398.3,244.6,397.6,244.5,396.9,244.5z"/>
		<path id="XMLID_57_" d="M413.4,242h3.3v14.6h-3.3v-6.2h-5.5v6.2h-3.3V242h3.3v5.6h5.5V242z"/>
		<path id="XMLID_59_" d="M430.8,242v2.8h-4.4v11.8h-3.3v-11.8h-4.4V242H430.8z"/>
	</g>
</g>
<g id="labelz2" class="st0">
	<g id="XMLID_4_" class="st4">
		<path id="XMLID_184_" d="M328.8,76.5l-1.7,1.7l-2.7-2.7l-7.1,7.1l-2-2l7.1-7.1l-2.7-2.7l1.7-1.7L328.8,76.5z"/>
		<path id="XMLID_186_" d="M332.7,80.2c1.3,1.3,2.1,2.6,2.3,3.7s-0.1,2.3-1.1,3.3c-0.6,0.6-1.3,1-1.9,1.1c-0.7,0.1-1.4,0-2.1-0.3
			c0,0.4-0.1,0.8-0.2,1.3s-0.2,1-0.3,1.5c-0.1,0.5-0.3,1-0.4,1.5c-0.2,0.5-0.3,1-0.5,1.5l-2.2-2.2c0.1-0.5,0.3-0.9,0.4-1.4
			s0.2-0.9,0.4-1.4c0.1-0.5,0.2-0.9,0.3-1.3c0.1-0.4,0.1-0.8,0.2-1.2l-1-1l-3.2,3.2l-2-2l8.7-8.7c0.5,0.3,1,0.7,1.5,1.2
			C331.9,79.5,332.4,79.9,332.7,80.2z M331.1,82c-0.1-0.1-0.3-0.3-0.4-0.4s-0.2-0.2-0.4-0.3l-2.4,2.4l0.6,0.6
			c0.7,0.7,1.4,1.2,1.9,1.3c0.5,0.1,1,0,1.4-0.5c0.4-0.4,0.6-0.9,0.4-1.4C332.2,83.2,331.8,82.7,331.1,82z"/>
		<path id="XMLID_189_" d="M336,101.4c0.2-0.4,0.4-0.8,0.6-1.3c0.2-0.4,0.4-0.9,0.6-1.3l-3.4-3.4c-0.4,0.2-0.9,0.4-1.3,0.6
			s-0.9,0.4-1.3,0.6l-2.1-2.1c1.3-0.6,2.5-1.2,3.6-1.7s2.2-1,3.2-1.4s2-0.8,2.9-1.2c0.9-0.4,1.8-0.7,2.7-1l1.9,1.9
			c-0.3,0.9-0.7,1.8-1,2.7c-0.4,0.9-0.8,1.9-1.2,2.9c-0.4,1-0.9,2.1-1.4,3.2s-1.1,2.3-1.7,3.6L336,101.4z M340.5,92.2
			c-0.2,0.1-0.4,0.2-0.7,0.3c-0.3,0.1-0.7,0.3-1.1,0.5s-0.8,0.4-1.3,0.6s-1,0.4-1.5,0.7l2.5,2.5c0.2-0.5,0.5-1,0.7-1.5
			s0.4-0.9,0.6-1.3s0.3-0.8,0.5-1.1C340.3,92.6,340.4,92.3,340.5,92.2z"/>
		<path id="XMLID_192_" d="M351.4,107.9c-0.8,0.8-1.5,1.3-2.4,1.6c-0.8,0.3-1.6,0.5-2.4,0.4s-1.6-0.3-2.4-0.8
			c-0.8-0.4-1.6-1.1-2.4-1.8c-0.4-0.4-0.8-0.8-1.2-1.3c-0.4-0.5-0.9-1-1.2-1.6l8.6-8.6c0.5,0.4,1.1,0.8,1.6,1.3s1,0.9,1.3,1.2
			c0.8,0.8,1.4,1.5,1.8,2.3s0.7,1.6,0.8,2.4c0.1,0.8-0.1,1.6-0.4,2.4C352.8,106.3,352.2,107.1,351.4,107.9z M342.9,105
			c0.1,0.1,0.2,0.2,0.3,0.3c0.1,0.1,0.3,0.3,0.4,0.4c1,1,2,1.5,3,1.5s1.9-0.5,2.8-1.4s1.4-1.9,1.4-2.8s-0.5-1.9-1.5-2.9
			c-0.1-0.1-0.3-0.3-0.4-0.4s-0.3-0.3-0.4-0.4L342.9,105z"/>
		<path id="XMLID_195_" d="M357.5,105.2l2,2l-8.8,8.8l-2-2L357.5,105.2z"/>
		<path id="XMLID_197_" d="M368,115.7l-1.7,1.7l-2.7-2.7l-7.1,7.1l-2-2l7.1-7.1l-2.7-2.7l1.7-1.7L368,115.7z"/>
		<path id="XMLID_199_" d="M369.3,117l2,2l-8.8,8.8l-2-2L369.3,117z"/>
		<path id="XMLID_201_" d="M377.3,133.8c-0.8,0.8-1.5,1.3-2.3,1.7c-0.8,0.3-1.6,0.5-2.4,0.5s-1.5-0.2-2.3-0.5s-1.4-0.8-2-1.4
			c-0.6-0.6-1.1-1.3-1.4-2s-0.5-1.5-0.5-2.3s0.2-1.6,0.5-2.4c0.3-0.8,0.9-1.6,1.6-2.3c0.8-0.8,1.5-1.3,2.3-1.6
			c0.8-0.3,1.6-0.5,2.4-0.5s1.6,0.2,2.3,0.5c0.7,0.3,1.4,0.8,2,1.4s1.1,1.3,1.4,2s0.5,1.5,0.5,2.3s-0.2,1.6-0.5,2.4
			C378.6,132.3,378.1,133.1,377.3,133.8z M370.6,127.1c-0.4,0.4-0.8,0.9-1,1.3c-0.2,0.5-0.4,0.9-0.4,1.4c-0.1,0.4,0,0.9,0.2,1.3
			c0.2,0.4,0.4,0.8,0.8,1.2s0.8,0.6,1.2,0.8c0.4,0.2,0.9,0.2,1.3,0.2c0.4-0.1,0.9-0.2,1.4-0.4s0.9-0.6,1.3-1s0.8-0.9,1-1.3
			c0.2-0.5,0.4-0.9,0.4-1.4c0.1-0.4,0-0.9-0.2-1.3c-0.2-0.4-0.4-0.8-0.8-1.2c-0.4-0.4-0.8-0.6-1.2-0.8c-0.4-0.1-0.9-0.2-1.3-0.1
			s-0.9,0.2-1.4,0.4C371.5,126.4,371,126.7,370.6,127.1z"/>
		<path id="XMLID_204_" d="M380.5,145.8c0.4-1.6,0.8-3.2,1.1-4.8c0.3-1.6,0.5-3.3,0.7-4.9l-5.8,5.8l-2-2l8.8-8.8l1.6,1.6
			c0,0.6,0,1.2-0.1,2c-0.1,0.7-0.2,1.5-0.3,2.3c-0.1,0.8-0.2,1.6-0.4,2.5c-0.1,0.8-0.3,1.6-0.5,2.4l5.2-5.2l2,2l-8.8,8.8
			L380.5,145.8z"/>
		<path id="XMLID_206_" d="M390.1,155.5c0.2-0.4,0.4-0.8,0.6-1.3c0.2-0.4,0.4-0.9,0.6-1.3l-3.4-3.4c-0.4,0.2-0.9,0.4-1.3,0.6
			c-0.4,0.2-0.9,0.4-1.3,0.6l-2.1-2.1c1.3-0.6,2.5-1.2,3.6-1.7s2.2-1,3.2-1.4s2-0.8,2.9-1.2s1.8-0.7,2.7-1l1.9,1.9
			c-0.3,0.9-0.7,1.8-1,2.7c-0.4,0.9-0.8,1.9-1.2,2.9c-0.4,1-0.9,2-1.4,3.2c-0.5,1.1-1.1,2.3-1.7,3.6L390.1,155.5z M394.5,146.2
			c-0.2,0.1-0.4,0.2-0.7,0.3c-0.3,0.1-0.7,0.3-1.1,0.5s-0.8,0.4-1.3,0.6c-0.5,0.2-1,0.4-1.5,0.7l2.5,2.5c0.2-0.5,0.5-1,0.7-1.5
			s0.4-0.9,0.6-1.3c0.2-0.4,0.3-0.8,0.5-1.1C394.4,146.7,394.5,146.4,394.5,146.2z"/>
		<path id="XMLID_209_" d="M401,162.9l-1.7,1.7l-5.9-5.9l8.8-8.8l2,2l-7.1,7.1L401,162.9z"/>
		<path id="XMLID_211_" d="M409.4,157.1l2,2l-8.8,8.8l-2-2L409.4,157.1z"/>
		<path id="XMLID_213_" d="M408.5,170.8c0.3,0.3,0.5,0.5,0.8,0.6c0.2,0.1,0.4,0.2,0.6,0.2s0.4,0,0.5-0.1c0.2-0.1,0.3-0.2,0.4-0.3
			c0.3-0.3,0.4-0.7,0.3-1.1c-0.1-0.5-0.3-1.1-0.8-2c-0.2-0.4-0.4-0.8-0.5-1.2c-0.2-0.4-0.3-0.8-0.3-1.3c0-0.4,0-0.9,0.2-1.3
			c0.1-0.4,0.4-0.8,0.8-1.3c0.4-0.4,0.9-0.7,1.3-0.9c0.5-0.2,1-0.2,1.5-0.2c0.5,0.1,1,0.2,1.5,0.5s1,0.7,1.5,1.2
			c0.6,0.6,1,1.2,1.3,1.7c0.3,0.6,0.5,1.1,0.6,1.5l-2.1,1c-0.1-0.4-0.3-0.8-0.5-1.2s-0.5-0.8-0.9-1.2c-0.5-0.5-0.9-0.8-1.2-0.8
			c-0.3-0.1-0.6,0-0.9,0.3c-0.2,0.2-0.3,0.3-0.3,0.5s0,0.4,0,0.6c0.1,0.2,0.1,0.5,0.2,0.7c0.1,0.3,0.2,0.5,0.4,0.8
			c0.3,0.6,0.5,1.2,0.7,1.7s0.3,1,0.3,1.4s-0.1,0.9-0.3,1.3c-0.2,0.4-0.5,0.8-0.9,1.2c-0.8,0.8-1.8,1.2-2.8,1.1
			c-1-0.1-2.1-0.8-3.3-1.9c-0.4-0.4-0.7-0.8-1-1.1c-0.3-0.4-0.5-0.7-0.7-1s-0.3-0.6-0.4-0.8c-0.1-0.3-0.2-0.5-0.2-0.7l2.1-1
			c0.1,0.4,0.3,0.9,0.6,1.4C407.5,169.7,407.9,170.2,408.5,170.8z"/>
		<path id="XMLID_215_" d="M423.1,170.8c-0.1,0.4-0.3,1-0.5,1.6s-0.4,1.3-0.7,2c-0.3,0.7-0.5,1.4-0.8,2.1c-0.3,0.7-0.6,1.4-0.8,2
			c0.6-0.3,1.3-0.5,2-0.8s1.4-0.6,2.1-0.8c0.7-0.3,1.4-0.5,2-0.7s1.1-0.4,1.6-0.5l1.8,1.8c-0.5,0.7-1.1,1.4-1.7,2.2
			c-0.7,0.8-1.3,1.6-2.1,2.5c-0.7,0.8-1.5,1.7-2.2,2.5s-1.4,1.6-2.1,2.3l-1.9-1.9c0.8-0.9,1.7-1.8,2.7-2.9c1-1.1,1.9-2.1,2.9-3.2
			c-0.5,0.2-1.1,0.4-1.7,0.7c-0.6,0.2-1.2,0.5-1.9,0.7c-0.6,0.2-1.2,0.5-1.8,0.7c-0.6,0.2-1,0.4-1.4,0.6l-1.4-1.4
			c0.2-0.4,0.4-0.9,0.6-1.4c0.2-0.6,0.5-1.2,0.7-1.8s0.5-1.2,0.7-1.9s0.5-1.2,0.7-1.7c-1.1,0.9-2.2,1.9-3.2,2.9
			c-1.1,1-2,1.9-2.9,2.7l-1.9-1.9c0.7-0.7,1.5-1.4,2.3-2.1c0.8-0.7,1.7-1.5,2.5-2.2s1.7-1.4,2.5-2.1c0.8-0.7,1.5-1.2,2.2-1.7
			L423.1,170.8z"/>
	</g>
	<g id="XMLID_20_" class="st4">
		<path id="XMLID_163_" d="M99.9,330.1c-0.1,0.4-0.3,1-0.5,1.6s-0.4,1.3-0.7,2c-0.3,0.7-0.5,1.4-0.8,2.1s-0.6,1.4-0.8,2
			c0.6-0.3,1.3-0.5,2-0.8s1.4-0.6,2.1-0.8c0.7-0.3,1.3-0.5,2-0.7c0.6-0.2,1.1-0.4,1.6-0.5l1.8,1.8c-0.5,0.7-1.1,1.4-1.7,2.2
			c-0.7,0.8-1.3,1.6-2.1,2.5c-0.7,0.8-1.5,1.7-2.2,2.5s-1.4,1.6-2.1,2.3l-1.9-1.9c0.8-0.9,1.7-1.8,2.7-2.9s1.9-2.1,2.9-3.2
			c-0.5,0.2-1.1,0.4-1.7,0.7c-0.6,0.2-1.2,0.5-1.9,0.7c-0.6,0.2-1.2,0.5-1.8,0.7c-0.6,0.2-1,0.4-1.4,0.6l-1.4-1.4
			c0.2-0.4,0.4-0.9,0.6-1.4c0.2-0.6,0.5-1.2,0.7-1.8c0.2-0.6,0.5-1.2,0.7-1.9s0.5-1.2,0.7-1.7c-1.1,0.9-2.2,1.9-3.2,2.9
			c-1.1,1-2,1.9-2.9,2.7l-1.9-1.9c0.7-0.7,1.5-1.4,2.3-2.1s1.7-1.5,2.5-2.2s1.7-1.4,2.5-2.1s1.5-1.2,2.2-1.7L99.9,330.1z"/>
		<path id="XMLID_165_" d="M113,352c-0.8,0.8-1.5,1.3-2.3,1.7c-0.8,0.3-1.6,0.5-2.4,0.5s-1.5-0.2-2.3-0.5s-1.4-0.8-2-1.4
			s-1.1-1.3-1.4-2s-0.5-1.5-0.5-2.3s0.2-1.6,0.5-2.4s0.9-1.6,1.6-2.3c0.8-0.8,1.5-1.3,2.3-1.6c0.8-0.3,1.6-0.5,2.4-0.5
			s1.6,0.2,2.3,0.5c0.7,0.3,1.4,0.8,2,1.4s1.1,1.3,1.4,2s0.5,1.5,0.5,2.3s-0.2,1.6-0.5,2.4C114.3,350.4,113.7,351.2,113,352z
			 M106.2,345.2c-0.4,0.4-0.8,0.9-1,1.3c-0.2,0.5-0.4,0.9-0.4,1.4c-0.1,0.4,0,0.9,0.2,1.3s0.4,0.8,0.8,1.2c0.4,0.4,0.8,0.6,1.2,0.8
			c0.4,0.2,0.9,0.2,1.3,0.2c0.4-0.1,0.9-0.2,1.4-0.4s0.9-0.6,1.3-1s0.8-0.9,1-1.3c0.2-0.5,0.4-0.9,0.4-1.4c0.1-0.4,0-0.9-0.2-1.3
			s-0.4-0.8-0.8-1.2c-0.4-0.4-0.8-0.6-1.2-0.8c-0.4-0.1-0.9-0.2-1.3-0.1s-0.9,0.2-1.4,0.4C107.1,344.5,106.6,344.8,106.2,345.2z"/>
		<path id="XMLID_168_" d="M122.3,361.3c-0.8,0.8-1.5,1.3-2.4,1.6c-0.8,0.3-1.6,0.5-2.4,0.4s-1.6-0.3-2.4-0.8
			c-0.8-0.4-1.6-1.1-2.4-1.8c-0.4-0.4-0.8-0.8-1.2-1.3c-0.4-0.5-0.9-1-1.2-1.6l8.6-8.6c0.5,0.4,1.1,0.8,1.6,1.3s1,0.9,1.3,1.2
			c0.8,0.8,1.4,1.5,1.8,2.3s0.7,1.6,0.8,2.4c0.1,0.8-0.1,1.6-0.4,2.4C123.7,359.7,123.1,360.5,122.3,361.3z M113.8,358.4
			c0.1,0.1,0.2,0.2,0.3,0.3c0.1,0.1,0.3,0.3,0.4,0.4c1,1,2,1.5,3,1.5s1.9-0.5,2.8-1.4s1.4-1.9,1.4-2.8s-0.5-1.9-1.5-2.9
			c-0.1-0.1-0.3-0.3-0.4-0.4s-0.3-0.3-0.4-0.4L113.8,358.4z"/>
		<path id="XMLID_171_" d="M119.6,367.4l8.8-8.8l6,6l-1.7,1.7l-4-4L127,364l3.5,3.5l-1.6,1.6l-3.5-3.5l-2.1,2.1l4.3,4.3l-1.7,1.7
			L119.6,367.4z"/>
		<path id="XMLID_173_" d="M138.8,368.8c1.3,1.3,2.1,2.6,2.3,3.7s-0.1,2.3-1.1,3.3c-0.6,0.6-1.3,1-1.9,1.1c-0.7,0.1-1.4,0-2.1-0.3
			c0,0.4-0.1,0.8-0.2,1.3c-0.1,0.5-0.2,1-0.3,1.5s-0.3,1-0.4,1.5c-0.2,0.5-0.3,1-0.5,1.5l-2.2-2.2c0.1-0.5,0.3-0.9,0.4-1.4
			c0.1-0.5,0.2-0.9,0.4-1.4c0.1-0.5,0.2-0.9,0.3-1.3s0.1-0.8,0.2-1.2l-1-1l-3.2,3.2l-2-2l8.7-8.7c0.5,0.3,1,0.7,1.5,1.2
			C138,368,138.4,368.4,138.8,368.8z M137.2,370.6c-0.1-0.1-0.3-0.3-0.4-0.4c-0.1-0.1-0.2-0.2-0.4-0.3l-2.4,2.4l0.6,0.6
			c0.7,0.7,1.4,1.2,1.9,1.3c0.5,0.1,1,0,1.4-0.5c0.4-0.4,0.6-0.9,0.4-1.4C138.2,371.8,137.8,371.2,137.2,370.6z"/>
		<path id="XMLID_176_" d="M141.7,389.5c0.4-1.6,0.8-3.2,1.1-4.8c0.3-1.6,0.5-3.3,0.7-4.9l-5.8,5.8l-2-2l8.8-8.8l1.6,1.6
			c0,0.6,0,1.2-0.1,2c-0.1,0.7-0.2,1.5-0.3,2.3s-0.2,1.6-0.4,2.5c-0.1,0.8-0.3,1.6-0.5,2.4l5.2-5.2l2,2l-8.8,8.8L141.7,389.5z"/>
		<path id="XMLID_178_" d="M154.2,384.4l2,2l-8.8,8.8l-2-2L154.2,384.4z"/>
		<path id="XMLID_180_" d="M153.3,398.1c0.3,0.3,0.5,0.5,0.8,0.6c0.2,0.1,0.4,0.2,0.6,0.2c0.2,0,0.4,0,0.5-0.1
			c0.2-0.1,0.3-0.2,0.4-0.3c0.3-0.3,0.4-0.7,0.3-1.1c-0.1-0.5-0.3-1.1-0.8-2c-0.2-0.4-0.4-0.8-0.5-1.2c-0.2-0.4-0.3-0.8-0.3-1.3
			c0-0.4,0-0.9,0.2-1.3c0.1-0.4,0.4-0.8,0.8-1.3s0.9-0.7,1.3-0.9c0.5-0.2,1-0.2,1.5-0.2c0.5,0.1,1,0.2,1.5,0.5s1,0.7,1.5,1.2
			c0.6,0.6,1,1.2,1.3,1.7c0.3,0.6,0.5,1.1,0.6,1.5l-2.1,1c-0.1-0.4-0.3-0.8-0.5-1.2c-0.2-0.4-0.5-0.8-0.9-1.2
			c-0.5-0.5-0.9-0.8-1.2-0.8c-0.3-0.1-0.6,0-0.9,0.3c-0.2,0.2-0.3,0.3-0.3,0.5s0,0.4,0,0.6c0.1,0.2,0.1,0.5,0.2,0.7
			c0.1,0.3,0.2,0.5,0.4,0.8c0.3,0.6,0.5,1.2,0.7,1.7s0.3,1,0.3,1.4s-0.1,0.9-0.3,1.3s-0.5,0.8-0.9,1.2c-0.8,0.8-1.7,1.2-2.8,1.1
			c-1-0.1-2.1-0.8-3.3-1.9c-0.4-0.4-0.7-0.8-1-1.1c-0.3-0.4-0.5-0.7-0.7-1s-0.3-0.6-0.4-0.8c-0.1-0.3-0.2-0.5-0.2-0.7l2.1-1
			c0.1,0.4,0.3,0.9,0.6,1.4C152.4,397.1,152.8,397.6,153.3,398.1z"/>
		<path id="XMLID_182_" d="M168,398.2c-0.1,0.4-0.3,1-0.5,1.6s-0.4,1.3-0.7,2s-0.5,1.4-0.8,2.1s-0.6,1.4-0.8,2
			c0.6-0.3,1.3-0.5,2-0.8s1.4-0.6,2.1-0.8c0.7-0.3,1.4-0.5,2-0.7s1.1-0.4,1.6-0.5l1.8,1.8c-0.5,0.7-1.1,1.4-1.7,2.2
			c-0.7,0.8-1.3,1.6-2.1,2.5s-1.5,1.7-2.2,2.5s-1.4,1.6-2.1,2.3l-1.9-1.9c0.8-0.9,1.7-1.8,2.7-2.9s1.9-2.1,2.9-3.2
			c-0.5,0.2-1.1,0.4-1.7,0.7c-0.6,0.2-1.2,0.5-1.9,0.7c-0.6,0.2-1.2,0.5-1.8,0.7s-1,0.4-1.4,0.6l-1.4-1.4c0.2-0.4,0.4-0.9,0.6-1.4
			s0.5-1.2,0.7-1.8s0.5-1.2,0.7-1.9s0.5-1.2,0.7-1.7c-1.1,0.9-2.2,1.9-3.2,2.9c-1.1,1-2,1.9-2.9,2.7l-1.9-1.9
			c0.7-0.7,1.5-1.4,2.3-2.1s1.7-1.5,2.5-2.2s1.7-1.4,2.5-2.1s1.5-1.2,2.2-1.7L168,398.2z"/>
	</g>
	<g id="XMLID_106_" class="st4">
		<path id="XMLID_138_" d="M93.3,178.1c-1.4,1.4-2.9,2.1-4.5,2.1c-1.5,0-3.1-0.8-4.5-2.3c-0.7-0.7-1.3-1.5-1.6-2.3
			c-0.3-0.8-0.5-1.6-0.5-2.4c0-0.8,0.2-1.6,0.5-2.3c0.3-0.8,0.8-1.5,1.5-2.1c0.4-0.4,0.7-0.7,1.1-0.9c0.4-0.3,0.7-0.5,1-0.6
			c0.3-0.2,0.6-0.3,0.8-0.3c0.2-0.1,0.4-0.1,0.5-0.2l1,2.2c-0.4,0.1-0.9,0.3-1.3,0.6c-0.5,0.3-0.9,0.6-1.4,1.1
			c-0.3,0.3-0.6,0.7-0.7,1c-0.2,0.4-0.3,0.8-0.3,1.3s0.1,0.9,0.3,1.4c0.2,0.5,0.6,1,1.1,1.5c0.4,0.4,0.8,0.7,1.3,1s0.9,0.4,1.3,0.5
			c0.5,0.1,0.9,0,1.4-0.2s0.9-0.5,1.4-0.9c0.3-0.3,0.5-0.6,0.7-0.8c0.2-0.3,0.4-0.5,0.5-0.7s0.2-0.4,0.3-0.6
			c0.1-0.2,0.1-0.4,0.2-0.5l2.1,1c-0.1,0.4-0.4,1-0.7,1.6C94.5,176.8,93.9,177.4,93.3,178.1z"/>
		<path id="XMLID_140_" d="M101,161.2c0.8,0.8,1.3,1.5,1.7,2.3c0.3,0.8,0.5,1.6,0.5,2.4c0,0.8-0.2,1.5-0.5,2.3s-0.8,1.4-1.4,2
			s-1.3,1.1-2,1.4c-0.7,0.3-1.5,0.5-2.3,0.5s-1.6-0.2-2.4-0.5s-1.6-0.9-2.3-1.6c-0.8-0.8-1.3-1.5-1.6-2.3c-0.3-0.8-0.5-1.6-0.5-2.4
			c0-0.8,0.2-1.6,0.5-2.3s0.8-1.4,1.4-2s1.3-1.1,2-1.4c0.7-0.3,1.5-0.5,2.3-0.5s1.6,0.2,2.4,0.5C99.4,159.9,100.2,160.4,101,161.2z
			 M94.2,167.9c0.4,0.4,0.9,0.8,1.3,1c0.5,0.2,0.9,0.4,1.4,0.4c0.4,0.1,0.9,0,1.3-0.2s0.8-0.4,1.2-0.8c0.4-0.4,0.6-0.8,0.8-1.2
			s0.2-0.9,0.2-1.3c-0.1-0.4-0.2-0.9-0.4-1.4c-0.2-0.5-0.6-0.9-1-1.3c-0.4-0.4-0.9-0.8-1.3-1c-0.5-0.2-0.9-0.4-1.4-0.4
			c-0.4-0.1-0.9,0-1.3,0.2s-0.8,0.4-1.2,0.8c-0.4,0.4-0.6,0.8-0.8,1.2c-0.1,0.4-0.2,0.9-0.1,1.3c0.1,0.4,0.2,0.9,0.4,1.4
			C93.5,167.1,93.8,167.5,94.2,167.9z"/>
		<path id="XMLID_143_" d="M111.2,156.4l1.7,1.7L107,164l-8.8-8.8l2-2l7.1,7.1L111.2,156.4z"/>
		<path id="XMLID_145_" d="M118.4,149.2l1.7,1.7l-5.9,5.9l-8.8-8.8l2-2l7.1,7.1L118.4,149.2z"/>
		<path id="XMLID_147_" d="M121.4,149.6l-8.8-8.8l6-6l1.7,1.7l-4,4l1.7,1.7l3.5-3.5l1.6,1.6l-3.5,3.5l2.1,2.1l4.3-4.3l1.7,1.7
			L121.4,149.6z"/>
		<path id="XMLID_149_" d="M133.3,138.1c-1.4,1.4-2.9,2.1-4.5,2.1c-1.5,0-3.1-0.8-4.5-2.3c-0.7-0.7-1.3-1.5-1.6-2.3
			c-0.3-0.8-0.5-1.6-0.5-2.4s0.2-1.6,0.5-2.3c0.3-0.8,0.8-1.5,1.5-2.1c0.4-0.4,0.7-0.7,1.1-0.9c0.4-0.3,0.7-0.5,1-0.6
			c0.3-0.2,0.6-0.3,0.8-0.3c0.2-0.1,0.4-0.1,0.5-0.2l1,2.2c-0.4,0.1-0.9,0.3-1.3,0.6c-0.5,0.3-0.9,0.6-1.4,1.1
			c-0.3,0.3-0.6,0.7-0.7,1c-0.2,0.4-0.3,0.8-0.3,1.3s0.1,0.9,0.3,1.4c0.2,0.5,0.6,1,1.1,1.5c0.4,0.4,0.8,0.7,1.3,1s0.9,0.4,1.3,0.5
			c0.5,0.1,0.9,0,1.4-0.2s0.9-0.5,1.4-0.9c0.3-0.3,0.5-0.6,0.7-0.8c0.2-0.3,0.4-0.5,0.5-0.7s0.2-0.4,0.3-0.6
			c0.1-0.2,0.1-0.4,0.2-0.5l2.1,1c-0.1,0.4-0.4,1-0.7,1.6C134.5,136.7,134,137.4,133.3,138.1z"/>
		<path id="XMLID_151_" d="M135.3,118l1.7,1.7l-2.7,2.7l7.1,7.1l-2,2l-7.1-7.1l-2.7,2.7l-1.7-1.7L135.3,118z"/>
		<path id="XMLID_153_" d="M136.6,116.8l2-2l8.8,8.8l-2,2L136.6,116.8z"/>
		<path id="XMLID_155_" d="M152.1,118.9c-1.1-0.4-2.2-0.8-3.3-1.3s-2.3-0.9-3.3-1.4c-1.1-0.5-2.1-0.9-3.1-1.4s-1.8-0.9-2.6-1.2
			l2.2-2.2c0.7,0.3,1.4,0.7,2.2,1.1s1.6,0.8,2.4,1.1s1.6,0.7,2.3,1.1c0.7,0.3,1.4,0.6,1.9,0.8c-0.2-0.6-0.5-1.2-0.8-1.9
			c-0.3-0.7-0.7-1.5-1.1-2.3c-0.4-0.8-0.8-1.6-1.1-2.4c-0.4-0.8-0.8-1.5-1.1-2.2l2.1-2.1c0.4,0.8,0.8,1.6,1.2,2.6
			c0.5,1,0.9,2,1.4,3.1s0.9,2.2,1.4,3.3c0.5,1.1,0.9,2.2,1.3,3.3L152.1,118.9z"/>
		<path id="XMLID_157_" d="M149.8,103.5l2-2l8.8,8.8l-2,2L149.8,103.5z"/>
		<path id="XMLID_159_" d="M163.5,104.4c0.3-0.3,0.5-0.5,0.6-0.8c0.1-0.2,0.2-0.4,0.2-0.6s0-0.4-0.1-0.5c-0.1-0.2-0.2-0.3-0.3-0.4
			c-0.3-0.3-0.7-0.4-1.1-0.3c-0.5,0.1-1.1,0.3-2,0.8c-0.4,0.2-0.8,0.4-1.2,0.5c-0.4,0.2-0.8,0.3-1.3,0.3c-0.4,0-0.9,0-1.3-0.2
			c-0.4-0.1-0.8-0.4-1.3-0.8c-0.4-0.4-0.7-0.9-0.9-1.3c-0.2-0.5-0.2-1-0.2-1.5c0.1-0.5,0.2-1,0.5-1.5s0.7-1,1.2-1.5
			c0.6-0.6,1.2-1,1.7-1.3c0.6-0.3,1.1-0.5,1.5-0.6l1,2.1c-0.4,0.1-0.8,0.3-1.2,0.5s-0.8,0.5-1.2,0.9c-0.5,0.5-0.8,0.9-0.8,1.2
			c-0.1,0.3,0,0.6,0.3,0.9c0.2,0.2,0.3,0.3,0.5,0.3s0.4,0,0.6,0c0.2-0.1,0.5-0.1,0.7-0.2c0.3-0.1,0.5-0.2,0.8-0.4
			c0.6-0.3,1.2-0.5,1.7-0.7s1-0.3,1.4-0.3s0.9,0.1,1.3,0.3c0.4,0.2,0.8,0.5,1.2,0.9c0.8,0.8,1.2,1.7,1.1,2.8c-0.1,1-0.8,2.1-1.9,3.3
			c-0.4,0.4-0.8,0.7-1.1,1c-0.4,0.3-0.7,0.5-1,0.7s-0.6,0.3-0.8,0.4c-0.3,0.1-0.5,0.2-0.7,0.2l-1-2.1c0.4-0.1,0.9-0.3,1.4-0.6
			C162.5,105.4,163,105,163.5,104.4z"/>
		<path id="XMLID_161_" d="M163.6,89.8c0.4,0.1,1,0.3,1.6,0.5s1.3,0.4,2,0.7c0.7,0.3,1.4,0.5,2.1,0.8c0.7,0.3,1.4,0.6,2,0.8
			c-0.3-0.6-0.5-1.3-0.8-2s-0.6-1.4-0.8-2.1c-0.3-0.7-0.5-1.3-0.7-2c-0.2-0.6-0.4-1.1-0.5-1.6l1.8-1.8c0.7,0.5,1.4,1.1,2.2,1.7
			c0.8,0.7,1.6,1.3,2.5,2.1c0.8,0.7,1.7,1.5,2.5,2.2s1.6,1.4,2.3,2.1l-1.9,1.9c-0.9-0.8-1.8-1.7-2.9-2.7c-1.1-1-2.1-1.9-3.2-2.9
			c0.2,0.5,0.4,1.1,0.7,1.7c0.2,0.6,0.5,1.2,0.7,1.9c0.2,0.6,0.5,1.2,0.7,1.8s0.4,1,0.6,1.4l-1.4,1.4c-0.4-0.2-0.9-0.4-1.4-0.6
			c-0.6-0.2-1.2-0.5-1.8-0.7s-1.2-0.5-1.9-0.7s-1.2-0.5-1.7-0.7c0.9,1.1,1.9,2.2,2.9,3.2c1,1.1,1.9,2,2.7,2.9L170,101
			c-0.7-0.7-1.4-1.5-2.1-2.3c-0.7-0.8-1.5-1.7-2.2-2.5s-1.4-1.7-2.1-2.5c-0.7-0.8-1.2-1.5-1.7-2.2L163.6,89.8z"/>
	</g>
	<g id="XMLID_107_" class="st4">
		<path id="XMLID_109_" d="M319.9,414.7l2-2l8.8,8.8l-2,2L319.9,414.7z"/>
		<path id="XMLID_111_" d="M338.7,413.6c-1.6-0.4-3.2-0.8-4.8-1.1c-1.6-0.3-3.3-0.5-4.9-0.7l5.8,5.8l-2,2l-8.8-8.8l1.6-1.6
			c0.6,0,1.2,0,2,0.1c0.7,0.1,1.5,0.2,2.3,0.3s1.6,0.2,2.5,0.4c0.8,0.1,1.6,0.3,2.4,0.5l-5.2-5.2l2-2l8.8,8.8L338.7,413.6z"/>
		<path id="XMLID_113_" d="M345.7,397.8c0.8,0.8,1.3,1.5,1.6,2.4s0.5,1.6,0.4,2.4s-0.3,1.6-0.8,2.4c-0.4,0.8-1.1,1.6-1.8,2.4
			c-0.4,0.4-0.8,0.8-1.3,1.2s-1,0.9-1.6,1.2l-8.6-8.6c0.4-0.5,0.8-1.1,1.3-1.6s0.9-1,1.2-1.3c0.8-0.8,1.5-1.4,2.3-1.8
			s1.6-0.7,2.4-0.8c0.8-0.1,1.6,0.1,2.4,0.4C344.1,396.4,344.9,397,345.7,397.8z M342.7,406.3c0.1-0.1,0.2-0.2,0.3-0.3
			c0.1-0.1,0.3-0.3,0.4-0.4c1-1,1.5-2,1.5-3s-0.5-1.9-1.4-2.8s-1.9-1.4-2.8-1.4s-1.9,0.5-2.9,1.5c-0.1,0.1-0.3,0.3-0.4,0.4
			s-0.3,0.3-0.4,0.4L342.7,406.3z"/>
		<path id="XMLID_116_" d="M342.9,391.7l2-2l8.8,8.8l-2,2L342.9,391.7z"/>
		<path id="XMLID_118_" d="M358.4,393.9c-1.1-0.4-2.2-0.8-3.3-1.3c-1.1-0.5-2.3-0.9-3.3-1.4c-1.1-0.5-2.1-0.9-3.1-1.4
			s-1.8-0.9-2.6-1.2l2.2-2.2c0.7,0.3,1.4,0.7,2.2,1.1c0.8,0.4,1.6,0.8,2.4,1.1c0.8,0.4,1.6,0.7,2.3,1.1c0.7,0.3,1.4,0.6,1.9,0.8
			c-0.2-0.6-0.5-1.2-0.8-1.9c-0.3-0.7-0.7-1.5-1.1-2.3s-0.8-1.6-1.1-2.4c-0.4-0.8-0.8-1.5-1.1-2.2l2.1-2.1c0.4,0.8,0.8,1.6,1.2,2.6
			c0.5,1,0.9,2,1.4,3.1s0.9,2.2,1.4,3.3c0.5,1.1,0.9,2.2,1.3,3.3L358.4,393.9z"/>
		<path id="XMLID_120_" d="M356.1,378.5l2-2l8.8,8.8l-2,2L356.1,378.5z"/>
		<path id="XMLID_122_" d="M372.3,371.2c0.8,0.8,1.3,1.5,1.6,2.4c0.3,0.8,0.5,1.6,0.4,2.4s-0.3,1.6-0.8,2.4
			c-0.4,0.8-1.1,1.6-1.8,2.4c-0.4,0.4-0.8,0.8-1.3,1.2c-0.5,0.4-1,0.9-1.6,1.2l-8.6-8.6c0.4-0.5,0.8-1.1,1.3-1.6s0.9-1,1.2-1.3
			c0.8-0.8,1.5-1.4,2.3-1.8s1.6-0.7,2.4-0.8c0.8-0.1,1.6,0.1,2.4,0.4C370.7,369.8,371.5,370.4,372.3,371.2z M369.3,379.7
			c0.1-0.1,0.2-0.2,0.3-0.3c0.1-0.1,0.3-0.3,0.4-0.4c1-1,1.5-2,1.5-3s-0.5-1.9-1.4-2.8s-1.9-1.4-2.8-1.4s-1.9,0.5-2.9,1.5
			c-0.1,0.1-0.3,0.3-0.4,0.4s-0.3,0.3-0.4,0.4L369.3,379.7z"/>
		<path id="XMLID_125_" d="M382,370.7c-0.6,0.6-1.2,1.1-1.9,1.3c-0.6,0.3-1.2,0.4-1.8,0.4c-0.6,0-1.2-0.2-1.8-0.5
			c-0.6-0.3-1.1-0.7-1.6-1.2l-5.5-5.5l2-2l5.3,5.3c0.4,0.4,0.7,0.6,1,0.8c0.3,0.2,0.6,0.3,0.9,0.3s0.6,0,0.8-0.2
			c0.3-0.1,0.5-0.3,0.8-0.6c0.5-0.5,0.7-1,0.7-1.6s-0.4-1.3-1.1-2l-5.3-5.3l2-2l5.5,5.5c0.5,0.5,0.9,1.1,1.2,1.6
			c0.3,0.6,0.4,1.2,0.5,1.8c0,0.6-0.1,1.2-0.4,1.9C383.1,369.4,382.6,370,382,370.7z"/>
		<path id="XMLID_127_" d="M393,359.3c-0.4-0.2-0.8-0.4-1.3-0.6c-0.4-0.2-0.9-0.4-1.3-0.6l-3.4,3.4c0.2,0.4,0.4,0.9,0.6,1.3
			s0.4,0.9,0.6,1.3l-2.1,2.1c-0.6-1.3-1.2-2.5-1.7-3.6s-1-2.2-1.4-3.2s-0.8-2-1.2-2.9c-0.4-0.9-0.7-1.8-1-2.7l1.9-1.9
			c0.9,0.3,1.8,0.7,2.7,1c0.9,0.4,1.9,0.8,2.9,1.2s2,0.9,3.2,1.4c1.1,0.5,2.3,1.1,3.6,1.7L393,359.3z M383.8,354.8
			c0.1,0.2,0.2,0.4,0.3,0.7c0.1,0.3,0.3,0.7,0.5,1.1s0.4,0.8,0.6,1.3s0.4,1,0.7,1.5l2.5-2.5c-0.5-0.2-1-0.5-1.5-0.7
			s-0.9-0.4-1.3-0.6s-0.8-0.3-1.1-0.5C384.2,355,384,354.9,383.8,354.8z"/>
		<path id="XMLID_130_" d="M400.5,348.4l1.7,1.7l-5.9,5.9l-8.8-8.8l2-2l7.1,7.1L400.5,348.4z"/>
		<path id="XMLID_132_" d="M394.6,340l2-2l8.8,8.8l-2,2L394.6,340z"/>
		<path id="XMLID_134_" d="M408.3,340.9c0.3-0.3,0.5-0.5,0.6-0.8c0.1-0.2,0.2-0.4,0.2-0.6s0-0.4-0.1-0.5s-0.2-0.3-0.3-0.4
			c-0.3-0.3-0.7-0.4-1.1-0.3c-0.5,0.1-1.1,0.3-2,0.8c-0.4,0.2-0.8,0.4-1.2,0.5c-0.4,0.2-0.8,0.3-1.3,0.3c-0.4,0-0.9,0-1.3-0.2
			c-0.4-0.1-0.8-0.4-1.3-0.8c-0.4-0.4-0.7-0.9-0.9-1.3c-0.2-0.5-0.2-1-0.2-1.5c0.1-0.5,0.2-1,0.5-1.5s0.7-1,1.2-1.5
			c0.6-0.6,1.2-1,1.7-1.3c0.6-0.3,1.1-0.5,1.5-0.6l1,2.1c-0.4,0.1-0.8,0.3-1.2,0.5c-0.4,0.2-0.8,0.5-1.2,0.9
			c-0.5,0.5-0.8,0.9-0.8,1.2c-0.1,0.3,0,0.6,0.3,0.9c0.2,0.2,0.3,0.3,0.5,0.3s0.4,0,0.6,0c0.2-0.1,0.5-0.1,0.7-0.2
			c0.3-0.1,0.5-0.2,0.8-0.4c0.6-0.3,1.2-0.5,1.7-0.7s1-0.3,1.4-0.3s0.9,0.1,1.3,0.3c0.4,0.2,0.8,0.5,1.2,0.9
			c0.8,0.8,1.2,1.8,1.1,2.8s-0.8,2.1-1.9,3.3c-0.4,0.4-0.8,0.7-1.1,1c-0.4,0.3-0.7,0.5-1,0.7s-0.6,0.3-0.8,0.4
			c-0.2,0.1-0.5,0.2-0.7,0.2l-1-2.1c0.4-0.1,0.9-0.3,1.4-0.6C407.3,341.9,407.8,341.5,408.3,340.9z"/>
		<path id="XMLID_136_" d="M408.4,326.3c0.4,0.1,1,0.3,1.6,0.5s1.3,0.4,2,0.7c0.7,0.3,1.4,0.5,2.1,0.8s1.4,0.6,2,0.8
			c-0.3-0.6-0.5-1.3-0.8-2s-0.6-1.4-0.8-2.1c-0.3-0.7-0.5-1.4-0.7-2s-0.4-1.1-0.5-1.6l1.8-1.8c0.7,0.5,1.4,1.1,2.2,1.7
			c0.8,0.7,1.6,1.3,2.5,2.1c0.8,0.7,1.7,1.5,2.5,2.2s1.6,1.4,2.3,2.1l-1.9,1.9c-0.9-0.8-1.9-1.7-2.9-2.7c-1.1-1-2.1-1.9-3.2-2.9
			c0.2,0.5,0.4,1.1,0.7,1.7c0.2,0.6,0.5,1.2,0.7,1.9c0.2,0.6,0.5,1.2,0.7,1.8c0.2,0.6,0.4,1,0.6,1.4l-1.4,1.4
			c-0.4-0.2-0.9-0.4-1.4-0.6c-0.6-0.2-1.2-0.5-1.8-0.7c-0.6-0.2-1.2-0.5-1.9-0.7c-0.6-0.2-1.2-0.5-1.7-0.7c0.9,1.1,1.9,2.2,2.9,3.2
			s1.9,2,2.7,2.9l-1.9,1.9c-0.7-0.7-1.4-1.5-2.1-2.3s-1.5-1.7-2.2-2.5s-1.4-1.7-2.1-2.5s-1.2-1.5-1.7-2.2L408.4,326.3z"/>
	</g>
</g>
</svg>
