<?xml version="1.0" ?><svg style="enable-background:new 0 0 512 512;" version="1.1" viewBox="0 0 512 512" xml:space="preserve" xmlns="http://www.w3.org/2000/svg" xmlns:xlink="http://www.w3.org/1999/xlink"><style type="text/css">
	.st0{fill:#6D1E0F;}
	.st1{fill:#E6461A;}
	.st2{fill:#BC3320;}
	.st3{fill:#FFFFFF;}
</style><g id="Edges"/><g id="Background_Bottom"><g><path class="st0" d="M492.3,443.1c0,34.2-27.7,61.9-61.9,61.9H80.7c-34.2,0-61.9-27.7-61.9-61.9V93.4c0-34.2,27.7-61.9,61.9-61.9    h349.7c34.2,0,61.9,27.7,61.9,61.9V443.1z"/></g></g><g id="Background"><path class="st1" d="M492.3,418.4c0,34.2-27.7,61.9-61.9,61.9H80.7c-34.2,0-61.9-27.7-61.9-61.9V68.6c0-34.2,27.7-61.9,61.9-61.9   h349.7c34.2,0,61.9,27.7,61.9,61.9V418.4z"/></g><g id="Shadow"><path class="st2" d="M371.2,134.4c-24.5-27.3-60.4-45.9-104.6-46.9c-19.4-0.5-38.6,3.5-56.3,11.9c-54.4,25.8-83.9,68.5-85.1,129.1   c-0.9,45.6-0.2,91.3-0.2,137c0,1.5,0,3,0,4.7l-0.3,0.3l0.3,0.3c0,0.3,0,0.6,0,0.9c0.3,0,0.6,0,0.9,0l108.8,108.8h67.4l0,0   l128.2-0.2c34.2,0,61.9-27.7,61.9-61.9c0-1.8,0-5.6,0-10.5V255.5L371.2,134.4z"/></g><g id="Symbol"><path class="st3" d="M157.8,371.4c-11.1,0-21.5,0-32.5,0c0-2.2,0-4.1,0-6.1c0-45.7-0.7-91.3,0.2-137   c1.1-60.6,30.7-103.3,85.1-129.1c17.7-8.4,36.8-12.4,56.3-11.9c77.6,1.9,129.8,57.9,139.1,120c11.3,75.4-36.3,144.7-110.6,160.6   c-10.7,2.3-21.8,3.2-32.7,3.5c-20,0.5-40,0.2-60.6,0.2c-0.1-1.7-0.3-3.3-0.3-4.8c0.1-45.8,0.1-91.6,0.3-137.5   c0.1-22,9.3-39.7,27-52.5c38.7-28.2,95-3.9,101,43.4c3.2,25.1-5.1,45.9-25.3,61c-19.9,14.9-41.9,16.6-64.8,7.2   c-1.2-0.5-2.4-1-4.2-1.7c-0.2,1.8-0.5,3.2-0.5,4.6c0,12.5,0.1,25-0.1,37.5c-0.1,3.8,1.4,5.2,4.9,6.1   c60.8,16.1,124.4-26.2,133.5-88.7c8.4-57.7-27.8-110.6-84.2-123.1c-61.9-13.7-123.7,30.2-130.5,92.8c-0.6,5.3-0.9,10.6-0.9,15.9   c-0.1,44.3,0,88.6,0,133C157.8,366.9,157.8,368.9,157.8,371.4z"/></g></svg>